<?xml version="1.0" encoding="UTF-8"?>
<svg xmlns="http://www.w3.org/2000/svg" xmlns:xlink="http://www.w3.org/1999/xlink" width="288pt" height="288pt" viewBox="0 0 288 288" version="1.1">
<defs>
<g>
<symbol overflow="visible" id="glyph0-0">
<path style="stroke:none;" d=""/>
</symbol>
<symbol overflow="visible" id="glyph0-1">
<path style="stroke:none;" d="M 2.421875 -6.359375 C 1.84375 -6.359375 1.3125 -6.09375 0.984375 -5.671875 C 0.578125 -5.109375 0.375 -4.25 0.375 -3.078125 C 0.375 -0.9375 1.078125 0.203125 2.421875 0.203125 C 3.734375 0.203125 4.453125 -0.9375 4.453125 -3.03125 C 4.453125 -4.25 4.265625 -5.078125 3.859375 -5.671875 C 3.53125 -6.109375 3.015625 -6.359375 2.421875 -6.359375 Z M 2.421875 -5.671875 C 3.25 -5.671875 3.671875 -4.828125 3.671875 -3.09375 C 3.671875 -1.28125 3.265625 -0.4375 2.40625 -0.4375 C 1.578125 -0.4375 1.171875 -1.3125 1.171875 -3.0625 C 1.171875 -4.828125 1.578125 -5.671875 2.421875 -5.671875 Z M 2.421875 -5.671875 "/>
</symbol>
<symbol overflow="visible" id="glyph0-2">
<path style="stroke:none;" d="M 2.28125 -4.53125 L 2.28125 0 L 3.046875 0 L 3.046875 -6.359375 L 2.546875 -6.359375 C 2.265625 -5.390625 2.09375 -5.25 0.890625 -5.09375 L 0.890625 -4.53125 Z M 2.28125 -4.53125 "/>
</symbol>
<symbol overflow="visible" id="glyph0-3">
<path style="stroke:none;" d="M 4.453125 -0.765625 L 1.171875 -0.765625 C 1.25 -1.296875 1.53125 -1.625 2.296875 -2.09375 L 3.171875 -2.59375 C 4.046875 -3.0625 4.5 -3.71875 4.5 -4.5 C 4.5 -5.03125 4.28125 -5.53125 3.921875 -5.875 C 3.546875 -6.203125 3.09375 -6.359375 2.5 -6.359375 C 1.703125 -6.359375 1.125 -6.078125 0.78125 -5.53125 C 0.546875 -5.203125 0.453125 -4.796875 0.4375 -4.15625 L 1.21875 -4.15625 C 1.234375 -4.59375 1.296875 -4.84375 1.40625 -5.0625 C 1.59375 -5.4375 2 -5.6875 2.46875 -5.6875 C 3.171875 -5.6875 3.703125 -5.171875 3.703125 -4.484375 C 3.703125 -3.96875 3.40625 -3.53125 2.859375 -3.21875 L 2.046875 -2.75 C 0.75 -2 0.375 -1.40625 0.296875 -0.015625 L 4.453125 -0.015625 Z M 4.453125 -0.765625 "/>
</symbol>
<symbol overflow="visible" id="glyph0-4">
<path style="stroke:none;" d="M 1.6875 -0.921875 L 0.765625 -0.921875 L 0.765625 0 L 1.6875 0 Z M 1.6875 -0.921875 "/>
</symbol>
<symbol overflow="visible" id="glyph0-5">
<path style="stroke:none;" d="M 4.1875 -6.234375 L 0.96875 -6.234375 L 0.5 -2.84375 L 1.21875 -2.84375 C 1.578125 -3.265625 1.875 -3.421875 2.359375 -3.421875 C 3.203125 -3.421875 3.71875 -2.84375 3.71875 -1.921875 C 3.71875 -1.03125 3.203125 -0.484375 2.359375 -0.484375 C 1.6875 -0.484375 1.265625 -0.828125 1.078125 -1.53125 L 0.3125 -1.53125 C 0.40625 -1.015625 0.5 -0.78125 0.6875 -0.546875 C 1.03125 -0.078125 1.671875 0.203125 2.375 0.203125 C 3.640625 0.203125 4.515625 -0.71875 4.515625 -2.03125 C 4.515625 -3.265625 3.6875 -4.109375 2.5 -4.109375 C 2.0625 -4.109375 1.703125 -4 1.34375 -3.734375 L 1.59375 -5.46875 L 4.1875 -5.46875 Z M 4.1875 -6.234375 "/>
</symbol>
<symbol overflow="visible" id="glyph0-6">
<path style="stroke:none;" d="M 1.9375 -2.921875 L 2.359375 -2.921875 C 3.203125 -2.921875 3.65625 -2.53125 3.65625 -1.765625 C 3.65625 -0.96875 3.171875 -0.484375 2.375 -0.484375 C 1.515625 -0.484375 1.109375 -0.921875 1.0625 -1.84375 L 0.28125 -1.84375 C 0.3125 -1.34375 0.40625 -1 0.546875 -0.71875 C 0.875 -0.109375 1.484375 0.203125 2.34375 0.203125 C 3.625 0.203125 4.453125 -0.578125 4.453125 -1.78125 C 4.453125 -2.59375 4.140625 -3.03125 3.390625 -3.296875 C 3.96875 -3.53125 4.265625 -3.96875 4.265625 -4.609375 C 4.265625 -5.703125 3.546875 -6.359375 2.359375 -6.359375 C 1.109375 -6.359375 0.4375 -5.65625 0.40625 -4.3125 L 1.1875 -4.3125 C 1.203125 -4.703125 1.234375 -4.921875 1.328125 -5.109375 C 1.5 -5.46875 1.890625 -5.6875 2.375 -5.6875 C 3.0625 -5.6875 3.46875 -5.265625 3.46875 -4.578125 C 3.46875 -4.140625 3.3125 -3.859375 2.96875 -3.71875 C 2.765625 -3.625 2.484375 -3.59375 1.9375 -3.578125 Z M 1.9375 -2.921875 "/>
</symbol>
<symbol overflow="visible" id="glyph0-7">
<path style="stroke:none;" d="M 2.875 -1.546875 L 2.875 0 L 3.65625 0 L 3.65625 -1.546875 L 4.578125 -1.546875 L 4.578125 -2.234375 L 3.65625 -2.234375 L 3.65625 -6.359375 L 3.078125 -6.359375 L 0.25 -2.359375 L 0.25 -1.546875 Z M 2.875 -2.234375 L 0.921875 -2.234375 L 2.875 -5.046875 Z M 2.875 -2.234375 "/>
</symbol>
<symbol overflow="visible" id="glyph0-8">
<path style="stroke:none;" d="M 0.46875 1.921875 L 1.21875 1.921875 L 1.21875 -0.484375 C 1.59375 -0.015625 2.03125 0.203125 2.625 0.203125 C 3.828125 0.203125 4.59375 -0.75 4.59375 -2.21875 C 4.59375 -3.78125 3.84375 -4.734375 2.625 -4.734375 C 2 -4.734375 1.5 -4.453125 1.15625 -3.921875 L 1.15625 -4.609375 L 0.46875 -4.609375 Z M 2.5 -4.0625 C 3.3125 -4.0625 3.828125 -3.34375 3.828125 -2.25 C 3.828125 -1.203125 3.296875 -0.484375 2.5 -0.484375 C 1.71875 -0.484375 1.21875 -1.1875 1.21875 -2.265625 C 1.21875 -3.359375 1.71875 -4.0625 2.5 -4.0625 Z M 2.5 -4.0625 "/>
</symbol>
<symbol overflow="visible" id="glyph0-9">
<path style="stroke:none;" d="M 4.515625 -2.0625 C 4.515625 -2.765625 4.453125 -3.1875 4.328125 -3.53125 C 4.03125 -4.28125 3.328125 -4.734375 2.46875 -4.734375 C 1.171875 -4.734375 0.359375 -3.765625 0.359375 -2.25 C 0.359375 -0.71875 1.140625 0.203125 2.453125 0.203125 C 3.5 0.203125 4.234375 -0.390625 4.421875 -1.40625 L 3.671875 -1.40625 C 3.46875 -0.796875 3.0625 -0.46875 2.46875 -0.46875 C 2 -0.46875 1.609375 -0.6875 1.359375 -1.078125 C 1.1875 -1.34375 1.125 -1.59375 1.125 -2.0625 Z M 1.140625 -2.65625 C 1.203125 -3.515625 1.71875 -4.0625 2.453125 -4.0625 C 3.203125 -4.0625 3.71875 -3.484375 3.71875 -2.65625 Z M 1.140625 -2.65625 "/>
</symbol>
<symbol overflow="visible" id="glyph0-10">
<path style="stroke:none;" d="M 0.609375 -4.609375 L 0.609375 0 L 1.34375 0 L 1.34375 -2.390625 C 1.359375 -3.5 1.8125 -4 2.828125 -3.96875 L 2.828125 -4.71875 C 2.703125 -4.734375 2.625 -4.734375 2.546875 -4.734375 C 2.0625 -4.734375 1.703125 -4.453125 1.28125 -3.78125 L 1.28125 -4.609375 Z M 0.609375 -4.609375 "/>
</symbol>
<symbol overflow="visible" id="glyph0-11">
<path style="stroke:none;" d="M 0.609375 -4.609375 L 0.609375 0 L 1.359375 0 L 1.359375 -2.890625 C 1.359375 -3.5625 1.84375 -4.09375 2.4375 -4.09375 C 2.984375 -4.09375 3.296875 -3.765625 3.296875 -3.171875 L 3.296875 0 L 4.03125 0 L 4.03125 -2.890625 C 4.03125 -3.5625 4.515625 -4.09375 5.109375 -4.09375 C 5.640625 -4.09375 5.96875 -3.75 5.96875 -3.171875 L 5.96875 0 L 6.703125 0 L 6.703125 -3.453125 C 6.703125 -4.28125 6.234375 -4.734375 5.359375 -4.734375 C 4.75 -4.734375 4.375 -4.5625 3.953125 -4.03125 C 3.671875 -4.53125 3.3125 -4.734375 2.703125 -4.734375 C 2.09375 -4.734375 1.6875 -4.515625 1.296875 -3.953125 L 1.296875 -4.609375 Z M 0.609375 -4.609375 "/>
</symbol>
<symbol overflow="visible" id="glyph0-12">
<path style="stroke:none;" d="M 4.234375 0 L 4.234375 -4.609375 L 3.515625 -4.609375 L 3.515625 -2 C 3.515625 -1.0625 3.015625 -0.4375 2.25 -0.4375 C 1.671875 -0.4375 1.296875 -0.796875 1.296875 -1.34375 L 1.296875 -4.609375 L 0.578125 -4.609375 L 0.578125 -1.0625 C 0.578125 -0.296875 1.140625 0.203125 2.046875 0.203125 C 2.71875 0.203125 3.15625 -0.03125 3.578125 -0.640625 L 3.578125 0 Z M 4.234375 0 "/>
</symbol>
<symbol overflow="visible" id="glyph0-13">
<path style="stroke:none;" d="M 2.234375 -4.609375 L 1.484375 -4.609375 L 1.484375 -5.875 L 0.75 -5.875 L 0.75 -4.609375 L 0.125 -4.609375 L 0.125 -4.015625 L 0.75 -4.015625 L 0.75 -0.53125 C 0.75 -0.046875 1.0625 0.203125 1.640625 0.203125 C 1.828125 0.203125 1.984375 0.1875 2.234375 0.140625 L 2.234375 -0.46875 C 2.125 -0.453125 2.03125 -0.4375 1.875 -0.4375 C 1.5625 -0.4375 1.484375 -0.53125 1.484375 -0.859375 L 1.484375 -4.015625 L 2.234375 -4.015625 Z M 2.234375 -4.609375 "/>
</symbol>
<symbol overflow="visible" id="glyph0-14">
<path style="stroke:none;" d="M 4.359375 -6.40625 L 3.625 -6.40625 L 3.625 -4.03125 C 3.3125 -4.5 2.828125 -4.734375 2.203125 -4.734375 C 1.015625 -4.734375 0.234375 -3.78125 0.234375 -2.3125 C 0.234375 -0.75 0.984375 0.203125 2.234375 0.203125 C 2.875 0.203125 3.3125 -0.03125 3.703125 -0.609375 L 3.703125 0 L 4.359375 0 Z M 2.328125 -4.0625 C 3.125 -4.0625 3.625 -3.359375 3.625 -2.25 C 3.625 -1.1875 3.109375 -0.484375 2.34375 -0.484375 C 1.53125 -0.484375 1 -1.203125 1 -2.265625 C 1 -3.34375 1.53125 -4.0625 2.328125 -4.0625 Z M 2.328125 -4.0625 "/>
</symbol>
<symbol overflow="visible" id="glyph0-15">
<path style="stroke:none;" d="M 4.703125 -0.4375 C 4.625 -0.40625 4.59375 -0.40625 4.546875 -0.40625 C 4.296875 -0.40625 4.15625 -0.546875 4.15625 -0.78125 L 4.15625 -3.484375 C 4.15625 -4.296875 3.546875 -4.734375 2.421875 -4.734375 C 1.734375 -4.734375 1.203125 -4.546875 0.890625 -4.203125 C 0.671875 -3.96875 0.59375 -3.703125 0.578125 -3.25 L 1.3125 -3.25 C 1.375 -3.8125 1.703125 -4.0625 2.390625 -4.0625 C 3.0625 -4.0625 3.421875 -3.8125 3.421875 -3.375 L 3.421875 -3.1875 C 3.40625 -2.875 3.25 -2.75 2.65625 -2.671875 C 1.625 -2.546875 1.453125 -2.5 1.171875 -2.390625 C 0.640625 -2.15625 0.375 -1.765625 0.375 -1.15625 C 0.375 -0.328125 0.953125 0.203125 1.875 0.203125 C 2.46875 0.203125 2.921875 0 3.453125 -0.46875 C 3.5 0 3.734375 0.203125 4.203125 0.203125 C 4.359375 0.203125 4.453125 0.1875 4.703125 0.125 Z M 3.421875 -1.453125 C 3.421875 -1.203125 3.359375 -1.0625 3.125 -0.859375 C 2.828125 -0.578125 2.46875 -0.4375 2.046875 -0.4375 C 1.46875 -0.4375 1.140625 -0.71875 1.140625 -1.171875 C 1.140625 -1.65625 1.453125 -1.90625 2.25 -2.015625 C 3.03125 -2.125 3.171875 -2.15625 3.421875 -2.28125 Z M 3.421875 -1.453125 "/>
</symbol>
<symbol overflow="visible" id="glyph0-16">
<path style="stroke:none;" d="M 1.34375 -6.40625 L 0.59375 -6.40625 L 0.59375 0 L 1.34375 0 Z M 1.34375 -6.40625 "/>
</symbol>
<symbol overflow="visible" id="glyph1-0">
<path style="stroke:none;" d=""/>
</symbol>
<symbol overflow="visible" id="glyph1-1">
<path style="stroke:none;" d="M 3.890625 -7.109375 L 6.515625 -7.109375 L 6.515625 -8.015625 L 0.234375 -8.015625 L 0.234375 -7.109375 L 2.875 -7.109375 L 2.875 0 L 3.890625 0 Z M 3.890625 -7.109375 "/>
</symbol>
<symbol overflow="visible" id="glyph1-2">
<path style="stroke:none;" d="M 3.125 -3.4375 L 0.5 -3.4375 L 0.5 -2.640625 L 3.125 -2.640625 Z M 3.125 -3.4375 "/>
</symbol>
<symbol overflow="visible" id="glyph1-3">
<path style="stroke:none;" d="M 5.140625 0 L 7.40625 -6.71875 L 7.40625 0 L 8.375 0 L 8.375 -8.015625 L 6.953125 -8.015625 L 4.625 -1.03125 L 2.25 -8.015625 L 0.828125 -8.015625 L 0.828125 0 L 1.796875 0 L 1.796875 -6.71875 L 4.0625 0 Z M 5.140625 0 "/>
</symbol>
<symbol overflow="visible" id="glyph1-4">
<path style="stroke:none;" d="M 5.640625 -2.578125 C 5.640625 -3.453125 5.578125 -3.984375 5.40625 -4.40625 C 5.03125 -5.359375 4.15625 -5.921875 3.078125 -5.921875 C 1.46875 -5.921875 0.4375 -4.703125 0.4375 -2.8125 C 0.4375 -0.90625 1.4375 0.25 3.0625 0.25 C 4.375 0.25 5.296875 -0.5 5.515625 -1.75 L 4.59375 -1.75 C 4.34375 -0.984375 3.828125 -0.59375 3.09375 -0.59375 C 2.515625 -0.59375 2.015625 -0.859375 1.703125 -1.34375 C 1.484375 -1.671875 1.40625 -2 1.390625 -2.578125 Z M 1.421875 -3.328125 C 1.5 -4.390625 2.140625 -5.078125 3.0625 -5.078125 C 4 -5.078125 4.65625 -4.359375 4.65625 -3.328125 Z M 1.421875 -3.328125 "/>
</symbol>
<symbol overflow="visible" id="glyph1-5">
<path style="stroke:none;" d="M 3.21875 -2.984375 L 5.140625 -5.765625 L 4.109375 -5.765625 L 2.734375 -3.671875 L 1.34375 -5.765625 L 0.296875 -5.765625 L 2.21875 -2.9375 L 0.1875 0 L 1.234375 0 L 2.6875 -2.21875 L 4.140625 0 L 5.203125 0 Z M 3.21875 -2.984375 "/>
</symbol>
<symbol overflow="visible" id="glyph1-6">
<path style="stroke:none;" d=""/>
</symbol>
<symbol overflow="visible" id="glyph1-7">
<path style="stroke:none;" d="M 4.8125 -4.15625 C 4.8125 -5.296875 4.0625 -5.921875 2.734375 -5.921875 C 1.390625 -5.921875 0.515625 -5.234375 0.515625 -4.171875 C 0.515625 -3.265625 0.984375 -2.84375 2.34375 -2.515625 L 3.203125 -2.296875 C 3.84375 -2.140625 4.09375 -1.90625 4.09375 -1.5 C 4.09375 -0.953125 3.546875 -0.59375 2.75 -0.59375 C 2.25 -0.59375 1.84375 -0.734375 1.609375 -0.984375 C 1.46875 -1.140625 1.390625 -1.3125 1.34375 -1.71875 L 0.375 -1.71875 C 0.421875 -0.390625 1.171875 0.25 2.671875 0.25 C 4.125 0.25 5.046875 -0.46875 5.046875 -1.578125 C 5.046875 -2.4375 4.5625 -2.90625 3.421875 -3.171875 L 2.546875 -3.390625 C 1.796875 -3.5625 1.46875 -3.8125 1.46875 -4.21875 C 1.46875 -4.75 1.953125 -5.078125 2.6875 -5.078125 C 3.4375 -5.078125 3.828125 -4.765625 3.84375 -4.15625 Z M 4.8125 -4.15625 "/>
</symbol>
<symbol overflow="visible" id="glyph1-8">
<path style="stroke:none;" d="M 5.1875 -3.828125 C 5.140625 -4.390625 5.015625 -4.75 4.796875 -5.078125 C 4.40625 -5.609375 3.703125 -5.921875 2.90625 -5.921875 C 1.34375 -5.921875 0.34375 -4.703125 0.34375 -2.78125 C 0.34375 -0.921875 1.328125 0.25 2.890625 0.25 C 4.265625 0.25 5.140625 -0.578125 5.25 -1.984375 L 4.328125 -1.984375 C 4.171875 -1.0625 3.703125 -0.59375 2.921875 -0.59375 C 1.90625 -0.59375 1.296875 -1.421875 1.296875 -2.78125 C 1.296875 -4.21875 1.890625 -5.078125 2.890625 -5.078125 C 3.65625 -5.078125 4.140625 -4.625 4.25 -3.828125 Z M 5.1875 -3.828125 "/>
</symbol>
<symbol overflow="visible" id="glyph1-9">
<path style="stroke:none;" d="M 2.984375 -5.921875 C 1.359375 -5.921875 0.390625 -4.78125 0.390625 -2.84375 C 0.390625 -0.890625 1.359375 0.25 3 0.25 C 4.625 0.25 5.609375 -0.90625 5.609375 -2.796875 C 5.609375 -4.796875 4.65625 -5.921875 2.984375 -5.921875 Z M 3 -5.078125 C 4.03125 -5.078125 4.65625 -4.234375 4.65625 -2.8125 C 4.65625 -1.4375 4.015625 -0.59375 3 -0.59375 C 1.984375 -0.59375 1.359375 -1.4375 1.359375 -2.84375 C 1.359375 -4.234375 1.984375 -5.078125 3 -5.078125 Z M 3 -5.078125 "/>
</symbol>
<symbol overflow="visible" id="glyph1-10">
<path style="stroke:none;" d="M 0.765625 -5.765625 L 0.765625 0 L 1.6875 0 L 1.6875 -2.984375 C 1.6875 -4.375 2.265625 -5 3.53125 -4.96875 L 3.53125 -5.890625 C 3.375 -5.921875 3.28125 -5.921875 3.171875 -5.921875 C 2.578125 -5.921875 2.140625 -5.578125 1.609375 -4.71875 L 1.609375 -5.765625 Z M 0.765625 -5.765625 "/>
</symbol>
<symbol overflow="visible" id="glyph1-11">
<path style="stroke:none;" d="M 4.4375 -5.765625 L 4.4375 -4.921875 C 3.984375 -5.625 3.46875 -5.921875 2.75 -5.921875 C 1.359375 -5.921875 0.390625 -4.625 0.390625 -2.78125 C 0.390625 -1.8125 0.609375 -1.109375 1.109375 -0.53125 C 1.546875 -0.015625 2.09375 0.25 2.6875 0.25 C 3.375 0.25 3.875 -0.0625 4.359375 -0.78125 L 4.359375 -0.484375 C 4.359375 1.0625 3.921875 1.625 2.78125 1.625 C 2 1.625 1.59375 1.3125 1.5 0.65625 L 0.578125 0.65625 C 0.65625 1.734375 1.5 2.390625 2.765625 2.390625 C 3.609375 2.390625 4.3125 2.125 4.6875 1.65625 C 5.125 1.125 5.296875 0.40625 5.296875 -0.953125 L 5.296875 -5.765625 Z M 2.84375 -5.078125 C 3.8125 -5.078125 4.359375 -4.265625 4.359375 -2.8125 C 4.359375 -1.40625 3.796875 -0.59375 2.84375 -0.59375 C 1.890625 -0.59375 1.34375 -1.421875 1.34375 -2.84375 C 1.34375 -4.25 1.890625 -5.078125 2.84375 -5.078125 Z M 2.84375 -5.078125 "/>
</symbol>
<symbol overflow="visible" id="glyph1-12">
<path style="stroke:none;" d="M 5.296875 0 L 5.296875 -5.765625 L 4.390625 -5.765625 L 4.390625 -2.5 C 4.390625 -1.3125 3.765625 -0.546875 2.8125 -0.546875 C 2.09375 -0.546875 1.625 -0.984375 1.625 -1.6875 L 1.625 -5.765625 L 0.71875 -5.765625 L 0.71875 -1.3125 C 0.71875 -0.359375 1.4375 0.25 2.546875 0.25 C 3.40625 0.25 3.9375 -0.046875 4.484375 -0.796875 L 4.484375 0 Z M 5.296875 0 "/>
</symbol>
<symbol overflow="visible" id="glyph1-13">
<path style="stroke:none;" d="M 0.59375 2.390625 L 1.515625 2.390625 L 1.515625 -0.609375 C 2 -0.015625 2.546875 0.25 3.28125 0.25 C 4.78125 0.25 5.75 -0.953125 5.75 -2.78125 C 5.75 -4.71875 4.8125 -5.921875 3.28125 -5.921875 C 2.5 -5.921875 1.875 -5.578125 1.4375 -4.890625 L 1.4375 -5.765625 L 0.59375 -5.765625 Z M 3.125 -5.078125 C 4.140625 -5.078125 4.796875 -4.1875 4.796875 -2.8125 C 4.796875 -1.5 4.125 -0.609375 3.125 -0.609375 C 2.140625 -0.609375 1.515625 -1.484375 1.515625 -2.84375 C 1.515625 -4.1875 2.140625 -5.078125 3.125 -5.078125 Z M 3.125 -5.078125 "/>
</symbol>
<symbol overflow="visible" id="glyph2-0">
<path style="stroke:none;" d=""/>
</symbol>
<symbol overflow="visible" id="glyph2-1">
<path style="stroke:none;" d="M -8.015625 -5.4375 L -8.015625 -4.53125 L -5.03125 -4.53125 C -5.625 -4.140625 -5.921875 -3.53125 -5.921875 -2.765625 C -5.921875 -1.265625 -4.734375 -0.28125 -2.890625 -0.28125 C -0.953125 -0.28125 0.25 -1.234375 0.25 -2.796875 C 0.25 -3.59375 -0.046875 -4.140625 -0.765625 -4.625 L 0 -4.625 L 0 -5.4375 Z M -5.078125 -2.921875 C -5.078125 -3.90625 -4.203125 -4.53125 -2.8125 -4.53125 C -1.484375 -4.53125 -0.609375 -3.890625 -0.609375 -2.921875 C -0.609375 -1.90625 -1.5 -1.25 -2.84375 -1.25 C -4.1875 -1.25 -5.078125 -1.90625 -5.078125 -2.921875 Z M -5.078125 -2.921875 "/>
</symbol>
<symbol overflow="visible" id="glyph2-2">
<path style="stroke:none;" d="M -2.578125 -5.640625 C -3.453125 -5.640625 -3.984375 -5.578125 -4.40625 -5.40625 C -5.359375 -5.03125 -5.921875 -4.15625 -5.921875 -3.078125 C -5.921875 -1.46875 -4.703125 -0.4375 -2.8125 -0.4375 C -0.90625 -0.4375 0.25 -1.4375 0.25 -3.0625 C 0.25 -4.375 -0.5 -5.296875 -1.75 -5.515625 L -1.75 -4.59375 C -0.984375 -4.34375 -0.59375 -3.828125 -0.59375 -3.09375 C -0.59375 -2.515625 -0.859375 -2.015625 -1.34375 -1.703125 C -1.671875 -1.484375 -2 -1.40625 -2.578125 -1.390625 Z M -3.328125 -1.421875 C -4.390625 -1.5 -5.078125 -2.140625 -5.078125 -3.0625 C -5.078125 -4 -4.359375 -4.65625 -3.328125 -4.65625 Z M -3.328125 -1.421875 "/>
</symbol>
<symbol overflow="visible" id="glyph2-3">
<path style="stroke:none;" d="M -5.765625 -0.765625 L 0 -0.765625 L 0 -1.6875 L -3.171875 -1.6875 C -4.359375 -1.6875 -5.125 -2.3125 -5.125 -3.25 C -5.125 -3.984375 -4.6875 -4.4375 -4 -4.4375 L 0 -4.4375 L 0 -5.359375 L -4.359375 -5.359375 C -5.3125 -5.359375 -5.921875 -4.640625 -5.921875 -3.53125 C -5.921875 -2.671875 -5.59375 -2.125 -4.796875 -1.609375 L -5.765625 -1.609375 Z M -5.765625 -0.765625 "/>
</symbol>
<symbol overflow="visible" id="glyph2-4">
<path style="stroke:none;" d="M -4.15625 -4.8125 C -5.296875 -4.8125 -5.921875 -4.0625 -5.921875 -2.734375 C -5.921875 -1.390625 -5.234375 -0.515625 -4.171875 -0.515625 C -3.265625 -0.515625 -2.84375 -0.984375 -2.515625 -2.34375 L -2.296875 -3.203125 C -2.140625 -3.84375 -1.90625 -4.09375 -1.5 -4.09375 C -0.953125 -4.09375 -0.59375 -3.546875 -0.59375 -2.75 C -0.59375 -2.25 -0.734375 -1.84375 -0.984375 -1.609375 C -1.140625 -1.46875 -1.3125 -1.390625 -1.71875 -1.34375 L -1.71875 -0.375 C -0.390625 -0.421875 0.25 -1.171875 0.25 -2.671875 C 0.25 -4.125 -0.46875 -5.046875 -1.578125 -5.046875 C -2.4375 -5.046875 -2.90625 -4.5625 -3.171875 -3.421875 L -3.390625 -2.546875 C -3.5625 -1.796875 -3.8125 -1.46875 -4.21875 -1.46875 C -4.75 -1.46875 -5.078125 -1.953125 -5.078125 -2.6875 C -5.078125 -3.4375 -4.765625 -3.828125 -4.15625 -3.84375 Z M -4.15625 -4.8125 "/>
</symbol>
<symbol overflow="visible" id="glyph2-5">
<path style="stroke:none;" d="M -5.765625 -1.65625 L -5.765625 -0.734375 L 0 -0.734375 L 0 -1.65625 Z M -8.015625 -1.65625 L -8.015625 -0.71875 L -6.859375 -0.71875 L -6.859375 -1.65625 Z M -8.015625 -1.65625 "/>
</symbol>
<symbol overflow="visible" id="glyph2-6">
<path style="stroke:none;" d="M -5.765625 -2.796875 L -5.765625 -1.84375 L -7.34375 -1.84375 L -7.34375 -0.9375 L -5.765625 -0.9375 L -5.765625 -0.15625 L -5.015625 -0.15625 L -5.015625 -0.9375 L -0.65625 -0.9375 C -0.0625 -0.9375 0.25 -1.328125 0.25 -2.046875 C 0.25 -2.28125 0.234375 -2.484375 0.171875 -2.796875 L -0.59375 -2.796875 C -0.5625 -2.65625 -0.546875 -2.546875 -0.546875 -2.359375 C -0.546875 -1.953125 -0.65625 -1.84375 -1.0625 -1.84375 L -5.015625 -1.84375 L -5.015625 -2.796875 Z M -5.765625 -2.796875 "/>
</symbol>
<symbol overflow="visible" id="glyph2-7">
<path style="stroke:none;" d="M -5.765625 -4.265625 L -1.28125 -2.671875 L -5.765625 -1.203125 L -5.765625 -0.21875 L 0.015625 -2.171875 L 0.9375 -1.8125 C 1.34375 -1.65625 1.5 -1.46875 1.5 -1.078125 C 1.5 -0.921875 1.46875 -0.796875 1.4375 -0.59375 L 2.25 -0.59375 C 2.359375 -0.78125 2.390625 -0.96875 2.390625 -1.203125 C 2.390625 -1.5 2.296875 -1.828125 2.125 -2.0625 C 1.90625 -2.359375 1.671875 -2.515625 1.203125 -2.6875 L -5.765625 -5.265625 Z M -5.765625 -4.265625 "/>
</symbol>
<symbol overflow="visible" id="glyph3-0">
<path style="stroke:none;" d=""/>
</symbol>
<symbol overflow="visible" id="glyph3-1">
<path style="stroke:none;" d="M 1.171875 0 L 4.890625 0 C 7.3125 0 8.8125 -1.828125 8.8125 -4.8125 C 8.8125 -7.796875 7.328125 -9.625 4.890625 -9.625 L 1.171875 -9.625 Z M 2.40625 -1.078125 L 2.40625 -8.546875 L 4.671875 -8.546875 C 6.578125 -8.546875 7.578125 -7.265625 7.578125 -4.8125 C 7.578125 -2.359375 6.578125 -1.078125 4.671875 -1.078125 Z M 2.40625 -1.078125 "/>
</symbol>
<symbol overflow="visible" id="glyph3-2">
<path style="stroke:none;" d="M 1.984375 -6.921875 L 0.890625 -6.921875 L 0.890625 0 L 1.984375 0 Z M 1.984375 -9.625 L 0.875 -9.625 L 0.875 -8.234375 L 1.984375 -8.234375 Z M 1.984375 -9.625 "/>
</symbol>
<symbol overflow="visible" id="glyph3-3">
<path style="stroke:none;" d="M 3.4375 -6.921875 L 2.28125 -6.921875 L 2.28125 -8 C 2.28125 -8.46875 2.53125 -8.703125 3.046875 -8.703125 C 3.140625 -8.703125 3.1875 -8.703125 3.4375 -8.6875 L 3.4375 -9.59375 C 3.1875 -9.65625 3.03125 -9.671875 2.8125 -9.671875 C 1.796875 -9.671875 1.1875 -9.078125 1.1875 -8.09375 L 1.1875 -6.921875 L 0.265625 -6.921875 L 0.265625 -6.015625 L 1.1875 -6.015625 L 1.1875 0 L 2.28125 0 L 2.28125 -6.015625 L 3.4375 -6.015625 Z M 6.984375 -6.921875 L 5.828125 -6.921875 L 5.828125 -8 C 5.828125 -8.46875 6.09375 -8.703125 6.609375 -8.703125 C 6.6875 -8.703125 6.734375 -8.703125 6.984375 -8.6875 L 6.984375 -9.59375 C 6.734375 -9.65625 6.59375 -9.671875 6.359375 -9.671875 C 5.34375 -9.671875 4.734375 -9.078125 4.734375 -8.09375 L 4.734375 -6.921875 L 3.8125 -6.921875 L 3.8125 -6.015625 L 4.734375 -6.015625 L 4.734375 0 L 5.828125 0 L 5.828125 -6.015625 L 6.984375 -6.015625 Z M 6.984375 -6.921875 "/>
</symbol>
<symbol overflow="visible" id="glyph3-4">
<path style="stroke:none;" d="M 6.765625 -3.09375 C 6.765625 -4.140625 6.6875 -4.78125 6.5 -5.296875 C 6.046875 -6.4375 4.984375 -7.109375 3.703125 -7.109375 C 1.765625 -7.109375 0.53125 -5.65625 0.53125 -3.359375 C 0.53125 -1.078125 1.71875 0.296875 3.671875 0.296875 C 5.25 0.296875 6.34375 -0.59375 6.625 -2.09375 L 5.515625 -2.09375 C 5.21875 -1.1875 4.59375 -0.71875 3.703125 -0.71875 C 3.015625 -0.71875 2.421875 -1.03125 2.046875 -1.609375 C 1.78125 -2 1.6875 -2.40625 1.671875 -3.09375 Z M 1.703125 -3.984375 C 1.796875 -5.265625 2.578125 -6.09375 3.6875 -6.09375 C 4.8125 -6.09375 5.578125 -5.234375 5.578125 -3.984375 Z M 1.703125 -3.984375 "/>
</symbol>
<symbol overflow="visible" id="glyph3-5">
<path style="stroke:none;" d="M 0.90625 -6.921875 L 0.90625 0 L 2.015625 0 L 2.015625 -3.59375 C 2.03125 -5.25 2.71875 -6 4.234375 -5.953125 L 4.234375 -7.078125 C 4.046875 -7.109375 3.953125 -7.109375 3.8125 -7.109375 C 3.109375 -7.109375 2.5625 -6.6875 1.921875 -5.671875 L 1.921875 -6.921875 Z M 0.90625 -6.921875 "/>
</symbol>
<symbol overflow="visible" id="glyph3-6">
<path style="stroke:none;" d="M 0.921875 -6.921875 L 0.921875 0 L 2.03125 0 L 2.03125 -3.8125 C 2.03125 -5.234375 2.765625 -6.15625 3.90625 -6.15625 C 4.78125 -6.15625 5.328125 -5.625 5.328125 -4.796875 L 5.328125 0 L 6.4375 0 L 6.4375 -5.234375 C 6.4375 -6.375 5.578125 -7.109375 4.234375 -7.109375 C 3.203125 -7.109375 2.546875 -6.71875 1.9375 -5.75 L 1.9375 -6.921875 Z M 0.921875 -6.921875 "/>
</symbol>
<symbol overflow="visible" id="glyph3-7">
<path style="stroke:none;" d="M 6.21875 -4.59375 C 6.171875 -5.265625 6.015625 -5.703125 5.75 -6.09375 C 5.28125 -6.734375 4.453125 -7.109375 3.484375 -7.109375 C 1.609375 -7.109375 0.40625 -5.640625 0.40625 -3.34375 C 0.40625 -1.109375 1.59375 0.296875 3.46875 0.296875 C 5.125 0.296875 6.171875 -0.6875 6.296875 -2.375 L 5.1875 -2.375 C 5 -1.265625 4.4375 -0.71875 3.5 -0.71875 C 2.28125 -0.71875 1.5625 -1.703125 1.5625 -3.34375 C 1.5625 -5.0625 2.265625 -6.09375 3.46875 -6.09375 C 4.390625 -6.09375 4.984375 -5.5625 5.109375 -4.59375 Z M 6.21875 -4.59375 "/>
</symbol>
<symbol overflow="visible" id="glyph3-8">
<path style="stroke:none;" d="M 2.828125 -1.375 L 1.453125 -1.375 L 1.453125 0 L 2.828125 0 Z M 2.828125 -6.921875 L 1.453125 -6.921875 L 1.453125 -5.546875 L 2.828125 -5.546875 Z M 2.828125 -6.921875 "/>
</symbol>
<symbol overflow="visible" id="glyph3-9">
<path style="stroke:none;" d=""/>
</symbol>
<symbol overflow="visible" id="glyph3-10">
<path style="stroke:none;" d="M 3.625 -9.546875 C 2.765625 -9.546875 1.96875 -9.15625 1.484375 -8.5 C 0.875 -7.65625 0.5625 -6.390625 0.5625 -4.625 C 0.5625 -1.40625 1.625 0.296875 3.625 0.296875 C 5.609375 0.296875 6.6875 -1.40625 6.6875 -4.546875 C 6.6875 -6.390625 6.40625 -7.625 5.78125 -8.5 C 5.296875 -9.15625 4.515625 -9.546875 3.625 -9.546875 Z M 3.625 -8.515625 C 4.890625 -8.515625 5.5 -7.234375 5.5 -4.640625 C 5.5 -1.921875 4.890625 -0.65625 3.609375 -0.65625 C 2.375 -0.65625 1.75 -1.984375 1.75 -4.609375 C 1.75 -7.234375 2.375 -8.515625 3.625 -8.515625 Z M 3.625 -8.515625 "/>
</symbol>
<symbol overflow="visible" id="glyph3-11">
<path style="stroke:none;" d="M 2.515625 -1.375 L 1.15625 -1.375 L 1.15625 0 L 2.515625 0 Z M 2.515625 -1.375 "/>
</symbol>
<symbol overflow="visible" id="glyph3-12">
<path style="stroke:none;" d="M 3.421875 -6.796875 L 3.421875 0 L 4.578125 0 L 4.578125 -9.546875 L 3.8125 -9.546875 C 3.40625 -8.078125 3.140625 -7.875 1.34375 -7.640625 L 1.34375 -6.796875 Z M 3.421875 -6.796875 "/>
</symbol>
<symbol overflow="visible" id="glyph3-13">
<path style="stroke:none;" d="M 6.6875 -1.15625 L 1.75 -1.15625 C 1.875 -1.9375 2.296875 -2.4375 3.453125 -3.140625 L 4.765625 -3.875 C 6.078125 -4.609375 6.75 -5.578125 6.75 -6.765625 C 6.75 -7.546875 6.4375 -8.296875 5.875 -8.8125 C 5.328125 -9.3125 4.640625 -9.546875 3.75 -9.546875 C 2.5625 -9.546875 1.671875 -9.125 1.15625 -8.3125 C 0.828125 -7.796875 0.6875 -7.203125 0.65625 -6.25 L 1.828125 -6.25 C 1.859375 -6.890625 1.9375 -7.28125 2.09375 -7.59375 C 2.40625 -8.171875 3.015625 -8.53125 3.703125 -8.53125 C 4.765625 -8.53125 5.5625 -7.765625 5.5625 -6.734375 C 5.5625 -5.96875 5.125 -5.3125 4.296875 -4.828125 L 3.078125 -4.125 C 1.125 -3 0.546875 -2.09375 0.453125 -0.015625 L 6.6875 -0.015625 Z M 6.6875 -1.15625 "/>
</symbol>
<symbol overflow="visible" id="glyph3-14">
<path style="stroke:none;" d="M 1.15625 -1.375 L 1.15625 0 L 1.9375 0 L 1.9375 0.234375 C 1.9375 1.15625 1.765625 1.40625 1.15625 1.4375 L 1.15625 1.9375 C 2.015625 1.96875 2.53125 1.328125 2.53125 0.21875 L 2.53125 -1.375 Z M 1.15625 -1.375 "/>
</symbol>
<symbol overflow="visible" id="glyph3-15">
<path style="stroke:none;" d="M 3.359375 -6.921875 L 2.21875 -6.921875 L 2.21875 -8.8125 L 1.125 -8.8125 L 1.125 -6.921875 L 0.1875 -6.921875 L 0.1875 -6.015625 L 1.125 -6.015625 L 1.125 -0.796875 C 1.125 -0.078125 1.59375 0.296875 2.453125 0.296875 C 2.75 0.296875 2.984375 0.28125 3.359375 0.21875 L 3.359375 -0.71875 C 3.1875 -0.671875 3.046875 -0.65625 2.828125 -0.65625 C 2.34375 -0.65625 2.21875 -0.796875 2.21875 -1.28125 L 2.21875 -6.015625 L 3.359375 -6.015625 Z M 3.359375 -6.921875 "/>
</symbol>
<symbol overflow="visible" id="glyph3-16">
<path style="stroke:none;" d="M 3.75 -4.125 L 0.609375 -4.125 L 0.609375 -3.171875 L 3.75 -3.171875 Z M 3.75 -4.125 "/>
</symbol>
<symbol overflow="visible" id="glyph3-17">
<path style="stroke:none;" d="M 5.78125 -4.984375 C 5.765625 -6.34375 4.875 -7.109375 3.28125 -7.109375 C 1.65625 -7.109375 0.625 -6.28125 0.625 -5 C 0.625 -3.921875 1.171875 -3.40625 2.8125 -3.015625 L 3.84375 -2.765625 C 4.609375 -2.578125 4.90625 -2.296875 4.90625 -1.8125 C 4.90625 -1.15625 4.265625 -0.71875 3.296875 -0.71875 C 2.703125 -0.71875 2.203125 -0.890625 1.921875 -1.171875 C 1.75 -1.375 1.671875 -1.578125 1.609375 -2.0625 L 0.453125 -2.0625 C 0.5 -0.46875 1.40625 0.296875 3.203125 0.296875 C 4.953125 0.296875 6.0625 -0.546875 6.0625 -1.890625 C 6.0625 -2.921875 5.484375 -3.484375 4.109375 -3.8125 L 3.046875 -4.0625 C 2.15625 -4.28125 1.765625 -4.5625 1.765625 -5.0625 C 1.765625 -5.703125 2.34375 -6.09375 3.234375 -6.09375 C 4.125 -6.09375 4.59375 -5.71875 4.625 -4.984375 Z M 5.78125 -4.984375 "/>
</symbol>
<symbol overflow="visible" id="glyph3-18">
<path style="stroke:none;" d="M 0.71875 2.875 L 1.828125 2.875 L 1.828125 -0.71875 C 2.40625 -0.015625 3.046875 0.296875 3.953125 0.296875 C 5.75 0.296875 6.90625 -1.140625 6.90625 -3.34375 C 6.90625 -5.671875 5.765625 -7.109375 3.9375 -7.109375 C 3 -7.109375 2.25 -6.6875 1.734375 -5.875 L 1.734375 -6.921875 L 0.71875 -6.921875 Z M 3.75 -6.09375 C 4.96875 -6.09375 5.75 -5.015625 5.75 -3.359375 C 5.75 -1.796875 4.953125 -0.71875 3.75 -0.71875 C 2.578125 -0.71875 1.828125 -1.78125 1.828125 -3.40625 C 1.828125 -5.03125 2.578125 -6.09375 3.75 -6.09375 Z M 3.75 -6.09375 "/>
</symbol>
<symbol overflow="visible" id="glyph3-19">
<path style="stroke:none;" d="M 3.765625 0 L 6.421875 -6.921875 L 5.171875 -6.921875 L 3.21875 -1.3125 L 1.375 -6.921875 L 0.125 -6.921875 L 2.5625 0 Z M 3.765625 0 "/>
</symbol>
<symbol overflow="visible" id="glyph3-20">
<path style="stroke:none;" d="M 7.0625 -0.640625 C 6.9375 -0.625 6.890625 -0.625 6.828125 -0.625 C 6.4375 -0.625 6.234375 -0.8125 6.234375 -1.15625 L 6.234375 -5.234375 C 6.234375 -6.453125 5.328125 -7.109375 3.625 -7.109375 C 2.609375 -7.109375 1.8125 -6.828125 1.328125 -6.3125 C 1.015625 -5.953125 0.890625 -5.5625 0.859375 -4.875 L 1.96875 -4.875 C 2.0625 -5.71875 2.5625 -6.09375 3.59375 -6.09375 C 4.59375 -6.09375 5.140625 -5.734375 5.140625 -5.0625 L 5.140625 -4.78125 C 5.125 -4.296875 4.890625 -4.125 3.984375 -4.015625 C 2.421875 -3.8125 2.1875 -3.765625 1.765625 -3.59375 C 0.96875 -3.25 0.546875 -2.640625 0.546875 -1.75 C 0.546875 -0.484375 1.421875 0.296875 2.828125 0.296875 C 3.703125 0.296875 4.390625 0 5.171875 -0.71875 C 5.25 0 5.59375 0.296875 6.3125 0.296875 C 6.546875 0.296875 6.6875 0.28125 7.0625 0.1875 Z M 5.140625 -2.171875 C 5.140625 -1.8125 5.03125 -1.578125 4.703125 -1.28125 C 4.25 -0.875 3.703125 -0.65625 3.0625 -0.65625 C 2.203125 -0.65625 1.703125 -1.0625 1.703125 -1.765625 C 1.703125 -2.5 2.171875 -2.859375 3.359375 -3.03125 C 4.546875 -3.1875 4.765625 -3.25 5.140625 -3.421875 Z M 5.140625 -2.171875 "/>
</symbol>
<symbol overflow="visible" id="glyph3-21">
<path style="stroke:none;" d="M 2 -9.625 L 0.890625 -9.625 L 0.890625 0 L 2 0 Z M 2 -9.625 "/>
</symbol>
<symbol overflow="visible" id="glyph3-22">
<path style="stroke:none;" d="M 6.359375 0 L 6.359375 -6.921875 L 5.265625 -6.921875 L 5.265625 -3 C 5.265625 -1.578125 4.53125 -0.65625 3.375 -0.65625 C 2.515625 -0.65625 1.953125 -1.1875 1.953125 -2.015625 L 1.953125 -6.921875 L 0.859375 -6.921875 L 0.859375 -1.578125 C 0.859375 -0.4375 1.71875 0.296875 3.0625 0.296875 C 4.078125 0.296875 4.734375 -0.046875 5.375 -0.96875 L 5.375 0 Z M 6.359375 0 "/>
</symbol>
</g>
<clipPath id="clip1">
  <path d="M 40.152344 23.957031 L 282.523438 23.957031 L 282.523438 214.648438 L 40.152344 214.648438 Z M 40.152344 23.957031 "/>
</clipPath>
<clipPath id="clip2">
  <path d="M 40.152344 174 L 282.523438 174 L 282.523438 175 L 40.152344 175 Z M 40.152344 174 "/>
</clipPath>
<clipPath id="clip3">
  <path d="M 40.152344 111 L 282.523438 111 L 282.523438 113 L 40.152344 113 Z M 40.152344 111 "/>
</clipPath>
<clipPath id="clip4">
  <path d="M 40.152344 48 L 282.523438 48 L 282.523438 50 L 40.152344 50 Z M 40.152344 48 "/>
</clipPath>
<clipPath id="clip5">
  <path d="M 44 23.957031 L 46 23.957031 L 46 214.648438 L 44 214.648438 Z M 44 23.957031 "/>
</clipPath>
<clipPath id="clip6">
  <path d="M 88 23.957031 L 89 23.957031 L 89 214.648438 L 88 214.648438 Z M 88 23.957031 "/>
</clipPath>
<clipPath id="clip7">
  <path d="M 131 23.957031 L 133 23.957031 L 133 214.648438 L 131 214.648438 Z M 131 23.957031 "/>
</clipPath>
<clipPath id="clip8">
  <path d="M 175 23.957031 L 176 23.957031 L 176 214.648438 L 175 214.648438 Z M 175 23.957031 "/>
</clipPath>
<clipPath id="clip9">
  <path d="M 219 23.957031 L 220 23.957031 L 220 214.648438 L 219 214.648438 Z M 219 23.957031 "/>
</clipPath>
<clipPath id="clip10">
  <path d="M 262 23.957031 L 264 23.957031 L 264 214.648438 L 262 214.648438 Z M 262 23.957031 "/>
</clipPath>
<clipPath id="clip11">
  <path d="M 40.152344 205 L 282.523438 205 L 282.523438 207 L 40.152344 207 Z M 40.152344 205 "/>
</clipPath>
<clipPath id="clip12">
  <path d="M 40.152344 142 L 282.523438 142 L 282.523438 144 L 40.152344 144 Z M 40.152344 142 "/>
</clipPath>
<clipPath id="clip13">
  <path d="M 40.152344 80 L 282.523438 80 L 282.523438 82 L 40.152344 82 Z M 40.152344 80 "/>
</clipPath>
<clipPath id="clip14">
  <path d="M 66 23.957031 L 68 23.957031 L 68 214.648438 L 66 214.648438 Z M 66 23.957031 "/>
</clipPath>
<clipPath id="clip15">
  <path d="M 109 23.957031 L 111 23.957031 L 111 214.648438 L 109 214.648438 Z M 109 23.957031 "/>
</clipPath>
<clipPath id="clip16">
  <path d="M 153 23.957031 L 155 23.957031 L 155 214.648438 L 153 214.648438 Z M 153 23.957031 "/>
</clipPath>
<clipPath id="clip17">
  <path d="M 196 23.957031 L 199 23.957031 L 199 214.648438 L 196 214.648438 Z M 196 23.957031 "/>
</clipPath>
<clipPath id="clip18">
  <path d="M 240 23.957031 L 242 23.957031 L 242 214.648438 L 240 214.648438 Z M 240 23.957031 "/>
</clipPath>
<clipPath id="clip19">
  <path d="M 234 23.957031 L 237 23.957031 L 237 214.648438 L 234 214.648438 Z M 234 23.957031 "/>
</clipPath>
<clipPath id="clip20">
  <path d="M 137 23.957031 L 139 23.957031 L 139 214.648438 L 137 214.648438 Z M 137 23.957031 "/>
</clipPath>
<clipPath id="clip21">
  <path d="M 40.152344 23.957031 L 282.523438 23.957031 L 282.523438 214.648438 L 40.152344 214.648438 Z M 40.152344 23.957031 "/>
</clipPath>
</defs>
<g id="surface375">
<rect x="0" y="0" width="288" height="288" style="fill:rgb(100%,100%,100%);fill-opacity:1;stroke:none;"/>
<rect x="0" y="0" width="288" height="288" style="fill:rgb(100%,100%,100%);fill-opacity:1;stroke:none;"/>
<path style="fill:none;stroke-width:1.066978;stroke-linecap:round;stroke-linejoin:round;stroke:rgb(100%,100%,100%);stroke-opacity:1;stroke-miterlimit:10;" d="M 0 288 L 288 288 L 288 0 L 0 0 Z M 0 288 "/>
<g clip-path="url(#clip1)" clip-rule="nonzero">
<path style=" stroke:none;fill-rule:nonzero;fill:rgb(100%,100%,100%);fill-opacity:1;" d="M 40.152344 214.652344 L 282.523438 214.652344 L 282.523438 23.960938 L 40.152344 23.960938 Z M 40.152344 214.652344 "/>
</g>
<g clip-path="url(#clip2)" clip-rule="nonzero">
<path style="fill:none;stroke-width:0.533489;stroke-linecap:butt;stroke-linejoin:round;stroke:rgb(92.156863%,92.156863%,92.156863%);stroke-opacity:1;stroke-miterlimit:10;" d="M 40.152344 174.621094 L 282.519531 174.621094 "/>
</g>
<g clip-path="url(#clip3)" clip-rule="nonzero">
<path style="fill:none;stroke-width:0.533489;stroke-linecap:butt;stroke-linejoin:round;stroke:rgb(92.156863%,92.156863%,92.156863%);stroke-opacity:1;stroke-miterlimit:10;" d="M 40.152344 111.898438 L 282.519531 111.898438 "/>
</g>
<g clip-path="url(#clip4)" clip-rule="nonzero">
<path style="fill:none;stroke-width:0.533489;stroke-linecap:butt;stroke-linejoin:round;stroke:rgb(92.156863%,92.156863%,92.156863%);stroke-opacity:1;stroke-miterlimit:10;" d="M 40.152344 49.171875 L 282.519531 49.171875 "/>
</g>
<g clip-path="url(#clip5)" clip-rule="nonzero">
<path style="fill:none;stroke-width:0.533489;stroke-linecap:butt;stroke-linejoin:round;stroke:rgb(92.156863%,92.156863%,92.156863%);stroke-opacity:1;stroke-miterlimit:10;" d="M 44.964844 214.652344 L 44.964844 23.957031 "/>
</g>
<g clip-path="url(#clip6)" clip-rule="nonzero">
<path style="fill:none;stroke-width:0.533489;stroke-linecap:butt;stroke-linejoin:round;stroke:rgb(92.156863%,92.156863%,92.156863%);stroke-opacity:1;stroke-miterlimit:10;" d="M 88.539062 214.652344 L 88.539062 23.957031 "/>
</g>
<g clip-path="url(#clip7)" clip-rule="nonzero">
<path style="fill:none;stroke-width:0.533489;stroke-linecap:butt;stroke-linejoin:round;stroke:rgb(92.156863%,92.156863%,92.156863%);stroke-opacity:1;stroke-miterlimit:10;" d="M 132.113281 214.652344 L 132.113281 23.957031 "/>
</g>
<g clip-path="url(#clip8)" clip-rule="nonzero">
<path style="fill:none;stroke-width:0.533489;stroke-linecap:butt;stroke-linejoin:round;stroke:rgb(92.156863%,92.156863%,92.156863%);stroke-opacity:1;stroke-miterlimit:10;" d="M 175.691406 214.652344 L 175.691406 23.957031 "/>
</g>
<g clip-path="url(#clip9)" clip-rule="nonzero">
<path style="fill:none;stroke-width:0.533489;stroke-linecap:butt;stroke-linejoin:round;stroke:rgb(92.156863%,92.156863%,92.156863%);stroke-opacity:1;stroke-miterlimit:10;" d="M 219.265625 214.652344 L 219.265625 23.957031 "/>
</g>
<g clip-path="url(#clip10)" clip-rule="nonzero">
<path style="fill:none;stroke-width:0.533489;stroke-linecap:butt;stroke-linejoin:round;stroke:rgb(92.156863%,92.156863%,92.156863%);stroke-opacity:1;stroke-miterlimit:10;" d="M 262.839844 214.652344 L 262.839844 23.957031 "/>
</g>
<g clip-path="url(#clip11)" clip-rule="nonzero">
<path style="fill:none;stroke-width:1.066978;stroke-linecap:butt;stroke-linejoin:round;stroke:rgb(92.156863%,92.156863%,92.156863%);stroke-opacity:1;stroke-miterlimit:10;" d="M 40.152344 205.984375 L 282.519531 205.984375 "/>
</g>
<g clip-path="url(#clip12)" clip-rule="nonzero">
<path style="fill:none;stroke-width:1.066978;stroke-linecap:butt;stroke-linejoin:round;stroke:rgb(92.156863%,92.156863%,92.156863%);stroke-opacity:1;stroke-miterlimit:10;" d="M 40.152344 143.257812 L 282.519531 143.257812 "/>
</g>
<g clip-path="url(#clip13)" clip-rule="nonzero">
<path style="fill:none;stroke-width:1.066978;stroke-linecap:butt;stroke-linejoin:round;stroke:rgb(92.156863%,92.156863%,92.156863%);stroke-opacity:1;stroke-miterlimit:10;" d="M 40.152344 80.535156 L 282.519531 80.535156 "/>
</g>
<g clip-path="url(#clip14)" clip-rule="nonzero">
<path style="fill:none;stroke-width:1.066978;stroke-linecap:butt;stroke-linejoin:round;stroke:rgb(92.156863%,92.156863%,92.156863%);stroke-opacity:1;stroke-miterlimit:10;" d="M 66.75 214.652344 L 66.75 23.957031 "/>
</g>
<g clip-path="url(#clip15)" clip-rule="nonzero">
<path style="fill:none;stroke-width:1.066978;stroke-linecap:butt;stroke-linejoin:round;stroke:rgb(92.156863%,92.156863%,92.156863%);stroke-opacity:1;stroke-miterlimit:10;" d="M 110.328125 214.652344 L 110.328125 23.957031 "/>
</g>
<g clip-path="url(#clip16)" clip-rule="nonzero">
<path style="fill:none;stroke-width:1.066978;stroke-linecap:butt;stroke-linejoin:round;stroke:rgb(92.156863%,92.156863%,92.156863%);stroke-opacity:1;stroke-miterlimit:10;" d="M 153.902344 214.652344 L 153.902344 23.957031 "/>
</g>
<g clip-path="url(#clip17)" clip-rule="nonzero">
<path style="fill:none;stroke-width:1.066978;stroke-linecap:butt;stroke-linejoin:round;stroke:rgb(92.156863%,92.156863%,92.156863%);stroke-opacity:1;stroke-miterlimit:10;" d="M 197.476562 214.652344 L 197.476562 23.957031 "/>
</g>
<g clip-path="url(#clip18)" clip-rule="nonzero">
<path style="fill:none;stroke-width:1.066978;stroke-linecap:butt;stroke-linejoin:round;stroke:rgb(92.156863%,92.156863%,92.156863%);stroke-opacity:1;stroke-miterlimit:10;" d="M 241.054688 214.652344 L 241.054688 23.957031 "/>
</g>
<path style=" stroke:none;fill-rule:nonzero;fill:rgb(0%,0%,54.509804%);fill-opacity:0.501961;" d="M 51.167969 204.835938 L 51.597656 204.8125 L 52.03125 204.785156 L 52.890625 204.730469 L 53.324219 204.703125 L 53.753906 204.675781 L 54.1875 204.644531 L 54.617188 204.617188 L 55.046875 204.585938 L 55.480469 204.558594 L 55.910156 204.527344 L 56.339844 204.5 L 56.773438 204.46875 L 57.203125 204.4375 L 57.636719 204.40625 L 58.496094 204.34375 L 58.929688 204.3125 L 59.359375 204.277344 L 59.792969 204.246094 L 60.222656 204.210938 L 60.652344 204.179688 L 61.085938 204.144531 L 61.515625 204.113281 L 61.945312 204.078125 L 62.378906 204.042969 L 62.808594 204.007812 L 63.242188 203.972656 L 63.671875 203.941406 L 64.101562 203.90625 L 64.535156 203.867188 L 64.964844 203.832031 L 65.398438 203.796875 L 66.257812 203.726562 L 66.691406 203.6875 L 67.550781 203.617188 L 67.984375 203.578125 L 68.414062 203.542969 L 68.847656 203.503906 L 69.277344 203.46875 L 69.707031 203.429688 L 70.140625 203.394531 L 70.570312 203.355469 L 71.003906 203.320312 L 71.433594 203.28125 L 71.863281 203.246094 L 72.296875 203.207031 L 72.726562 203.171875 L 73.15625 203.132812 L 73.589844 203.097656 L 74.019531 203.058594 L 74.453125 203.023438 L 74.882812 202.988281 L 75.3125 202.949219 L 75.746094 202.914062 L 76.175781 202.878906 L 76.609375 202.84375 L 77.039062 202.804688 L 77.46875 202.769531 L 77.902344 202.734375 L 78.332031 202.699219 L 78.761719 202.667969 L 79.195312 202.632812 L 79.625 202.597656 L 80.058594 202.566406 L 80.488281 202.53125 L 80.917969 202.5 L 81.351562 202.464844 L 81.78125 202.433594 L 82.214844 202.402344 L 83.074219 202.339844 L 83.507812 202.308594 L 83.9375 202.28125 L 84.367188 202.25 L 84.800781 202.222656 L 85.230469 202.195312 L 85.664062 202.167969 L 86.523438 202.113281 L 86.957031 202.089844 L 87.386719 202.0625 L 87.816406 202.039062 L 88.25 202.015625 L 88.679688 201.992188 L 89.113281 201.96875 L 89.972656 201.929688 L 90.40625 201.90625 L 90.835938 201.886719 L 91.269531 201.871094 L 91.699219 201.851562 L 92.128906 201.835938 L 92.5625 201.816406 L 93.421875 201.785156 L 93.855469 201.773438 L 94.285156 201.757812 L 94.71875 201.746094 L 95.578125 201.722656 L 96.011719 201.710938 L 96.441406 201.703125 L 96.875 201.691406 L 97.734375 201.675781 L 98.167969 201.671875 L 98.597656 201.664062 L 99.027344 201.660156 L 99.460938 201.652344 L 99.890625 201.648438 L 100.324219 201.648438 L 100.753906 201.644531 L 101.183594 201.644531 L 101.617188 201.640625 L 102.480469 201.640625 L 102.910156 201.644531 L 103.773438 201.644531 L 104.632812 201.652344 L 105.066406 201.65625 L 105.496094 201.660156 L 105.929688 201.667969 L 106.359375 201.671875 L 106.789062 201.679688 L 107.222656 201.683594 L 107.652344 201.691406 L 108.085938 201.699219 L 108.515625 201.707031 L 108.945312 201.71875 L 109.378906 201.726562 L 109.808594 201.738281 L 110.238281 201.746094 L 110.671875 201.757812 L 111.101562 201.769531 L 111.535156 201.777344 L 112.394531 201.800781 L 112.828125 201.8125 L 113.257812 201.828125 L 113.691406 201.839844 L 114.121094 201.851562 L 114.550781 201.867188 L 114.984375 201.878906 L 115.414062 201.894531 L 115.84375 201.90625 L 116.277344 201.921875 L 116.707031 201.933594 L 117.140625 201.949219 L 118 201.980469 L 118.433594 201.992188 L 118.863281 202.007812 L 119.296875 202.023438 L 120.15625 202.054688 L 120.589844 202.070312 L 121.019531 202.082031 L 121.449219 202.097656 L 121.882812 202.113281 L 122.3125 202.128906 L 122.746094 202.144531 L 123.605469 202.175781 L 124.039062 202.191406 L 124.46875 202.207031 L 124.898438 202.21875 L 125.332031 202.234375 L 125.761719 202.25 L 126.195312 202.265625 L 126.625 202.28125 L 127.054688 202.292969 L 127.488281 202.308594 L 127.917969 202.324219 L 128.351562 202.339844 L 128.78125 202.351562 L 129.210938 202.367188 L 129.644531 202.382812 L 130.074219 202.394531 L 130.503906 202.410156 L 130.9375 202.425781 L 131.367188 202.4375 L 131.800781 202.453125 L 132.230469 202.464844 L 132.660156 202.480469 L 133.09375 202.492188 L 133.523438 202.507812 L 133.957031 202.519531 L 134.386719 202.53125 L 134.816406 202.546875 L 135.25 202.558594 L 135.679688 202.574219 L 136.109375 202.585938 L 136.542969 202.597656 L 136.972656 202.613281 L 137.40625 202.625 L 137.835938 202.636719 L 138.265625 202.652344 L 138.699219 202.664062 L 139.128906 202.675781 L 139.5625 202.691406 L 140.421875 202.714844 L 140.855469 202.730469 L 141.714844 202.753906 L 142.148438 202.769531 L 142.578125 202.78125 L 143.011719 202.792969 L 143.441406 202.808594 L 143.871094 202.820312 L 144.304688 202.835938 L 144.734375 202.847656 L 145.167969 202.859375 L 145.597656 202.875 L 146.027344 202.886719 L 146.460938 202.902344 L 146.890625 202.914062 L 147.320312 202.929688 L 147.753906 202.945312 L 148.183594 202.957031 L 148.617188 202.972656 L 149.046875 202.988281 L 149.476562 203 L 149.910156 203.015625 L 150.339844 203.03125 L 150.773438 203.046875 L 151.203125 203.058594 L 151.632812 203.074219 L 152.066406 203.089844 L 152.925781 203.121094 L 153.359375 203.136719 L 153.789062 203.152344 L 154.222656 203.167969 L 154.652344 203.183594 L 155.082031 203.203125 L 155.515625 203.21875 L 155.945312 203.234375 L 156.378906 203.25 L 156.808594 203.265625 L 157.238281 203.285156 L 157.671875 203.300781 L 158.53125 203.332031 L 158.964844 203.351562 L 159.394531 203.367188 L 159.828125 203.386719 L 160.6875 203.417969 L 161.121094 203.4375 L 161.550781 203.453125 L 161.980469 203.472656 L 162.414062 203.488281 L 162.84375 203.503906 L 163.277344 203.523438 L 163.707031 203.539062 L 164.136719 203.558594 L 164.570312 203.574219 L 165 203.589844 L 165.433594 203.609375 L 165.863281 203.625 L 166.292969 203.644531 L 166.726562 203.660156 L 167.585938 203.691406 L 168.019531 203.710938 L 168.449219 203.726562 L 168.882812 203.742188 L 169.742188 203.773438 L 170.175781 203.792969 L 170.605469 203.808594 L 171.039062 203.824219 L 171.46875 203.839844 L 171.898438 203.851562 L 172.332031 203.867188 L 173.191406 203.898438 L 173.625 203.914062 L 174.054688 203.925781 L 174.488281 203.941406 L 174.917969 203.957031 L 175.347656 203.96875 L 175.78125 203.980469 L 176.210938 203.996094 L 176.644531 204.007812 L 177.074219 204.019531 L 177.503906 204.035156 L 177.9375 204.046875 L 178.796875 204.070312 L 179.230469 204.082031 L 179.660156 204.089844 L 180.09375 204.101562 L 180.953125 204.125 L 181.386719 204.132812 L 181.816406 204.144531 L 182.25 204.152344 L 182.679688 204.164062 L 183.109375 204.171875 L 183.542969 204.179688 L 184.402344 204.195312 L 184.835938 204.203125 L 185.265625 204.210938 L 185.699219 204.21875 L 186.558594 204.234375 L 186.992188 204.242188 L 187.421875 204.246094 L 187.855469 204.253906 L 188.285156 204.257812 L 188.714844 204.265625 L 189.148438 204.269531 L 189.578125 204.277344 L 190.007812 204.28125 L 190.441406 204.285156 L 190.871094 204.289062 L 191.304688 204.292969 L 192.164062 204.300781 L 192.597656 204.304688 L 193.027344 204.308594 L 193.460938 204.3125 L 194.320312 204.320312 L 194.753906 204.320312 L 195.613281 204.328125 L 196.046875 204.328125 L 196.476562 204.332031 L 196.910156 204.332031 L 197.339844 204.335938 L 197.769531 204.335938 L 198.203125 204.339844 L 198.632812 204.339844 L 199.0625 204.34375 L 199.925781 204.34375 L 200.359375 204.347656 L 201.652344 204.347656 L 202.082031 204.351562 L 203.808594 204.351562 L 204.238281 204.355469 L 205.964844 204.355469 L 206.394531 204.359375 L 207.6875 204.359375 L 208.121094 204.363281 L 209.414062 204.363281 L 209.84375 204.367188 L 210.707031 204.367188 L 211.136719 204.371094 L 212 204.371094 L 212.429688 204.375 L 212.863281 204.375 L 213.292969 204.378906 L 213.726562 204.378906 L 214.15625 204.382812 L 214.585938 204.382812 L 215.019531 204.386719 L 215.449219 204.390625 L 215.878906 204.390625 L 216.3125 204.394531 L 216.742188 204.398438 L 217.175781 204.402344 L 217.605469 204.40625 L 218.035156 204.40625 L 218.46875 204.410156 L 218.898438 204.414062 L 219.332031 204.417969 L 219.761719 204.421875 L 220.191406 204.429688 L 220.625 204.433594 L 221.484375 204.441406 L 221.917969 204.445312 L 222.347656 204.453125 L 222.78125 204.457031 L 223.210938 204.464844 L 223.640625 204.46875 L 224.074219 204.476562 L 224.503906 204.480469 L 224.9375 204.488281 L 225.367188 204.492188 L 225.796875 204.5 L 226.230469 204.507812 L 227.089844 204.523438 L 227.523438 204.53125 L 227.953125 204.535156 L 228.386719 204.542969 L 228.816406 204.550781 L 229.246094 204.5625 L 229.679688 204.570312 L 230.109375 204.578125 L 230.542969 204.585938 L 230.972656 204.59375 L 231.402344 204.605469 L 231.835938 204.613281 L 232.265625 204.621094 L 232.695312 204.632812 L 233.128906 204.640625 L 233.558594 204.648438 L 233.992188 204.660156 L 234.421875 204.667969 L 234.851562 204.679688 L 235.285156 204.691406 L 235.714844 204.699219 L 236.144531 204.710938 L 236.578125 204.71875 L 237.007812 204.730469 L 237.441406 204.742188 L 237.871094 204.75 L 238.300781 204.761719 L 238.734375 204.773438 L 239.164062 204.785156 L 239.597656 204.792969 L 240.457031 204.816406 L 240.890625 204.828125 L 241.320312 204.839844 L 241.75 204.847656 L 242.183594 204.859375 L 242.613281 204.871094 L 243.046875 204.882812 L 243.90625 204.90625 L 244.339844 204.917969 L 244.769531 204.925781 L 245.203125 204.9375 L 246.0625 204.960938 L 246.496094 204.972656 L 246.925781 204.984375 L 247.355469 204.992188 L 247.789062 205.003906 L 248.21875 205.015625 L 248.652344 205.027344 L 249.082031 205.039062 L 249.511719 205.046875 L 249.945312 205.058594 L 250.375 205.070312 L 250.808594 205.082031 L 251.238281 205.09375 L 251.667969 205.101562 L 252.101562 205.113281 L 252.53125 205.125 L 252.960938 205.132812 L 253.394531 205.144531 L 253.824219 205.15625 L 254.257812 205.164062 L 255.117188 205.1875 L 255.550781 205.195312 L 255.980469 205.207031 L 256.414062 205.21875 L 256.84375 205.226562 L 257.273438 205.238281 L 257.707031 205.246094 L 258.136719 205.257812 L 258.566406 205.265625 L 259 205.277344 L 259.429688 205.285156 L 259.863281 205.296875 L 260.292969 205.304688 L 260.722656 205.316406 L 261.15625 205.324219 L 261.585938 205.335938 L 262.019531 205.34375 L 262.449219 205.351562 L 262.878906 205.363281 L 263.3125 205.371094 L 263.742188 205.382812 L 264.171875 205.390625 L 264.605469 205.398438 L 265.035156 205.410156 L 265.46875 205.417969 L 266.328125 205.433594 L 266.761719 205.445312 L 267.191406 205.453125 L 267.625 205.460938 L 268.054688 205.46875 L 268.484375 205.480469 L 268.917969 205.488281 L 269.777344 205.503906 L 270.210938 205.511719 L 270.640625 205.523438 L 271.074219 205.53125 L 271.503906 205.539062 L 271.503906 205.984375 L 51.167969 205.984375 Z M 51.167969 204.835938 "/>
<path style="fill:none;stroke-width:1.066978;stroke-linecap:butt;stroke-linejoin:round;stroke:rgb(74.509804%,74.509804%,74.509804%);stroke-opacity:1;stroke-miterlimit:10;" d="M 51.167969 204.835938 L 51.597656 204.8125 L 52.03125 204.785156 L 52.890625 204.730469 L 53.324219 204.703125 L 53.753906 204.675781 L 54.1875 204.644531 L 54.617188 204.617188 L 55.046875 204.585938 L 55.480469 204.558594 L 55.910156 204.527344 L 56.339844 204.5 L 56.773438 204.46875 L 57.203125 204.4375 L 57.636719 204.40625 L 58.496094 204.34375 L 58.929688 204.3125 L 59.359375 204.277344 L 59.792969 204.246094 L 60.222656 204.210938 L 60.652344 204.179688 L 61.085938 204.144531 L 61.515625 204.113281 L 61.945312 204.078125 L 62.378906 204.042969 L 62.808594 204.007812 L 63.242188 203.972656 L 63.671875 203.941406 L 64.101562 203.90625 L 64.535156 203.867188 L 64.964844 203.832031 L 65.398438 203.796875 L 66.257812 203.726562 L 66.691406 203.6875 L 67.550781 203.617188 L 67.984375 203.578125 L 68.414062 203.542969 L 68.847656 203.503906 L 69.277344 203.46875 L 69.707031 203.429688 L 70.140625 203.394531 L 70.570312 203.355469 L 71.003906 203.320312 L 71.433594 203.28125 L 71.863281 203.246094 L 72.296875 203.207031 L 72.726562 203.171875 L 73.15625 203.132812 L 73.589844 203.097656 L 74.019531 203.058594 L 74.453125 203.023438 L 74.882812 202.988281 L 75.3125 202.949219 L 75.746094 202.914062 L 76.175781 202.878906 L 76.609375 202.84375 L 77.039062 202.804688 L 77.46875 202.769531 L 77.902344 202.734375 L 78.332031 202.699219 L 78.761719 202.667969 L 79.195312 202.632812 L 79.625 202.597656 L 80.058594 202.566406 L 80.488281 202.53125 L 80.917969 202.5 L 81.351562 202.464844 L 81.78125 202.433594 L 82.214844 202.402344 L 83.074219 202.339844 L 83.507812 202.308594 L 83.9375 202.28125 L 84.367188 202.25 L 84.800781 202.222656 L 85.230469 202.195312 L 85.664062 202.167969 L 86.523438 202.113281 L 86.957031 202.089844 L 87.386719 202.0625 L 87.816406 202.039062 L 88.25 202.015625 L 88.679688 201.992188 L 89.113281 201.96875 L 89.972656 201.929688 L 90.40625 201.90625 L 90.835938 201.886719 L 91.269531 201.871094 L 91.699219 201.851562 L 92.128906 201.835938 L 92.5625 201.816406 L 93.421875 201.785156 L 93.855469 201.773438 L 94.285156 201.757812 L 94.71875 201.746094 L 95.578125 201.722656 L 96.011719 201.710938 L 96.441406 201.703125 L 96.875 201.691406 L 97.734375 201.675781 L 98.167969 201.671875 L 98.597656 201.664062 L 99.027344 201.660156 L 99.460938 201.652344 L 99.890625 201.648438 L 100.324219 201.648438 L 100.753906 201.644531 L 101.183594 201.644531 L 101.617188 201.640625 L 102.480469 201.640625 L 102.910156 201.644531 L 103.773438 201.644531 L 104.632812 201.652344 L 105.066406 201.65625 L 105.496094 201.660156 L 105.929688 201.667969 L 106.359375 201.671875 L 106.789062 201.679688 L 107.222656 201.683594 L 107.652344 201.691406 L 108.085938 201.699219 L 108.515625 201.707031 L 108.945312 201.71875 L 109.378906 201.726562 L 109.808594 201.738281 L 110.238281 201.746094 L 110.671875 201.757812 L 111.101562 201.769531 L 111.535156 201.777344 L 112.394531 201.800781 L 112.828125 201.8125 L 113.257812 201.828125 L 113.691406 201.839844 L 114.121094 201.851562 L 114.550781 201.867188 L 114.984375 201.878906 L 115.414062 201.894531 L 115.84375 201.90625 L 116.277344 201.921875 L 116.707031 201.933594 L 117.140625 201.949219 L 118 201.980469 L 118.433594 201.992188 L 118.863281 202.007812 L 119.296875 202.023438 L 120.15625 202.054688 L 120.589844 202.070312 L 121.019531 202.082031 L 121.449219 202.097656 L 121.882812 202.113281 L 122.3125 202.128906 L 122.746094 202.144531 L 123.605469 202.175781 L 124.039062 202.191406 L 124.46875 202.207031 L 124.898438 202.21875 L 125.332031 202.234375 L 125.761719 202.25 L 126.195312 202.265625 L 126.625 202.28125 L 127.054688 202.292969 L 127.488281 202.308594 L 127.917969 202.324219 L 128.351562 202.339844 L 128.78125 202.351562 L 129.210938 202.367188 L 129.644531 202.382812 L 130.074219 202.394531 L 130.503906 202.410156 L 130.9375 202.425781 L 131.367188 202.4375 L 131.800781 202.453125 L 132.230469 202.464844 L 132.660156 202.480469 L 133.09375 202.492188 L 133.523438 202.507812 L 133.957031 202.519531 L 134.386719 202.53125 L 134.816406 202.546875 L 135.25 202.558594 L 135.679688 202.574219 L 136.109375 202.585938 L 136.542969 202.597656 L 136.972656 202.613281 L 137.40625 202.625 L 137.835938 202.636719 L 138.265625 202.652344 L 138.699219 202.664062 L 139.128906 202.675781 L 139.5625 202.691406 L 140.421875 202.714844 L 140.855469 202.730469 L 141.714844 202.753906 L 142.148438 202.769531 L 142.578125 202.78125 L 143.011719 202.792969 L 143.441406 202.808594 L 143.871094 202.820312 L 144.304688 202.835938 L 144.734375 202.847656 L 145.167969 202.859375 L 145.597656 202.875 L 146.027344 202.886719 L 146.460938 202.902344 L 146.890625 202.914062 L 147.320312 202.929688 L 147.753906 202.945312 L 148.183594 202.957031 L 148.617188 202.972656 L 149.046875 202.988281 L 149.476562 203 L 149.910156 203.015625 L 150.339844 203.03125 L 150.773438 203.046875 L 151.203125 203.058594 L 151.632812 203.074219 L 152.066406 203.089844 L 152.925781 203.121094 L 153.359375 203.136719 L 153.789062 203.152344 L 154.222656 203.167969 L 154.652344 203.183594 L 155.082031 203.203125 L 155.515625 203.21875 L 155.945312 203.234375 L 156.378906 203.25 L 156.808594 203.265625 L 157.238281 203.285156 L 157.671875 203.300781 L 158.53125 203.332031 L 158.964844 203.351562 L 159.394531 203.367188 L 159.828125 203.386719 L 160.6875 203.417969 L 161.121094 203.4375 L 161.550781 203.453125 L 161.980469 203.472656 L 162.414062 203.488281 L 162.84375 203.503906 L 163.277344 203.523438 L 163.707031 203.539062 L 164.136719 203.558594 L 164.570312 203.574219 L 165 203.589844 L 165.433594 203.609375 L 165.863281 203.625 L 166.292969 203.644531 L 166.726562 203.660156 L 167.585938 203.691406 L 168.019531 203.710938 L 168.449219 203.726562 L 168.882812 203.742188 L 169.742188 203.773438 L 170.175781 203.792969 L 170.605469 203.808594 L 171.039062 203.824219 L 171.46875 203.839844 L 171.898438 203.851562 L 172.332031 203.867188 L 173.191406 203.898438 L 173.625 203.914062 L 174.054688 203.925781 L 174.488281 203.941406 L 174.917969 203.957031 L 175.347656 203.96875 L 175.78125 203.980469 L 176.210938 203.996094 L 176.644531 204.007812 L 177.074219 204.019531 L 177.503906 204.035156 L 177.9375 204.046875 L 178.796875 204.070312 L 179.230469 204.082031 L 179.660156 204.089844 L 180.09375 204.101562 L 180.953125 204.125 L 181.386719 204.132812 L 181.816406 204.144531 L 182.25 204.152344 L 182.679688 204.164062 L 183.109375 204.171875 L 183.542969 204.179688 L 184.402344 204.195312 L 184.835938 204.203125 L 185.265625 204.210938 L 185.699219 204.21875 L 186.558594 204.234375 L 186.992188 204.242188 L 187.421875 204.246094 L 187.855469 204.253906 L 188.285156 204.257812 L 188.714844 204.265625 L 189.148438 204.269531 L 189.578125 204.277344 L 190.007812 204.28125 L 190.441406 204.285156 L 190.871094 204.289062 L 191.304688 204.292969 L 192.164062 204.300781 L 192.597656 204.304688 L 193.027344 204.308594 L 193.460938 204.3125 L 194.320312 204.320312 L 194.753906 204.320312 L 195.613281 204.328125 L 196.046875 204.328125 L 196.476562 204.332031 L 196.910156 204.332031 L 197.339844 204.335938 L 197.769531 204.335938 L 198.203125 204.339844 L 198.632812 204.339844 L 199.0625 204.34375 L 199.925781 204.34375 L 200.359375 204.347656 L 201.652344 204.347656 L 202.082031 204.351562 L 203.808594 204.351562 L 204.238281 204.355469 L 205.964844 204.355469 L 206.394531 204.359375 L 207.6875 204.359375 L 208.121094 204.363281 L 209.414062 204.363281 L 209.84375 204.367188 L 210.707031 204.367188 L 211.136719 204.371094 L 212 204.371094 L 212.429688 204.375 L 212.863281 204.375 L 213.292969 204.378906 L 213.726562 204.378906 L 214.15625 204.382812 L 214.585938 204.382812 L 215.019531 204.386719 L 215.449219 204.390625 L 215.878906 204.390625 L 216.3125 204.394531 L 216.742188 204.398438 L 217.175781 204.402344 L 217.605469 204.40625 L 218.035156 204.40625 L 218.46875 204.410156 L 218.898438 204.414062 L 219.332031 204.417969 L 219.761719 204.421875 L 220.191406 204.429688 L 220.625 204.433594 L 221.484375 204.441406 L 221.917969 204.445312 L 222.347656 204.453125 L 222.78125 204.457031 L 223.210938 204.464844 L 223.640625 204.46875 L 224.074219 204.476562 L 224.503906 204.480469 L 224.9375 204.488281 L 225.367188 204.492188 L 225.796875 204.5 L 226.230469 204.507812 L 227.089844 204.523438 L 227.523438 204.53125 L 227.953125 204.535156 L 228.386719 204.542969 L 228.816406 204.550781 L 229.246094 204.5625 L 229.679688 204.570312 L 230.109375 204.578125 L 230.542969 204.585938 L 230.972656 204.59375 L 231.402344 204.605469 L 231.835938 204.613281 L 232.265625 204.621094 L 232.695312 204.632812 L 233.128906 204.640625 L 233.558594 204.648438 L 233.992188 204.660156 L 234.421875 204.667969 L 234.851562 204.679688 L 235.285156 204.691406 L 235.714844 204.699219 L 236.144531 204.710938 L 236.578125 204.71875 L 237.007812 204.730469 L 237.441406 204.742188 L 237.871094 204.75 L 238.300781 204.761719 L 238.734375 204.773438 L 239.164062 204.785156 L 239.597656 204.792969 L 240.457031 204.816406 L 240.890625 204.828125 L 241.320312 204.839844 L 241.75 204.847656 L 242.183594 204.859375 L 242.613281 204.871094 L 243.046875 204.882812 L 243.90625 204.90625 L 244.339844 204.917969 L 244.769531 204.925781 L 245.203125 204.9375 L 246.0625 204.960938 L 246.496094 204.972656 L 246.925781 204.984375 L 247.355469 204.992188 L 247.789062 205.003906 L 248.21875 205.015625 L 248.652344 205.027344 L 249.082031 205.039062 L 249.511719 205.046875 L 249.945312 205.058594 L 250.375 205.070312 L 250.808594 205.082031 L 251.238281 205.09375 L 251.667969 205.101562 L 252.101562 205.113281 L 252.53125 205.125 L 252.960938 205.132812 L 253.394531 205.144531 L 253.824219 205.15625 L 254.257812 205.164062 L 255.117188 205.1875 L 255.550781 205.195312 L 255.980469 205.207031 L 256.414062 205.21875 L 256.84375 205.226562 L 257.273438 205.238281 L 257.707031 205.246094 L 258.136719 205.257812 L 258.566406 205.265625 L 259 205.277344 L 259.429688 205.285156 L 259.863281 205.296875 L 260.292969 205.304688 L 260.722656 205.316406 L 261.15625 205.324219 L 261.585938 205.335938 L 262.019531 205.34375 L 262.449219 205.351562 L 262.878906 205.363281 L 263.3125 205.371094 L 263.742188 205.382812 L 264.171875 205.390625 L 264.605469 205.398438 L 265.035156 205.410156 L 265.46875 205.417969 L 266.328125 205.433594 L 266.761719 205.445312 L 267.191406 205.453125 L 267.625 205.460938 L 268.054688 205.46875 L 268.484375 205.480469 L 268.917969 205.488281 L 269.777344 205.503906 L 270.210938 205.511719 L 270.640625 205.523438 L 271.074219 205.53125 L 271.503906 205.539062 "/>
<path style=" stroke:none;fill-rule:nonzero;fill:rgb(54.509804%,0%,0%);fill-opacity:0.501961;" d="M 51.167969 205.984375 L 225.367188 205.984375 L 225.796875 205.980469 L 226.230469 205.964844 L 226.660156 205.8125 L 227.089844 205.121094 L 227.523438 203.257812 L 227.953125 200.566406 L 228.386719 199.125 L 228.816406 200.171875 L 229.246094 201.792969 L 229.679688 201.535156 L 230.109375 199.300781 L 230.542969 196.417969 L 230.972656 193.703125 L 231.402344 191.210938 L 231.835938 188.839844 L 232.265625 185.929688 L 232.695312 181.011719 L 233.128906 173.4375 L 233.558594 164.449219 L 233.992188 156.371094 L 234.421875 150 L 234.851562 141.144531 L 235.285156 122.832031 L 235.714844 92.617188 L 236.144531 56.835938 L 236.578125 32.625 L 237.007812 41.871094 L 237.441406 88.347656 L 237.871094 145.992188 L 238.300781 185.332031 L 238.734375 201.378906 L 239.164062 205.335938 L 239.597656 205.925781 L 240.027344 205.980469 L 240.457031 205.984375 L 271.503906 205.984375 Z M 51.167969 205.984375 "/>
<path style="fill:none;stroke-width:1.066978;stroke-linecap:butt;stroke-linejoin:round;stroke:rgb(74.509804%,74.509804%,74.509804%);stroke-opacity:1;stroke-miterlimit:10;" d="M 51.167969 205.984375 L 225.367188 205.984375 L 225.796875 205.980469 L 226.230469 205.964844 L 226.660156 205.8125 L 227.089844 205.121094 L 227.523438 203.257812 L 227.953125 200.566406 L 228.386719 199.125 L 228.816406 200.171875 L 229.246094 201.792969 L 229.679688 201.535156 L 230.109375 199.300781 L 230.542969 196.417969 L 230.972656 193.703125 L 231.402344 191.210938 L 231.835938 188.839844 L 232.265625 185.929688 L 232.695312 181.011719 L 233.128906 173.4375 L 233.558594 164.449219 L 233.992188 156.371094 L 234.421875 150 L 234.851562 141.144531 L 235.285156 122.832031 L 235.714844 92.617188 L 236.144531 56.835938 L 236.578125 32.625 L 237.007812 41.871094 L 237.441406 88.347656 L 237.871094 145.992188 L 238.300781 185.332031 L 238.734375 201.378906 L 239.164062 205.335938 L 239.597656 205.925781 L 240.027344 205.980469 L 240.457031 205.984375 L 271.503906 205.984375 "/>
<g clip-path="url(#clip19)" clip-rule="nonzero">
<path style="fill:none;stroke-width:1.066978;stroke-linecap:butt;stroke-linejoin:round;stroke:rgb(54.509804%,0%,0%);stroke-opacity:1;stroke-dasharray:4.267913,4.267913;stroke-miterlimit:10;" d="M 235.53125 214.652344 L 235.53125 23.957031 "/>
</g>
<g clip-path="url(#clip20)" clip-rule="nonzero">
<path style="fill:none;stroke-width:1.066978;stroke-linecap:butt;stroke-linejoin:round;stroke:rgb(0%,0%,54.509804%);stroke-opacity:1;stroke-dasharray:4.267913,4.267913;stroke-miterlimit:10;" d="M 137.550781 214.652344 L 137.550781 23.957031 "/>
</g>
<g clip-path="url(#clip21)" clip-rule="nonzero">
<path style="fill:none;stroke-width:1.066978;stroke-linecap:round;stroke-linejoin:round;stroke:rgb(20%,20%,20%);stroke-opacity:1;stroke-miterlimit:10;" d="M 40.152344 214.652344 L 282.523438 214.652344 L 282.523438 23.960938 L 40.152344 23.960938 Z M 40.152344 214.652344 "/>
</g>
<g style="fill:rgb(30.196078%,30.196078%,30.196078%);fill-opacity:1;">
  <use xlink:href="#glyph0-1" x="30.21875" y="208.899414"/>
</g>
<g style="fill:rgb(30.196078%,30.196078%,30.196078%);fill-opacity:1;">
  <use xlink:href="#glyph0-2" x="20.21875" y="146.172852"/>
  <use xlink:href="#glyph0-1" x="25.21875" y="146.172852"/>
  <use xlink:href="#glyph0-1" x="30.21875" y="146.172852"/>
</g>
<g style="fill:rgb(30.196078%,30.196078%,30.196078%);fill-opacity:1;">
  <use xlink:href="#glyph0-3" x="20.21875" y="83.450195"/>
  <use xlink:href="#glyph0-1" x="25.21875" y="83.450195"/>
  <use xlink:href="#glyph0-1" x="30.21875" y="83.450195"/>
</g>
<path style="fill:none;stroke-width:1.066978;stroke-linecap:butt;stroke-linejoin:round;stroke:rgb(20%,20%,20%);stroke-opacity:1;stroke-miterlimit:10;" d="M 37.410156 205.984375 L 40.152344 205.984375 "/>
<path style="fill:none;stroke-width:1.066978;stroke-linecap:butt;stroke-linejoin:round;stroke:rgb(20%,20%,20%);stroke-opacity:1;stroke-miterlimit:10;" d="M 37.410156 143.257812 L 40.152344 143.257812 "/>
<path style="fill:none;stroke-width:1.066978;stroke-linecap:butt;stroke-linejoin:round;stroke:rgb(20%,20%,20%);stroke-opacity:1;stroke-miterlimit:10;" d="M 37.410156 80.535156 L 40.152344 80.535156 "/>
<path style="fill:none;stroke-width:1.066978;stroke-linecap:butt;stroke-linejoin:round;stroke:rgb(20%,20%,20%);stroke-opacity:1;stroke-miterlimit:10;" d="M 66.75 217.390625 L 66.75 214.652344 "/>
<path style="fill:none;stroke-width:1.066978;stroke-linecap:butt;stroke-linejoin:round;stroke:rgb(20%,20%,20%);stroke-opacity:1;stroke-miterlimit:10;" d="M 110.328125 217.390625 L 110.328125 214.652344 "/>
<path style="fill:none;stroke-width:1.066978;stroke-linecap:butt;stroke-linejoin:round;stroke:rgb(20%,20%,20%);stroke-opacity:1;stroke-miterlimit:10;" d="M 153.902344 217.390625 L 153.902344 214.652344 "/>
<path style="fill:none;stroke-width:1.066978;stroke-linecap:butt;stroke-linejoin:round;stroke:rgb(20%,20%,20%);stroke-opacity:1;stroke-miterlimit:10;" d="M 197.476562 217.390625 L 197.476562 214.652344 "/>
<path style="fill:none;stroke-width:1.066978;stroke-linecap:butt;stroke-linejoin:round;stroke:rgb(20%,20%,20%);stroke-opacity:1;stroke-miterlimit:10;" d="M 241.054688 217.390625 L 241.054688 214.652344 "/>
<g style="fill:rgb(30.196078%,30.196078%,30.196078%);fill-opacity:1;">
  <use xlink:href="#glyph0-1" x="58.25" y="225.99707"/>
  <use xlink:href="#glyph0-4" x="63.25" y="225.99707"/>
  <use xlink:href="#glyph0-3" x="65.25" y="225.99707"/>
  <use xlink:href="#glyph0-1" x="70.25" y="225.99707"/>
</g>
<g style="fill:rgb(30.196078%,30.196078%,30.196078%);fill-opacity:1;">
  <use xlink:href="#glyph0-1" x="101.828125" y="225.99707"/>
  <use xlink:href="#glyph0-4" x="106.828125" y="225.99707"/>
  <use xlink:href="#glyph0-3" x="108.828125" y="225.99707"/>
  <use xlink:href="#glyph0-5" x="113.828125" y="225.99707"/>
</g>
<g style="fill:rgb(30.196078%,30.196078%,30.196078%);fill-opacity:1;">
  <use xlink:href="#glyph0-1" x="145.402344" y="225.99707"/>
  <use xlink:href="#glyph0-4" x="150.402344" y="225.99707"/>
  <use xlink:href="#glyph0-6" x="152.402344" y="225.99707"/>
  <use xlink:href="#glyph0-1" x="157.402344" y="225.99707"/>
</g>
<g style="fill:rgb(30.196078%,30.196078%,30.196078%);fill-opacity:1;">
  <use xlink:href="#glyph0-1" x="188.976562" y="225.99707"/>
  <use xlink:href="#glyph0-4" x="193.976562" y="225.99707"/>
  <use xlink:href="#glyph0-6" x="195.976562" y="225.99707"/>
  <use xlink:href="#glyph0-5" x="200.976562" y="225.99707"/>
</g>
<g style="fill:rgb(30.196078%,30.196078%,30.196078%);fill-opacity:1;">
  <use xlink:href="#glyph0-1" x="232.554688" y="225.99707"/>
  <use xlink:href="#glyph0-4" x="237.554688" y="225.99707"/>
  <use xlink:href="#glyph0-7" x="239.554688" y="225.99707"/>
  <use xlink:href="#glyph0-1" x="244.554688" y="225.99707"/>
</g>
<g style="fill:rgb(0%,0%,0%);fill-opacity:1;">
  <use xlink:href="#glyph1-1" x="131.335938" y="239.342773"/>
  <use xlink:href="#glyph1-2" x="137.335938" y="239.342773"/>
  <use xlink:href="#glyph1-3" x="141.335938" y="239.342773"/>
  <use xlink:href="#glyph1-4" x="150.335938" y="239.342773"/>
  <use xlink:href="#glyph1-5" x="156.335938" y="239.342773"/>
  <use xlink:href="#glyph1-6" x="161.335938" y="239.342773"/>
  <use xlink:href="#glyph1-7" x="164.335938" y="239.342773"/>
  <use xlink:href="#glyph1-8" x="169.335938" y="239.342773"/>
  <use xlink:href="#glyph1-9" x="175.335938" y="239.342773"/>
  <use xlink:href="#glyph1-10" x="181.335938" y="239.342773"/>
  <use xlink:href="#glyph1-4" x="185.335938" y="239.342773"/>
</g>
<g style="fill:rgb(0%,0%,0%);fill-opacity:1;">
  <use xlink:href="#glyph2-1" x="13.499023" y="135.804688"/>
  <use xlink:href="#glyph2-2" x="13.499023" y="129.804688"/>
  <use xlink:href="#glyph2-3" x="13.499023" y="123.804688"/>
  <use xlink:href="#glyph2-4" x="13.499023" y="117.804688"/>
  <use xlink:href="#glyph2-5" x="13.499023" y="112.804688"/>
  <use xlink:href="#glyph2-6" x="13.499023" y="110.804688"/>
  <use xlink:href="#glyph2-7" x="13.499023" y="107.804688"/>
</g>
<path style=" stroke:none;fill-rule:nonzero;fill:rgb(100%,100%,100%);fill-opacity:1;" d="M 87.617188 282.519531 L 235.054688 282.519531 L 235.054688 254.28125 L 87.617188 254.28125 Z M 87.617188 282.519531 "/>
<g style="fill:rgb(0%,0%,0%);fill-opacity:1;">
  <use xlink:href="#glyph1-11" x="93.097656" y="271.920898"/>
  <use xlink:href="#glyph1-10" x="99.097656" y="271.920898"/>
  <use xlink:href="#glyph1-9" x="103.097656" y="271.920898"/>
  <use xlink:href="#glyph1-12" x="109.097656" y="271.920898"/>
  <use xlink:href="#glyph1-13" x="115.097656" y="271.920898"/>
</g>
<path style=" stroke:none;fill-rule:nonzero;fill:rgb(100%,100%,100%);fill-opacity:1;" d="M 126.574219 277.042969 L 143.855469 277.042969 L 143.855469 259.761719 L 126.574219 259.761719 Z M 126.574219 277.042969 "/>
<path style="fill-rule:nonzero;fill:rgb(0%,0%,54.509804%);fill-opacity:0.501961;stroke-width:1.066978;stroke-linecap:butt;stroke-linejoin:miter;stroke:rgb(74.509804%,74.509804%,74.509804%);stroke-opacity:1;stroke-miterlimit:10;" d="M 127.285156 276.332031 L 143.148438 276.332031 L 143.148438 260.46875 L 127.285156 260.46875 Z M 127.285156 276.332031 "/>
<path style=" stroke:none;fill-rule:nonzero;fill:rgb(100%,100%,100%);fill-opacity:1;" d="M 191.816406 277.042969 L 209.097656 277.042969 L 209.097656 259.761719 L 191.816406 259.761719 Z M 191.816406 277.042969 "/>
<path style="fill-rule:nonzero;fill:rgb(54.509804%,0%,0%);fill-opacity:0.501961;stroke-width:1.066978;stroke-linecap:butt;stroke-linejoin:miter;stroke:rgb(74.509804%,74.509804%,74.509804%);stroke-opacity:1;stroke-miterlimit:10;" d="M 192.523438 276.332031 L 208.386719 276.332031 L 208.386719 260.46875 L 192.523438 260.46875 Z M 192.523438 276.332031 "/>
<g style="fill:rgb(0%,0%,0%);fill-opacity:1;">
  <use xlink:href="#glyph0-8" x="149.335938" y="271.317383"/>
  <use xlink:href="#glyph0-9" x="154.335938" y="271.317383"/>
  <use xlink:href="#glyph0-10" x="159.335938" y="271.317383"/>
  <use xlink:href="#glyph0-11" x="162.335938" y="271.317383"/>
  <use xlink:href="#glyph0-12" x="169.335938" y="271.317383"/>
  <use xlink:href="#glyph0-13" x="174.335938" y="271.317383"/>
  <use xlink:href="#glyph0-9" x="176.335938" y="271.317383"/>
  <use xlink:href="#glyph0-14" x="181.335938" y="271.317383"/>
</g>
<g style="fill:rgb(0%,0%,0%);fill-opacity:1;">
  <use xlink:href="#glyph0-10" x="214.574219" y="271.317383"/>
  <use xlink:href="#glyph0-9" x="217.574219" y="271.317383"/>
  <use xlink:href="#glyph0-15" x="222.574219" y="271.317383"/>
  <use xlink:href="#glyph0-16" x="227.574219" y="271.317383"/>
</g>
<g style="fill:rgb(0%,0%,0%);fill-opacity:1;">
  <use xlink:href="#glyph3-1" x="40.152344" y="15.102539"/>
  <use xlink:href="#glyph3-2" x="50.152344" y="15.102539"/>
  <use xlink:href="#glyph3-3" x="53.152344" y="15.102539"/>
  <use xlink:href="#glyph3-4" x="60.152344" y="15.102539"/>
  <use xlink:href="#glyph3-5" x="67.152344" y="15.102539"/>
  <use xlink:href="#glyph3-4" x="71.152344" y="15.102539"/>
  <use xlink:href="#glyph3-6" x="78.152344" y="15.102539"/>
  <use xlink:href="#glyph3-7" x="85.152344" y="15.102539"/>
  <use xlink:href="#glyph3-4" x="92.152344" y="15.102539"/>
  <use xlink:href="#glyph3-8" x="99.152344" y="15.102539"/>
  <use xlink:href="#glyph3-9" x="103.152344" y="15.102539"/>
  <use xlink:href="#glyph3-10" x="107.152344" y="15.102539"/>
  <use xlink:href="#glyph3-11" x="114.152344" y="15.102539"/>
  <use xlink:href="#glyph3-12" x="118.152344" y="15.102539"/>
  <use xlink:href="#glyph3-12" x="125.152344" y="15.102539"/>
  <use xlink:href="#glyph3-13" x="132.152344" y="15.102539"/>
  <use xlink:href="#glyph3-14" x="139.152344" y="15.102539"/>
  <use xlink:href="#glyph3-9" x="143.152344" y="15.102539"/>
  <use xlink:href="#glyph3-15" x="147.152344" y="15.102539"/>
  <use xlink:href="#glyph3-16" x="150.152344" y="15.102539"/>
  <use xlink:href="#glyph3-15" x="154.152344" y="15.102539"/>
  <use xlink:href="#glyph3-4" x="157.152344" y="15.102539"/>
  <use xlink:href="#glyph3-17" x="164.152344" y="15.102539"/>
  <use xlink:href="#glyph3-15" x="171.152344" y="15.102539"/>
  <use xlink:href="#glyph3-9" x="175.152344" y="15.102539"/>
  <use xlink:href="#glyph3-18" x="179.152344" y="15.102539"/>
  <use xlink:href="#glyph3-16" x="186.152344" y="15.102539"/>
  <use xlink:href="#glyph3-19" x="190.152344" y="15.102539"/>
  <use xlink:href="#glyph3-20" x="196.152344" y="15.102539"/>
  <use xlink:href="#glyph3-21" x="203.152344" y="15.102539"/>
  <use xlink:href="#glyph3-22" x="206.152344" y="15.102539"/>
  <use xlink:href="#glyph3-4" x="213.152344" y="15.102539"/>
  <use xlink:href="#glyph3-8" x="220.152344" y="15.102539"/>
  <use xlink:href="#glyph3-9" x="224.152344" y="15.102539"/>
  <use xlink:href="#glyph3-10" x="228.152344" y="15.102539"/>
</g>
</g>
</svg>
