<?xml version="1.0" encoding="UTF-8"?>
<svg xmlns="http://www.w3.org/2000/svg" xmlns:xlink="http://www.w3.org/1999/xlink" width="388pt" height="388pt" viewBox="0 0 388 388" version="1.1">
<defs>
<g>
<symbol overflow="visible" id="glyph0-0">
<path style="stroke:none;" d=""/>
</symbol>
<symbol overflow="visible" id="glyph0-1">
<path style="stroke:none;" d="M 2.984375 -3.421875 L 0.265625 -3.421875 L 0.265625 -2.0625 L 2.984375 -2.0625 Z M 2.984375 -3.421875 "/>
</symbol>
<symbol overflow="visible" id="glyph0-2">
<path style="stroke:none;" d="M 2.734375 -7.234375 C 1.96875 -7.234375 1.3125 -6.921875 0.890625 -6.328125 C 0.484375 -5.78125 0.296875 -4.875 0.296875 -3.5 C 0.296875 -2.234375 0.453125 -1.359375 0.796875 -0.8125 C 1.203125 -0.140625 1.90625 0.234375 2.734375 0.234375 C 3.5 0.234375 4.125 -0.078125 4.5625 -0.671875 C 4.96875 -1.21875 5.171875 -2.125 5.171875 -3.453125 C 5.171875 -4.765625 5.015625 -5.640625 4.671875 -6.1875 C 4.25 -6.875 3.5625 -7.234375 2.734375 -7.234375 Z M 2.734375 -6.109375 C 3.09375 -6.109375 3.375 -5.90625 3.546875 -5.546875 C 3.6875 -5.234375 3.765625 -4.46875 3.765625 -3.484375 C 3.765625 -2.6875 3.703125 -1.90625 3.59375 -1.625 C 3.4375 -1.203125 3.125 -0.96875 2.734375 -0.96875 C 2.359375 -0.96875 2.078125 -1.15625 1.90625 -1.515625 C 1.765625 -1.8125 1.6875 -2.5625 1.6875 -3.515625 C 1.6875 -4.34375 1.765625 -5.15625 1.875 -5.4375 C 2.015625 -5.875 2.328125 -6.109375 2.734375 -6.109375 Z M 2.734375 -6.109375 "/>
</symbol>
<symbol overflow="visible" id="glyph0-3">
<path style="stroke:none;" d="M 2.140625 -1.453125 L 0.640625 -1.453125 L 0.640625 0 L 2.140625 0 Z M 2.140625 -1.453125 "/>
</symbol>
<symbol overflow="visible" id="glyph0-4">
<path style="stroke:none;" d="M 5.125 -1.25 L 2.109375 -1.25 C 2.296875 -1.625 2.515625 -1.84375 3.5625 -2.59375 C 4.796875 -3.484375 5.15625 -4.015625 5.15625 -4.984375 C 5.15625 -6.359375 4.203125 -7.234375 2.71875 -7.234375 C 1.25 -7.234375 0.390625 -6.375 0.390625 -4.875 L 0.390625 -4.625 L 1.734375 -4.625 L 1.734375 -4.84375 C 1.734375 -5.640625 2.109375 -6.09375 2.75 -6.09375 C 3.375 -6.09375 3.75 -5.671875 3.75 -4.953125 C 3.75 -4.171875 3.515625 -3.875 1.9375 -2.765625 C 0.734375 -1.9375 0.359375 -1.3125 0.296875 0 L 5.125 0 Z M 5.125 -1.25 "/>
</symbol>
<symbol overflow="visible" id="glyph0-5">
<path style="stroke:none;" d="M 5.28125 -7.09375 L 0.296875 -7.09375 L 0.296875 -5.84375 L 3.8125 -5.84375 C 3.390625 -5.375 2.546875 -4.09375 2.265625 -3.46875 C 1.765625 -2.4375 1.515625 -1.515625 1.328125 0 L 2.734375 0 C 2.875 -2.234375 3.59375 -3.953125 5.28125 -5.984375 Z M 5.28125 -7.09375 "/>
</symbol>
<symbol overflow="visible" id="glyph0-6">
<path style="stroke:none;" d="M 2.375 -4.890625 L 2.375 0 L 3.78125 0 L 3.78125 -7.09375 L 2.84375 -7.09375 C 2.625 -6.25 1.90625 -5.8125 0.6875 -5.8125 L 0.6875 -4.890625 Z M 2.375 -4.890625 "/>
</symbol>
<symbol overflow="visible" id="glyph0-7">
<path style="stroke:none;" d="M 4.890625 -7.09375 L 1.09375 -7.09375 L 0.46875 -3.140625 L 1.734375 -3.140625 C 1.875 -3.484375 2.203125 -3.6875 2.625 -3.6875 C 3.34375 -3.6875 3.765625 -3.171875 3.765625 -2.3125 C 3.765625 -1.484375 3.34375 -0.96875 2.625 -0.96875 C 2.015625 -0.96875 1.6875 -1.28125 1.65625 -1.84375 L 0.265625 -1.84375 C 0.296875 -0.609375 1.234375 0.234375 2.609375 0.234375 C 4.125 0.234375 5.171875 -0.8125 5.171875 -2.34375 C 5.171875 -3.796875 4.265625 -4.796875 2.953125 -4.796875 C 2.484375 -4.796875 2.140625 -4.671875 1.734375 -4.359375 L 1.953125 -5.84375 L 4.890625 -5.84375 Z M 4.890625 -7.09375 "/>
</symbol>
<symbol overflow="visible" id="glyph0-8">
<path style="stroke:none;" d="M 2.171875 -3.171875 C 2.703125 -3.171875 2.734375 -3.171875 2.984375 -3.09375 C 3.453125 -2.96875 3.765625 -2.5625 3.765625 -2.046875 C 3.765625 -1.40625 3.3125 -0.96875 2.703125 -0.96875 C 2.046875 -0.96875 1.6875 -1.34375 1.65625 -2.078125 L 0.296875 -2.078125 C 0.296875 -0.65625 1.21875 0.234375 2.6875 0.234375 C 4.1875 0.234375 5.15625 -0.65625 5.15625 -2.046875 C 5.15625 -2.875 4.796875 -3.40625 4 -3.796875 C 4.65625 -4.203125 4.9375 -4.65625 4.9375 -5.3125 C 4.9375 -6.484375 4.046875 -7.234375 2.6875 -7.234375 C 1.65625 -7.234375 0.859375 -6.796875 0.546875 -6.015625 C 0.421875 -5.6875 0.375 -5.453125 0.375 -4.859375 L 1.6875 -4.859375 C 1.6875 -5.234375 1.71875 -5.4375 1.796875 -5.609375 C 1.921875 -5.921875 2.234375 -6.109375 2.65625 -6.109375 C 3.203125 -6.109375 3.53125 -5.765625 3.53125 -5.1875 C 3.53125 -4.453125 3.125 -4.109375 2.296875 -4.109375 L 2.171875 -4.109375 Z M 2.171875 -3.171875 "/>
</symbol>
<symbol overflow="visible" id="glyph0-9">
<path style="stroke:none;" d="M 0.375 -1.65625 C 0.40625 -0.5625 1.328125 0.234375 2.546875 0.234375 C 3.453125 0.234375 4.15625 -0.140625 4.5625 -0.859375 C 4.9375 -1.484375 5.15625 -2.5625 5.15625 -3.703125 C 5.15625 -4.734375 5 -5.546875 4.671875 -6.078125 C 4.21875 -6.84375 3.515625 -7.234375 2.671875 -7.234375 C 1.25 -7.234375 0.28125 -6.21875 0.28125 -4.734375 C 0.28125 -3.28125 1.140625 -2.28125 2.40625 -2.28125 C 2.765625 -2.28125 3.09375 -2.375 3.3125 -2.546875 C 3.453125 -2.625 3.53125 -2.71875 3.765625 -2.984375 C 3.765625 -1.609375 3.375 -0.953125 2.59375 -0.953125 C 2.09375 -0.953125 1.765625 -1.234375 1.734375 -1.65625 Z M 2.625 -6.09375 C 3.3125 -6.09375 3.734375 -5.578125 3.734375 -4.734375 C 3.734375 -3.953125 3.296875 -3.4375 2.65625 -3.4375 C 2.015625 -3.4375 1.609375 -3.9375 1.609375 -4.765625 C 1.609375 -5.578125 2 -6.09375 2.625 -6.09375 Z M 2.625 -6.09375 "/>
</symbol>
<symbol overflow="visible" id="glyph0-10">
<path style="stroke:none;" d="M 5.0625 -5.484375 C 5 -5.9375 4.90625 -6.171875 4.734375 -6.4375 C 4.359375 -6.9375 3.703125 -7.234375 2.9375 -7.234375 C 2.0625 -7.234375 1.34375 -6.84375 0.90625 -6.140625 C 0.484375 -5.453125 0.3125 -4.65625 0.3125 -3.375 C 0.3125 -2.15625 0.46875 -1.390625 0.828125 -0.8125 C 1.234375 -0.15625 1.984375 0.234375 2.8125 0.234375 C 4.234375 0.234375 5.1875 -0.8125 5.1875 -2.375 C 5.1875 -3.734375 4.34375 -4.671875 3.125 -4.671875 C 2.546875 -4.671875 2.15625 -4.5 1.71875 -4.046875 L 1.734375 -4.1875 C 1.75 -4.84375 1.78125 -5.0625 1.875 -5.328125 C 2.0625 -5.84375 2.40625 -6.109375 2.90625 -6.109375 C 3.34375 -6.109375 3.59375 -5.9375 3.765625 -5.484375 Z M 2.78125 -3.5625 C 3.4375 -3.5625 3.859375 -3.0625 3.859375 -2.265625 C 3.859375 -1.515625 3.40625 -0.96875 2.78125 -0.96875 C 2.140625 -0.96875 1.703125 -1.484375 1.703125 -2.25 C 1.703125 -3.015625 2.140625 -3.5625 2.78125 -3.5625 Z M 2.78125 -3.5625 "/>
</symbol>
<symbol overflow="visible" id="glyph0-11">
<path style="stroke:none;" d="M 5.21875 -2.734375 L 4.484375 -2.734375 L 4.484375 -7.09375 L 2.828125 -7.09375 L 0.234375 -2.75 L 0.234375 -1.5625 L 3.078125 -1.5625 L 3.078125 0 L 4.484375 0 L 4.484375 -1.5625 L 5.21875 -1.5625 Z M 3.078125 -2.734375 L 1.234375 -2.734375 L 3.078125 -5.765625 Z M 3.078125 -2.734375 "/>
</symbol>
<symbol overflow="visible" id="glyph1-0">
<path style="stroke:none;" d=""/>
</symbol>
<symbol overflow="visible" id="glyph1-1">
<path style="stroke:none;" d="M 7.671875 -9.625 L 0.734375 -9.625 L 0.734375 -8.546875 L 6.15625 -8.546875 L 0.375 -1.078125 L 0.375 0 L 7.703125 0 L 7.703125 -1.078125 L 1.921875 -1.078125 L 7.671875 -8.515625 Z M 7.671875 -9.625 "/>
</symbol>
<symbol overflow="visible" id="glyph1-2">
<path style="stroke:none;" d="M 2.59375 -9.359375 L 0.578125 -4.34375 L 1.484375 -4.34375 L 3.09375 -8.3125 L 4.703125 -4.34375 L 5.609375 -4.34375 L 3.5625 -9.359375 Z M 2.59375 -9.359375 "/>
</symbol>
<symbol overflow="visible" id="glyph2-0">
<path style="stroke:none;" d=""/>
</symbol>
<symbol overflow="visible" id="glyph2-1">
<path style="stroke:none;" d="M 2.390625 -4.75 L 2.390625 0 L 3.203125 0 L 3.203125 -6.671875 L 2.671875 -6.671875 C 2.375 -5.65625 2.203125 -5.515625 0.9375 -5.34375 L 0.9375 -4.75 Z M 2.390625 -4.75 "/>
</symbol>
<symbol overflow="visible" id="glyph2-2">
<path style="stroke:none;" d="M 4.671875 -0.796875 L 1.234375 -0.796875 C 1.3125 -1.359375 1.609375 -1.703125 2.40625 -2.203125 L 3.328125 -2.71875 C 4.25 -3.21875 4.71875 -3.90625 4.71875 -4.734375 C 4.71875 -5.28125 4.5 -5.796875 4.109375 -6.15625 C 3.71875 -6.515625 3.234375 -6.671875 2.625 -6.671875 C 1.796875 -6.671875 1.171875 -6.375 0.8125 -5.8125 C 0.578125 -5.453125 0.484375 -5.046875 0.46875 -4.375 L 1.28125 -4.375 C 1.296875 -4.828125 1.359375 -5.09375 1.46875 -5.3125 C 1.6875 -5.71875 2.109375 -5.96875 2.59375 -5.96875 C 3.328125 -5.96875 3.890625 -5.4375 3.890625 -4.703125 C 3.890625 -4.171875 3.578125 -3.71875 3 -3.375 L 2.15625 -2.875 C 0.78125 -2.09375 0.390625 -1.46875 0.3125 -0.015625 L 4.671875 -0.015625 Z M 4.671875 -0.796875 "/>
</symbol>
<symbol overflow="visible" id="glyph2-3">
<path style="stroke:none;" d="M 2.046875 -3.078125 L 2.484375 -3.078125 C 3.375 -3.078125 3.84375 -2.65625 3.84375 -1.859375 C 3.84375 -1.015625 3.328125 -0.515625 2.5 -0.515625 C 1.59375 -0.515625 1.15625 -0.953125 1.109375 -1.9375 L 0.296875 -1.9375 C 0.328125 -1.40625 0.421875 -1.046875 0.578125 -0.75 C 0.921875 -0.109375 1.5625 0.21875 2.453125 0.21875 C 3.796875 0.21875 4.671875 -0.59375 4.671875 -1.859375 C 4.671875 -2.71875 4.34375 -3.171875 3.5625 -3.453125 C 4.171875 -3.703125 4.484375 -4.171875 4.484375 -4.84375 C 4.484375 -5.984375 3.734375 -6.671875 2.484375 -6.671875 C 1.15625 -6.671875 0.46875 -5.9375 0.4375 -4.53125 L 1.25 -4.53125 C 1.25 -4.9375 1.296875 -5.15625 1.390625 -5.359375 C 1.578125 -5.75 1.984375 -5.96875 2.5 -5.96875 C 3.21875 -5.96875 3.640625 -5.53125 3.640625 -4.8125 C 3.640625 -4.34375 3.484375 -4.046875 3.125 -3.890625 C 2.90625 -3.796875 2.609375 -3.765625 2.046875 -3.765625 Z M 2.046875 -3.078125 "/>
</symbol>
<symbol overflow="visible" id="glyph2-4">
<path style="stroke:none;" d="M 3.015625 -1.609375 L 3.015625 0 L 3.828125 0 L 3.828125 -1.609375 L 4.796875 -1.609375 L 4.796875 -2.34375 L 3.828125 -2.34375 L 3.828125 -6.671875 L 3.234375 -6.671875 L 0.265625 -2.46875 L 0.265625 -1.609375 Z M 3.015625 -2.34375 L 0.96875 -2.34375 L 3.015625 -5.296875 Z M 3.015625 -2.34375 "/>
</symbol>
<symbol overflow="visible" id="glyph2-5">
<path style="stroke:none;" d="M 4.390625 -6.546875 L 1.015625 -6.546875 L 0.53125 -2.984375 L 1.28125 -2.984375 C 1.65625 -3.4375 1.96875 -3.59375 2.484375 -3.59375 C 3.359375 -3.59375 3.90625 -2.984375 3.90625 -2.015625 C 3.90625 -1.078125 3.359375 -0.515625 2.46875 -0.515625 C 1.765625 -0.515625 1.328125 -0.875 1.140625 -1.609375 L 0.328125 -1.609375 C 0.4375 -1.078125 0.53125 -0.8125 0.71875 -0.578125 C 1.09375 -0.078125 1.75 0.21875 2.5 0.21875 C 3.8125 0.21875 4.734375 -0.75 4.734375 -2.140625 C 4.734375 -3.421875 3.875 -4.3125 2.625 -4.3125 C 2.15625 -4.3125 1.796875 -4.1875 1.40625 -3.921875 L 1.671875 -5.75 L 4.390625 -5.75 Z M 4.390625 -6.546875 "/>
</symbol>
<symbol overflow="visible" id="glyph2-6">
<path style="stroke:none;" d="M 4.59375 -4.9375 C 4.4375 -6.03125 3.734375 -6.671875 2.75 -6.671875 C 2.015625 -6.671875 1.375 -6.328125 0.984375 -5.71875 C 0.578125 -5.0625 0.390625 -4.25 0.390625 -3.046875 C 0.390625 -1.921875 0.546875 -1.203125 0.953125 -0.625 C 1.296875 -0.078125 1.875 0.21875 2.59375 0.21875 C 3.84375 0.21875 4.734375 -0.71875 4.734375 -2.015625 C 4.734375 -3.25 3.90625 -4.125 2.734375 -4.125 C 2.09375 -4.125 1.578125 -3.875 1.234375 -3.390625 C 1.234375 -5.046875 1.75 -5.953125 2.6875 -5.953125 C 3.265625 -5.953125 3.65625 -5.59375 3.78125 -4.9375 Z M 2.625 -3.390625 C 3.421875 -3.390625 3.90625 -2.84375 3.90625 -1.953125 C 3.90625 -1.125 3.359375 -0.515625 2.609375 -0.515625 C 1.84375 -0.515625 1.28125 -1.140625 1.28125 -2 C 1.28125 -2.828125 1.828125 -3.390625 2.625 -3.390625 Z M 2.625 -3.390625 "/>
</symbol>
<symbol overflow="visible" id="glyph2-7">
<path style="stroke:none;" d="M 4.796875 -6.546875 L 0.421875 -6.546875 L 0.421875 -5.75 L 3.96875 -5.75 C 2.40625 -3.515625 1.765625 -2.15625 1.28125 0 L 2.140625 0 C 2.5 -2.09375 3.328125 -3.890625 4.796875 -5.859375 Z M 4.796875 -6.546875 "/>
</symbol>
<symbol overflow="visible" id="glyph3-0">
<path style="stroke:none;" d=""/>
</symbol>
<symbol overflow="visible" id="glyph3-1">
<path style="stroke:none;" d="M -8.546875 -4.671875 L -8.546875 -7.828125 L -9.625 -7.828125 L -9.625 -0.28125 L -8.546875 -0.28125 L -8.546875 -3.453125 L 0 -3.453125 L 0 -4.671875 Z M -8.546875 -4.671875 "/>
</symbol>
<symbol overflow="visible" id="glyph3-2">
<path style="stroke:none;" d="M -4.390625 -2.421875 L -4.390625 -7.015625 L -5.46875 -7.015625 L -5.46875 -2.421875 L -8.546875 -2.421875 L -8.546875 -7.640625 L -9.625 -7.640625 L -9.625 -1.1875 L 0 -1.1875 L 0 -2.421875 Z M -4.390625 -2.421875 "/>
</symbol>
<symbol overflow="visible" id="glyph3-3">
<path style="stroke:none;" d="M -2.890625 -6.265625 L 0 -7.25 L 0 -8.625 L -9.625 -5.234375 L -9.625 -3.65625 L 0 -0.21875 L 0 -1.53125 L -2.890625 -2.546875 Z M -3.921875 -5.921875 L -3.921875 -2.859375 L -8.3125 -4.4375 Z M -3.921875 -5.921875 "/>
</symbol>
<symbol overflow="visible" id="glyph4-0">
<path style="stroke:none;" d=""/>
</symbol>
<symbol overflow="visible" id="glyph4-1">
<path style="stroke:none;" d="M -4.75 -2.390625 L 0 -2.390625 L 0 -3.203125 L -6.671875 -3.203125 L -6.671875 -2.671875 C -5.65625 -2.375 -5.515625 -2.203125 -5.34375 -0.9375 L -4.75 -0.9375 Z M -4.75 -2.390625 "/>
</symbol>
<symbol overflow="visible" id="glyph4-2">
<path style="stroke:none;" d="M -0.796875 -4.671875 L -0.796875 -1.234375 C -1.359375 -1.3125 -1.703125 -1.609375 -2.203125 -2.40625 L -2.71875 -3.328125 C -3.21875 -4.25 -3.90625 -4.71875 -4.734375 -4.71875 C -5.28125 -4.71875 -5.796875 -4.5 -6.15625 -4.109375 C -6.515625 -3.71875 -6.671875 -3.234375 -6.671875 -2.625 C -6.671875 -1.796875 -6.375 -1.171875 -5.8125 -0.8125 C -5.453125 -0.578125 -5.046875 -0.484375 -4.375 -0.46875 L -4.375 -1.28125 C -4.828125 -1.296875 -5.09375 -1.359375 -5.3125 -1.46875 C -5.71875 -1.6875 -5.96875 -2.109375 -5.96875 -2.59375 C -5.96875 -3.328125 -5.4375 -3.890625 -4.703125 -3.890625 C -4.171875 -3.890625 -3.71875 -3.578125 -3.375 -3 L -2.875 -2.15625 C -2.09375 -0.78125 -1.46875 -0.390625 -0.015625 -0.3125 L -0.015625 -4.671875 Z M -0.796875 -4.671875 "/>
</symbol>
<symbol overflow="visible" id="glyph4-3">
<path style="stroke:none;" d="M -3.078125 -2.046875 L -3.078125 -2.484375 C -3.078125 -3.375 -2.65625 -3.84375 -1.859375 -3.84375 C -1.015625 -3.84375 -0.515625 -3.328125 -0.515625 -2.5 C -0.515625 -1.59375 -0.953125 -1.15625 -1.9375 -1.109375 L -1.9375 -0.296875 C -1.40625 -0.328125 -1.046875 -0.421875 -0.75 -0.578125 C -0.109375 -0.921875 0.21875 -1.5625 0.21875 -2.453125 C 0.21875 -3.796875 -0.59375 -4.671875 -1.859375 -4.671875 C -2.71875 -4.671875 -3.171875 -4.34375 -3.453125 -3.5625 C -3.703125 -4.171875 -4.171875 -4.484375 -4.84375 -4.484375 C -5.984375 -4.484375 -6.671875 -3.734375 -6.671875 -2.484375 C -6.671875 -1.15625 -5.9375 -0.46875 -4.53125 -0.4375 L -4.53125 -1.25 C -4.9375 -1.25 -5.15625 -1.296875 -5.359375 -1.390625 C -5.75 -1.578125 -5.96875 -1.984375 -5.96875 -2.5 C -5.96875 -3.21875 -5.53125 -3.640625 -4.8125 -3.640625 C -4.34375 -3.640625 -4.046875 -3.484375 -3.890625 -3.125 C -3.796875 -2.90625 -3.765625 -2.609375 -3.765625 -2.046875 Z M -3.078125 -2.046875 "/>
</symbol>
<symbol overflow="visible" id="glyph4-4">
<path style="stroke:none;" d="M -1.609375 -3.015625 L 0 -3.015625 L 0 -3.828125 L -1.609375 -3.828125 L -1.609375 -4.796875 L -2.34375 -4.796875 L -2.34375 -3.828125 L -6.671875 -3.828125 L -6.671875 -3.234375 L -2.46875 -0.265625 L -1.609375 -0.265625 Z M -2.34375 -3.015625 L -2.34375 -0.96875 L -5.296875 -3.015625 Z M -2.34375 -3.015625 "/>
</symbol>
<symbol overflow="visible" id="glyph4-5">
<path style="stroke:none;" d="M -6.546875 -4.390625 L -6.546875 -1.015625 L -2.984375 -0.53125 L -2.984375 -1.28125 C -3.4375 -1.65625 -3.59375 -1.96875 -3.59375 -2.484375 C -3.59375 -3.359375 -2.984375 -3.90625 -2.015625 -3.90625 C -1.078125 -3.90625 -0.515625 -3.359375 -0.515625 -2.46875 C -0.515625 -1.765625 -0.875 -1.328125 -1.609375 -1.140625 L -1.609375 -0.328125 C -1.078125 -0.4375 -0.8125 -0.53125 -0.578125 -0.71875 C -0.078125 -1.09375 0.21875 -1.75 0.21875 -2.5 C 0.21875 -3.8125 -0.75 -4.734375 -2.140625 -4.734375 C -3.421875 -4.734375 -4.3125 -3.875 -4.3125 -2.625 C -4.3125 -2.15625 -4.1875 -1.796875 -3.921875 -1.40625 L -5.75 -1.671875 L -5.75 -4.390625 Z M -6.546875 -4.390625 "/>
</symbol>
<symbol overflow="visible" id="glyph4-6">
<path style="stroke:none;" d="M -4.9375 -4.59375 C -6.03125 -4.4375 -6.671875 -3.734375 -6.671875 -2.75 C -6.671875 -2.015625 -6.328125 -1.375 -5.71875 -0.984375 C -5.0625 -0.578125 -4.25 -0.390625 -3.046875 -0.390625 C -1.921875 -0.390625 -1.203125 -0.546875 -0.625 -0.953125 C -0.078125 -1.296875 0.21875 -1.875 0.21875 -2.59375 C 0.21875 -3.84375 -0.71875 -4.734375 -2.015625 -4.734375 C -3.25 -4.734375 -4.125 -3.90625 -4.125 -2.734375 C -4.125 -2.09375 -3.875 -1.578125 -3.390625 -1.234375 C -5.046875 -1.234375 -5.953125 -1.75 -5.953125 -2.6875 C -5.953125 -3.265625 -5.59375 -3.65625 -4.9375 -3.78125 Z M -3.390625 -2.625 C -3.390625 -3.421875 -2.84375 -3.90625 -1.953125 -3.90625 C -1.125 -3.90625 -0.515625 -3.359375 -0.515625 -2.609375 C -0.515625 -1.84375 -1.140625 -1.28125 -2 -1.28125 C -2.828125 -1.28125 -3.390625 -1.828125 -3.390625 -2.625 Z M -3.390625 -2.625 "/>
</symbol>
<symbol overflow="visible" id="glyph4-7">
<path style="stroke:none;" d="M -4.84375 -3.734375 L -4.140625 -3.734375 C -4.71875 -3.34375 -4.984375 -2.921875 -4.984375 -2.3125 C -4.984375 -1.140625 -3.890625 -0.328125 -2.34375 -0.328125 C -1.53125 -0.328125 -0.9375 -0.515625 -0.4375 -0.9375 C -0.015625 -1.296875 0.21875 -1.75 0.21875 -2.25 C 0.21875 -2.828125 -0.046875 -3.25 -0.65625 -3.65625 L -0.40625 -3.65625 C 0.890625 -3.65625 1.359375 -3.296875 1.359375 -2.34375 C 1.359375 -1.6875 1.109375 -1.34375 0.546875 -1.265625 L 0.546875 -0.484375 C 1.453125 -0.546875 2.015625 -1.265625 2.015625 -2.3125 C 2.015625 -3.03125 1.78125 -3.625 1.390625 -3.9375 C 0.9375 -4.296875 0.34375 -4.4375 -0.796875 -4.4375 L -4.84375 -4.4375 Z M -4.265625 -2.375 C -4.265625 -3.1875 -3.578125 -3.65625 -2.359375 -3.65625 C -1.1875 -3.65625 -0.5 -3.1875 -0.5 -2.375 C -0.5 -1.59375 -1.1875 -1.125 -2.375 -1.125 C -3.5625 -1.125 -4.265625 -1.59375 -4.265625 -2.375 Z M -4.265625 -2.375 "/>
</symbol>
<symbol overflow="visible" id="glyph4-8">
<path style="stroke:none;" d="M -6.734375 -1.40625 L -6.734375 -0.625 L 0 -0.625 L 0 -1.40625 Z M -6.734375 -1.40625 "/>
</symbol>
<symbol overflow="visible" id="glyph4-9">
<path style="stroke:none;" d="M -4.984375 -2.515625 C -4.984375 -1.140625 -4 -0.328125 -2.375 -0.328125 C -0.75 -0.328125 0.21875 -1.140625 0.21875 -2.515625 C 0.21875 -3.890625 -0.75 -4.703125 -2.34375 -4.703125 C -4.03125 -4.703125 -4.984375 -3.921875 -4.984375 -2.515625 Z M -4.265625 -2.515625 C -4.265625 -3.390625 -3.5625 -3.90625 -2.359375 -3.90625 C -1.203125 -3.90625 -0.5 -3.375 -0.5 -2.515625 C -0.5 -1.65625 -1.203125 -1.140625 -2.375 -1.140625 C -3.5625 -1.140625 -4.265625 -1.65625 -4.265625 -2.515625 Z M -4.265625 -2.515625 "/>
</symbol>
<symbol overflow="visible" id="glyph4-10">
<path style="stroke:none;" d="M -6.734375 -0.5 L 0 -0.5 L 0 -1.1875 L -0.625 -1.1875 C -0.0625 -1.5625 0.21875 -2.046875 0.21875 -2.71875 C 0.21875 -4 -0.828125 -4.828125 -2.4375 -4.828125 C -4 -4.828125 -4.984375 -4.046875 -4.984375 -2.765625 C -4.984375 -2.09375 -4.734375 -1.625 -4.1875 -1.265625 L -6.734375 -1.265625 Z M -4.25 -2.609375 C -4.25 -3.46875 -3.515625 -4.03125 -2.359375 -4.03125 C -1.25 -4.03125 -0.515625 -3.453125 -0.515625 -2.609375 C -0.515625 -1.796875 -1.25 -1.265625 -2.375 -1.265625 C -3.515625 -1.265625 -4.25 -1.796875 -4.25 -2.609375 Z M -4.25 -2.609375 "/>
</symbol>
<symbol overflow="visible" id="glyph4-11">
<path style="stroke:none;" d="M -0.453125 -4.9375 C -0.4375 -4.859375 -0.4375 -4.828125 -0.4375 -4.78125 C -0.4375 -4.5 -0.578125 -4.359375 -0.8125 -4.359375 L -3.65625 -4.359375 C -4.515625 -4.359375 -4.984375 -3.734375 -4.984375 -2.546875 C -4.984375 -1.828125 -4.78125 -1.265625 -4.40625 -0.9375 C -4.171875 -0.71875 -3.890625 -0.625 -3.40625 -0.59375 L -3.40625 -1.375 C -4 -1.4375 -4.265625 -1.796875 -4.265625 -2.515625 C -4.265625 -3.21875 -4 -3.59375 -3.546875 -3.59375 L -3.34375 -3.59375 C -3.015625 -3.578125 -2.890625 -3.421875 -2.8125 -2.78125 C -2.671875 -1.703125 -2.625 -1.53125 -2.515625 -1.234375 C -2.265625 -0.671875 -1.84375 -0.390625 -1.21875 -0.390625 C -0.34375 -0.390625 0.21875 -1 0.21875 -1.96875 C 0.21875 -2.578125 0 -3.078125 -0.5 -3.625 C 0 -3.671875 0.21875 -3.921875 0.21875 -4.40625 C 0.21875 -4.578125 0.1875 -4.6875 0.125 -4.9375 Z M -1.53125 -3.59375 C -1.265625 -3.59375 -1.109375 -3.515625 -0.890625 -3.28125 C -0.609375 -2.96875 -0.46875 -2.59375 -0.46875 -2.140625 C -0.46875 -1.546875 -0.75 -1.1875 -1.234375 -1.1875 C -1.75 -1.1875 -2 -1.53125 -2.125 -2.359375 C -2.234375 -3.171875 -2.265625 -3.328125 -2.390625 -3.59375 Z M -1.53125 -3.59375 "/>
</symbol>
<symbol overflow="visible" id="glyph5-0">
<path style="stroke:none;" d=""/>
</symbol>
<symbol overflow="visible" id="glyph5-1">
<path style="stroke:none;" d="M 7.078125 -12.9375 L 11.859375 -12.9375 L 11.859375 -14.578125 L 0.421875 -14.578125 L 0.421875 -12.9375 L 5.21875 -12.9375 L 5.21875 0 L 7.078125 0 Z M 7.078125 -12.9375 "/>
</symbol>
<symbol overflow="visible" id="glyph5-2">
<path style="stroke:none;" d="M 5.6875 -6.234375 L 0.921875 -6.234375 L 0.921875 -4.796875 L 5.6875 -4.796875 Z M 5.6875 -6.234375 "/>
</symbol>
<symbol overflow="visible" id="glyph5-3">
<path style="stroke:none;" d="M 9.359375 0 L 13.453125 -12.21875 L 13.453125 0 L 15.21875 0 L 15.21875 -14.578125 L 12.640625 -14.578125 L 8.40625 -1.875 L 4.078125 -14.578125 L 1.5 -14.578125 L 1.5 0 L 3.265625 0 L 3.265625 -12.21875 L 7.40625 0 Z M 9.359375 0 "/>
</symbol>
<symbol overflow="visible" id="glyph5-4">
<path style="stroke:none;" d="M 10.265625 -4.6875 C 10.265625 -6.28125 10.140625 -7.234375 9.84375 -8.015625 C 9.15625 -9.734375 7.5625 -10.78125 5.59375 -10.78125 C 2.6875 -10.78125 0.796875 -8.5625 0.796875 -5.09375 C 0.796875 -1.640625 2.59375 0.453125 5.5625 0.453125 C 7.953125 0.453125 9.625 -0.90625 10.046875 -3.1875 L 8.359375 -3.1875 C 7.90625 -1.796875 6.953125 -1.078125 5.625 -1.078125 C 4.5625 -1.078125 3.65625 -1.5625 3.09375 -2.4375 C 2.703125 -3.046875 2.5625 -3.640625 2.546875 -4.6875 Z M 2.578125 -6.046875 C 2.71875 -7.984375 3.90625 -9.234375 5.578125 -9.234375 C 7.28125 -9.234375 8.453125 -7.921875 8.453125 -6.046875 Z M 2.578125 -6.046875 "/>
</symbol>
<symbol overflow="visible" id="glyph5-5">
<path style="stroke:none;" d="M 5.84375 -5.421875 L 9.359375 -10.484375 L 7.484375 -10.484375 L 4.953125 -6.6875 L 2.4375 -10.484375 L 0.546875 -10.484375 L 4.046875 -5.34375 L 0.34375 0 L 2.234375 0 L 4.90625 -4.015625 L 7.515625 0 L 9.453125 0 Z M 5.84375 -5.421875 "/>
</symbol>
<symbol overflow="visible" id="glyph5-6">
<path style="stroke:none;" d=""/>
</symbol>
<symbol overflow="visible" id="glyph5-7">
<path style="stroke:none;" d="M 10.6875 -7.0625 L 1 -7.0625 L 1 -5.65625 L 10.6875 -5.65625 Z M 10.6875 -3.625 L 1 -3.625 L 1 -2.21875 L 10.6875 -2.21875 Z M 10.6875 -3.625 "/>
</symbol>
<symbol overflow="visible" id="glyph5-8">
<path style="stroke:none;" d="M 5.5 -14.453125 C 4.1875 -14.453125 2.984375 -13.859375 2.234375 -12.875 C 1.3125 -11.59375 0.859375 -9.6875 0.859375 -7 C 0.859375 -2.125 2.453125 0.453125 5.5 0.453125 C 8.5 0.453125 10.140625 -2.125 10.140625 -6.875 C 10.140625 -9.6875 9.703125 -11.5625 8.765625 -12.875 C 8.015625 -13.875 6.84375 -14.453125 5.5 -14.453125 Z M 5.5 -12.90625 C 7.40625 -12.90625 8.34375 -10.953125 8.34375 -7.046875 C 8.34375 -2.921875 7.421875 -1 5.453125 -1 C 3.59375 -1 2.65625 -3 2.65625 -6.984375 C 2.65625 -10.953125 3.59375 -12.90625 5.5 -12.90625 Z M 5.5 -12.90625 "/>
</symbol>
<symbol overflow="visible" id="glyph5-9">
<path style="stroke:none;" d="M 3.8125 -2.078125 L 1.734375 -2.078125 L 1.734375 0 L 3.8125 0 Z M 3.8125 -2.078125 "/>
</symbol>
<symbol overflow="visible" id="glyph5-10">
<path style="stroke:none;" d="M 6.546875 -3.5 L 6.546875 0 L 8.296875 0 L 8.296875 -3.5 L 10.40625 -3.5 L 10.40625 -5.078125 L 8.296875 -5.078125 L 8.296875 -14.453125 L 7 -14.453125 L 0.5625 -5.359375 L 0.5625 -3.5 Z M 6.546875 -5.078125 L 2.09375 -5.078125 L 6.546875 -11.453125 Z M 6.546875 -5.078125 "/>
</symbol>
<symbol overflow="visible" id="glyph5-11">
<path style="stroke:none;" d="M 1.0625 -3.296875 C 1.40625 -0.9375 2.921875 0.453125 5.078125 0.453125 C 6.65625 0.453125 8.0625 -0.296875 8.90625 -1.59375 C 9.78125 -3.015625 10.1875 -4.78125 10.1875 -7.40625 C 10.1875 -9.84375 9.8125 -11.375 8.984375 -12.65625 C 8.203125 -13.84375 6.953125 -14.453125 5.40625 -14.453125 C 2.703125 -14.453125 0.765625 -12.4375 0.765625 -9.640625 C 0.765625 -6.984375 2.5625 -5.09375 5.125 -5.09375 C 6.453125 -5.09375 7.453125 -5.578125 8.359375 -6.6875 C 8.34375 -3.078125 7.21875 -1.09375 5.203125 -1.09375 C 3.953125 -1.09375 3.09375 -1.90625 2.8125 -3.296875 Z M 5.375 -12.921875 C 7.015625 -12.921875 8.265625 -11.546875 8.265625 -9.6875 C 8.265625 -7.90625 7.0625 -6.65625 5.3125 -6.65625 C 3.625 -6.65625 2.5625 -7.859375 2.5625 -9.78125 C 2.5625 -11.59375 3.734375 -12.921875 5.375 -12.921875 Z M 5.375 -12.921875 "/>
</symbol>
</g>
</defs>
<g id="surface563">
<rect x="0" y="0" width="388" height="388" style="fill:rgb(100%,100%,100%);fill-opacity:1;stroke:none;"/>
<rect x="0" y="0" width="388" height="388" style="fill:rgb(100%,100%,100%);fill-opacity:1;stroke:none;"/>
<path style="fill:none;stroke-width:0.75;stroke-linecap:round;stroke-linejoin:round;stroke:rgb(100%,100%,100%);stroke-opacity:1;stroke-miterlimit:10;" d="M 0 388 L 388 388 L 388 0 L 0 0 Z M 0 388 "/>
<path style=" stroke:none;fill-rule:nonzero;fill:rgb(88.235294%,83.921569%,94.509804%);fill-opacity:1;" d="M 46.417969 92.648438 L 92.003906 92.648438 L 92.003906 51.417969 L 46.417969 51.417969 Z M 46.417969 92.648438 "/>
<path style=" stroke:none;fill-rule:nonzero;fill:rgb(100%,66.666667%,57.647059%);fill-opacity:1;" d="M 94.835938 92.648438 L 140.421875 92.648438 L 140.421875 51.417969 L 94.835938 51.417969 Z M 94.835938 92.648438 "/>
<path style=" stroke:none;fill-rule:nonzero;fill:rgb(88.235294%,83.529412%,94.509804%);fill-opacity:1;" d="M 143.257812 92.648438 L 188.84375 92.648438 L 188.84375 51.417969 L 143.257812 51.417969 Z M 143.257812 92.648438 "/>
<path style=" stroke:none;fill-rule:nonzero;fill:rgb(72.54902%,59.215686%,97.254902%);fill-opacity:1;" d="M 191.675781 92.648438 L 237.261719 92.648438 L 237.261719 51.417969 L 191.675781 51.417969 Z M 191.675781 92.648438 "/>
<g style="fill:rgb(0%,0%,0%);fill-opacity:1;">
  <use xlink:href="#glyph0-1" x="199.46875" y="75.321289"/>
  <use xlink:href="#glyph0-2" x="202.46875" y="75.321289"/>
  <use xlink:href="#glyph0-3" x="208.46875" y="75.321289"/>
  <use xlink:href="#glyph0-4" x="211.46875" y="75.321289"/>
  <use xlink:href="#glyph0-5" x="217.46875" y="75.321289"/>
  <use xlink:href="#glyph0-2" x="223.46875" y="75.321289"/>
</g>
<path style=" stroke:none;fill-rule:nonzero;fill:rgb(97.647059%,84.705882%,81.176471%);fill-opacity:1;" d="M 240.097656 92.648438 L 285.683594 92.648438 L 285.683594 51.417969 L 240.097656 51.417969 Z M 240.097656 92.648438 "/>
<path style=" stroke:none;fill-rule:nonzero;fill:rgb(98.431373%,83.529412%,79.607843%);fill-opacity:1;" d="M 288.515625 92.648438 L 334.101562 92.648438 L 334.101562 51.417969 L 288.515625 51.417969 Z M 288.515625 92.648438 "/>
<path style=" stroke:none;fill-rule:nonzero;fill:rgb(83.529412%,76.078431%,95.686275%);fill-opacity:1;" d="M 336.933594 92.648438 L 382.519531 92.648438 L 382.519531 51.417969 L 336.933594 51.417969 Z M 336.933594 92.648438 "/>
<path style=" stroke:none;fill-rule:nonzero;fill:rgb(91.372549%,89.411765%,93.72549%);fill-opacity:1;" d="M 46.417969 136.714844 L 92.003906 136.714844 L 92.003906 95.484375 L 46.417969 95.484375 Z M 46.417969 136.714844 "/>
<path style=" stroke:none;fill-rule:nonzero;fill:rgb(100%,70.980392%,63.137255%);fill-opacity:1;" d="M 94.835938 136.714844 L 140.421875 136.714844 L 140.421875 95.484375 L 94.835938 95.484375 Z M 94.835938 136.714844 "/>
<g style="fill:rgb(0%,0%,0%);fill-opacity:1;">
  <use xlink:href="#glyph0-2" x="104.128906" y="119.387695"/>
  <use xlink:href="#glyph0-3" x="110.128906" y="119.387695"/>
  <use xlink:href="#glyph0-4" x="113.128906" y="119.387695"/>
  <use xlink:href="#glyph0-6" x="119.128906" y="119.387695"/>
  <use xlink:href="#glyph0-7" x="125.128906" y="119.387695"/>
</g>
<path style=" stroke:none;fill-rule:nonzero;fill:rgb(89.019608%,85.098039%,94.509804%);fill-opacity:1;" d="M 143.257812 136.714844 L 188.84375 136.714844 L 188.84375 95.484375 L 143.257812 95.484375 Z M 143.257812 136.714844 "/>
<path style=" stroke:none;fill-rule:nonzero;fill:rgb(78.823529%,68.627451%,96.470588%);fill-opacity:1;" d="M 191.675781 136.714844 L 237.261719 136.714844 L 237.261719 95.484375 L 191.675781 95.484375 Z M 191.675781 136.714844 "/>
<path style=" stroke:none;fill-rule:nonzero;fill:rgb(93.72549%,92.54902%,92.156863%);fill-opacity:1;" d="M 240.097656 136.714844 L 285.683594 136.714844 L 285.683594 95.484375 L 240.097656 95.484375 Z M 240.097656 136.714844 "/>
<path style=" stroke:none;fill-rule:nonzero;fill:rgb(89.803922%,86.666667%,94.117647%);fill-opacity:1;" d="M 288.515625 136.714844 L 334.101562 136.714844 L 334.101562 95.484375 L 288.515625 95.484375 Z M 288.515625 136.714844 "/>
<path style=" stroke:none;fill-rule:nonzero;fill:rgb(85.098039%,78.039216%,95.294118%);fill-opacity:1;" d="M 336.933594 136.714844 L 382.519531 136.714844 L 382.519531 95.484375 L 336.933594 95.484375 Z M 336.933594 136.714844 "/>
<path style=" stroke:none;fill-rule:nonzero;fill:rgb(90.588235%,88.627451%,94.117647%);fill-opacity:1;" d="M 46.417969 180.777344 L 92.003906 180.777344 L 92.003906 139.546875 L 46.417969 139.546875 Z M 46.417969 180.777344 "/>
<path style=" stroke:none;fill-rule:nonzero;fill:rgb(100%,72.941176%,65.490196%);fill-opacity:1;" d="M 94.835938 180.777344 L 140.421875 180.777344 L 140.421875 139.546875 L 94.835938 139.546875 Z M 94.835938 180.777344 "/>
<path style=" stroke:none;fill-rule:nonzero;fill:rgb(90.196078%,87.058824%,94.117647%);fill-opacity:1;" d="M 143.257812 180.777344 L 188.84375 180.777344 L 188.84375 139.546875 L 143.257812 139.546875 Z M 143.257812 180.777344 "/>
<path style=" stroke:none;fill-rule:nonzero;fill:rgb(69.411765%,54.901961%,97.647059%);fill-opacity:1;" d="M 191.675781 180.777344 L 237.261719 180.777344 L 237.261719 139.546875 L 191.675781 139.546875 Z M 191.675781 180.777344 "/>
<g style="fill:rgb(0%,0%,0%);fill-opacity:1;">
  <use xlink:href="#glyph0-1" x="199.46875" y="163.454102"/>
  <use xlink:href="#glyph0-2" x="202.46875" y="163.454102"/>
  <use xlink:href="#glyph0-3" x="208.46875" y="163.454102"/>
  <use xlink:href="#glyph0-8" x="211.46875" y="163.454102"/>
  <use xlink:href="#glyph0-2" x="217.46875" y="163.454102"/>
  <use xlink:href="#glyph0-6" x="223.46875" y="163.454102"/>
</g>
<path style=" stroke:none;fill-rule:nonzero;fill:rgb(96.470588%,87.843137%,85.490196%);fill-opacity:1;" d="M 240.097656 180.777344 L 285.683594 180.777344 L 285.683594 139.546875 L 240.097656 139.546875 Z M 240.097656 180.777344 "/>
<path style=" stroke:none;fill-rule:nonzero;fill:rgb(96.078431%,88.627451%,87.058824%);fill-opacity:1;" d="M 288.515625 180.777344 L 334.101562 180.777344 L 334.101562 139.546875 L 288.515625 139.546875 Z M 288.515625 180.777344 "/>
<path style=" stroke:none;fill-rule:nonzero;fill:rgb(81.176471%,71.764706%,96.078431%);fill-opacity:1;" d="M 336.933594 180.777344 L 382.519531 180.777344 L 382.519531 139.546875 L 336.933594 139.546875 Z M 336.933594 180.777344 "/>
<path style=" stroke:none;fill-rule:nonzero;fill:rgb(92.156863%,90.588235%,93.72549%);fill-opacity:1;" d="M 46.417969 224.84375 L 92.003906 224.84375 L 92.003906 183.613281 L 46.417969 183.613281 Z M 46.417969 224.84375 "/>
<path style=" stroke:none;fill-rule:nonzero;fill:rgb(100%,74.509804%,67.45098%);fill-opacity:1;" d="M 94.835938 224.84375 L 140.421875 224.84375 L 140.421875 183.613281 L 94.835938 183.613281 Z M 94.835938 224.84375 "/>
<path style=" stroke:none;fill-rule:nonzero;fill:rgb(89.803922%,86.666667%,94.117647%);fill-opacity:1;" d="M 143.257812 224.84375 L 188.84375 224.84375 L 188.84375 183.613281 L 143.257812 183.613281 Z M 143.257812 224.84375 "/>
<path style=" stroke:none;fill-rule:nonzero;fill:rgb(79.215686%,69.019608%,96.470588%);fill-opacity:1;" d="M 191.675781 224.84375 L 237.261719 224.84375 L 237.261719 183.613281 L 191.675781 183.613281 Z M 191.675781 224.84375 "/>
<g style="fill:rgb(0%,0%,0%);fill-opacity:1;">
  <use xlink:href="#glyph0-1" x="199.46875" y="207.520508"/>
  <use xlink:href="#glyph0-2" x="202.46875" y="207.520508"/>
  <use xlink:href="#glyph0-3" x="208.46875" y="207.520508"/>
  <use xlink:href="#glyph0-6" x="211.46875" y="207.520508"/>
  <use xlink:href="#glyph0-9" x="217.46875" y="207.520508"/>
  <use xlink:href="#glyph0-2" x="223.46875" y="207.520508"/>
</g>
<path style=" stroke:none;fill-rule:nonzero;fill:rgb(94.117647%,92.156863%,91.372549%);fill-opacity:1;" d="M 240.097656 224.84375 L 285.683594 224.84375 L 285.683594 183.613281 L 240.097656 183.613281 Z M 240.097656 224.84375 "/>
<path style=" stroke:none;fill-rule:nonzero;fill:rgb(95.686275%,89.411765%,87.843137%);fill-opacity:1;" d="M 288.515625 224.84375 L 334.101562 224.84375 L 334.101562 183.613281 L 288.515625 183.613281 Z M 288.515625 224.84375 "/>
<path style=" stroke:none;fill-rule:nonzero;fill:rgb(88.627451%,84.705882%,94.509804%);fill-opacity:1;" d="M 336.933594 224.84375 L 382.519531 224.84375 L 382.519531 183.613281 L 336.933594 183.613281 Z M 336.933594 224.84375 "/>
<path style=" stroke:none;fill-rule:nonzero;fill:rgb(100%,52.156863%,40%);fill-opacity:1;" d="M 46.417969 268.910156 L 92.003906 268.910156 L 92.003906 227.679688 L 46.417969 227.679688 Z M 46.417969 268.910156 "/>
<path style=" stroke:none;fill-rule:nonzero;fill:rgb(67.843137%,52.941176%,97.647059%);fill-opacity:1;" d="M 94.835938 268.910156 L 140.421875 268.910156 L 140.421875 227.679688 L 94.835938 227.679688 Z M 94.835938 268.910156 "/>
<path style=" stroke:none;fill-rule:nonzero;fill:rgb(100%,79.215686%,74.117647%);fill-opacity:1;" d="M 143.257812 268.910156 L 188.84375 268.910156 L 188.84375 227.679688 L 143.257812 227.679688 Z M 143.257812 268.910156 "/>
<path style=" stroke:none;fill-rule:nonzero;fill:rgb(100%,0%,0%);fill-opacity:1;" d="M 191.675781 268.910156 L 237.261719 268.910156 L 237.261719 227.679688 L 191.675781 227.679688 Z M 191.675781 268.910156 "/>
<g style="fill:rgb(0%,0%,0%);fill-opacity:1;">
  <use xlink:href="#glyph0-2" x="200.96875" y="251.583008"/>
  <use xlink:href="#glyph0-3" x="206.96875" y="251.583008"/>
  <use xlink:href="#glyph0-10" x="209.96875" y="251.583008"/>
  <use xlink:href="#glyph0-7" x="215.96875" y="251.583008"/>
  <use xlink:href="#glyph0-9" x="221.96875" y="251.583008"/>
</g>
<path style=" stroke:none;fill-rule:nonzero;fill:rgb(93.333333%,93.333333%,93.333333%);fill-opacity:1;" d="M 240.097656 268.910156 L 285.683594 268.910156 L 285.683594 227.679688 L 240.097656 227.679688 Z M 240.097656 268.910156 "/>
<path style=" stroke:none;fill-rule:nonzero;fill:rgb(80%,69.803922%,96.078431%);fill-opacity:1;" d="M 288.515625 268.910156 L 334.101562 268.910156 L 334.101562 227.679688 L 288.515625 227.679688 Z M 288.515625 268.910156 "/>
<path style=" stroke:none;fill-rule:nonzero;fill:rgb(100%,53.333333%,41.568627%);fill-opacity:1;" d="M 336.933594 268.910156 L 382.519531 268.910156 L 382.519531 227.679688 L 336.933594 227.679688 Z M 336.933594 268.910156 "/>
<path style=" stroke:none;fill-rule:nonzero;fill:rgb(88.235294%,83.921569%,94.509804%);fill-opacity:1;" d="M 46.417969 312.976562 L 92.003906 312.976562 L 92.003906 271.746094 L 46.417969 271.746094 Z M 46.417969 312.976562 "/>
<g style="fill:rgb(0%,0%,0%);fill-opacity:1;">
  <use xlink:href="#glyph0-1" x="54.210938" y="295.649414"/>
  <use xlink:href="#glyph0-2" x="57.210938" y="295.649414"/>
  <use xlink:href="#glyph0-3" x="63.210938" y="295.649414"/>
  <use xlink:href="#glyph0-2" x="66.210938" y="295.649414"/>
  <use xlink:href="#glyph0-5" x="72.210938" y="295.649414"/>
  <use xlink:href="#glyph0-11" x="78.210938" y="295.649414"/>
</g>
<path style=" stroke:none;fill-rule:nonzero;fill:rgb(91.764706%,90.196078%,93.72549%);fill-opacity:1;" d="M 94.835938 312.976562 L 140.421875 312.976562 L 140.421875 271.746094 L 94.835938 271.746094 Z M 94.835938 312.976562 "/>
<path style=" stroke:none;fill-rule:nonzero;fill:rgb(96.862745%,87.058824%,84.705882%);fill-opacity:1;" d="M 143.257812 312.976562 L 188.84375 312.976562 L 188.84375 271.746094 L 143.257812 271.746094 Z M 143.257812 312.976562 "/>
<path style=" stroke:none;fill-rule:nonzero;fill:rgb(93.333333%,92.941176%,93.333333%);fill-opacity:1;" d="M 191.675781 312.976562 L 237.261719 312.976562 L 237.261719 271.746094 L 191.675781 271.746094 Z M 191.675781 312.976562 "/>
<path style=" stroke:none;fill-rule:nonzero;fill:rgb(89.411765%,85.490196%,94.509804%);fill-opacity:1;" d="M 240.097656 312.976562 L 285.683594 312.976562 L 285.683594 271.746094 L 240.097656 271.746094 Z M 240.097656 312.976562 "/>
<path style=" stroke:none;fill-rule:nonzero;fill:rgb(94.901961%,90.980392%,89.803922%);fill-opacity:1;" d="M 288.515625 312.976562 L 334.101562 312.976562 L 334.101562 271.746094 L 288.515625 271.746094 Z M 288.515625 312.976562 "/>
<path style=" stroke:none;fill-rule:nonzero;fill:rgb(91.764706%,90.588235%,93.72549%);fill-opacity:1;" d="M 336.933594 312.976562 L 382.519531 312.976562 L 382.519531 271.746094 L 336.933594 271.746094 Z M 336.933594 312.976562 "/>
<path style=" stroke:none;fill-rule:nonzero;fill:rgb(100%,75.686275%,69.019608%);fill-opacity:1;" d="M 46.417969 357.042969 L 92.003906 357.042969 L 92.003906 315.8125 L 46.417969 315.8125 Z M 46.417969 357.042969 "/>
<path style=" stroke:none;fill-rule:nonzero;fill:rgb(56.078431%,38.823529%,98.823529%);fill-opacity:1;" d="M 94.835938 357.042969 L 140.421875 357.042969 L 140.421875 315.8125 L 94.835938 315.8125 Z M 94.835938 357.042969 "/>
<g style="fill:rgb(0%,0%,0%);fill-opacity:1;">
  <use xlink:href="#glyph0-1" x="102.628906" y="339.71582"/>
  <use xlink:href="#glyph0-2" x="105.628906" y="339.71582"/>
  <use xlink:href="#glyph0-3" x="111.628906" y="339.71582"/>
  <use xlink:href="#glyph0-11" x="114.628906" y="339.71582"/>
  <use xlink:href="#glyph0-8" x="120.628906" y="339.71582"/>
  <use xlink:href="#glyph0-2" x="126.628906" y="339.71582"/>
</g>
<path style=" stroke:none;fill-rule:nonzero;fill:rgb(93.333333%,93.333333%,93.333333%);fill-opacity:1;" d="M 143.257812 357.042969 L 188.84375 357.042969 L 188.84375 315.8125 L 143.257812 315.8125 Z M 143.257812 357.042969 "/>
<path style=" stroke:none;fill-rule:nonzero;fill:rgb(100%,56.470588%,45.098039%);fill-opacity:1;" d="M 191.675781 357.042969 L 237.261719 357.042969 L 237.261719 315.8125 L 191.675781 315.8125 Z M 191.675781 357.042969 "/>
<path style=" stroke:none;fill-rule:nonzero;fill:rgb(100%,63.137255%,52.941176%);fill-opacity:1;" d="M 240.097656 357.042969 L 285.683594 357.042969 L 285.683594 315.8125 L 240.097656 315.8125 Z M 240.097656 357.042969 "/>
<path style=" stroke:none;fill-rule:nonzero;fill:rgb(77.254902%,65.882353%,96.470588%);fill-opacity:1;" d="M 288.515625 357.042969 L 334.101562 357.042969 L 334.101562 315.8125 L 288.515625 315.8125 Z M 288.515625 357.042969 "/>
<path style=" stroke:none;fill-rule:nonzero;fill:rgb(72.54902%,59.215686%,97.254902%);fill-opacity:1;" d="M 336.933594 357.042969 L 382.519531 357.042969 L 382.519531 315.8125 L 336.933594 315.8125 Z M 336.933594 357.042969 "/>
<g style="fill:rgb(0%,0%,0%);fill-opacity:1;">
  <use xlink:href="#glyph1-1" x="62.710938" y="23.102539"/>
</g>
<g style="fill:rgb(0%,0%,0%);fill-opacity:1;">
  <use xlink:href="#glyph1-2" x="63.710938" y="16.102539"/>
</g>
<g style="fill:rgb(0%,0%,0%);fill-opacity:1;">
  <use xlink:href="#glyph2-1" x="70.710938" y="25.665039"/>
</g>
<g style="fill:rgb(0%,0%,0%);fill-opacity:1;">
  <use xlink:href="#glyph1-1" x="111.128906" y="23.102539"/>
</g>
<g style="fill:rgb(0%,0%,0%);fill-opacity:1;">
  <use xlink:href="#glyph1-2" x="112.128906" y="16.102539"/>
</g>
<g style="fill:rgb(0%,0%,0%);fill-opacity:1;">
  <use xlink:href="#glyph2-2" x="119.128906" y="25.665039"/>
</g>
<g style="fill:rgb(0%,0%,0%);fill-opacity:1;">
  <use xlink:href="#glyph1-1" x="159.550781" y="22.102539"/>
</g>
<g style="fill:rgb(0%,0%,0%);fill-opacity:1;">
  <use xlink:href="#glyph1-2" x="160.550781" y="15.102539"/>
</g>
<g style="fill:rgb(0%,0%,0%);fill-opacity:1;">
  <use xlink:href="#glyph2-3" x="167.550781" y="24.665039"/>
</g>
<g style="fill:rgb(0%,0%,0%);fill-opacity:1;">
  <use xlink:href="#glyph1-1" x="207.96875" y="23.102539"/>
</g>
<g style="fill:rgb(0%,0%,0%);fill-opacity:1;">
  <use xlink:href="#glyph1-2" x="208.96875" y="16.102539"/>
</g>
<g style="fill:rgb(0%,0%,0%);fill-opacity:1;">
  <use xlink:href="#glyph2-4" x="215.96875" y="25.665039"/>
</g>
<g style="fill:rgb(0%,0%,0%);fill-opacity:1;">
  <use xlink:href="#glyph1-1" x="256.386719" y="22.102539"/>
</g>
<g style="fill:rgb(0%,0%,0%);fill-opacity:1;">
  <use xlink:href="#glyph1-2" x="257.386719" y="15.102539"/>
</g>
<g style="fill:rgb(0%,0%,0%);fill-opacity:1;">
  <use xlink:href="#glyph2-5" x="264.386719" y="24.665039"/>
</g>
<g style="fill:rgb(0%,0%,0%);fill-opacity:1;">
  <use xlink:href="#glyph1-1" x="304.808594" y="22.102539"/>
</g>
<g style="fill:rgb(0%,0%,0%);fill-opacity:1;">
  <use xlink:href="#glyph1-2" x="305.808594" y="15.102539"/>
</g>
<g style="fill:rgb(0%,0%,0%);fill-opacity:1;">
  <use xlink:href="#glyph2-6" x="312.808594" y="24.665039"/>
</g>
<g style="fill:rgb(0%,0%,0%);fill-opacity:1;">
  <use xlink:href="#glyph1-1" x="353.226562" y="23.102539"/>
</g>
<g style="fill:rgb(0%,0%,0%);fill-opacity:1;">
  <use xlink:href="#glyph1-2" x="354.226562" y="16.102539"/>
</g>
<g style="fill:rgb(0%,0%,0%);fill-opacity:1;">
  <use xlink:href="#glyph2-7" x="361.226562" y="25.665039"/>
</g>
<g style="fill:rgb(0%,0%,0%);fill-opacity:1;">
  <use xlink:href="#glyph3-1" x="18.102539" y="87.03125"/>
</g>
<g style="fill:rgb(0%,0%,0%);fill-opacity:1;">
  <use xlink:href="#glyph3-2" x="18.102539" y="79.03125"/>
</g>
<g style="fill:rgb(0%,0%,0%);fill-opacity:1;">
  <use xlink:href="#glyph3-3" x="18.102539" y="71.03125"/>
</g>
<g style="fill:rgb(0%,0%,0%);fill-opacity:1;">
  <use xlink:href="#glyph4-1" x="20.665039" y="62.03125"/>
</g>
<g style="fill:rgb(0%,0%,0%);fill-opacity:1;">
  <use xlink:href="#glyph3-1" x="18.102539" y="131.097656"/>
</g>
<g style="fill:rgb(0%,0%,0%);fill-opacity:1;">
  <use xlink:href="#glyph3-2" x="18.102539" y="123.097656"/>
</g>
<g style="fill:rgb(0%,0%,0%);fill-opacity:1;">
  <use xlink:href="#glyph3-3" x="18.102539" y="115.097656"/>
</g>
<g style="fill:rgb(0%,0%,0%);fill-opacity:1;">
  <use xlink:href="#glyph4-2" x="20.665039" y="106.097656"/>
</g>
<g style="fill:rgb(0%,0%,0%);fill-opacity:1;">
  <use xlink:href="#glyph3-1" x="17.102539" y="175.164062"/>
</g>
<g style="fill:rgb(0%,0%,0%);fill-opacity:1;">
  <use xlink:href="#glyph3-2" x="17.102539" y="167.164062"/>
</g>
<g style="fill:rgb(0%,0%,0%);fill-opacity:1;">
  <use xlink:href="#glyph3-3" x="17.102539" y="159.164062"/>
</g>
<g style="fill:rgb(0%,0%,0%);fill-opacity:1;">
  <use xlink:href="#glyph4-3" x="19.665039" y="150.164062"/>
</g>
<g style="fill:rgb(0%,0%,0%);fill-opacity:1;">
  <use xlink:href="#glyph3-1" x="18.102539" y="219.230469"/>
</g>
<g style="fill:rgb(0%,0%,0%);fill-opacity:1;">
  <use xlink:href="#glyph3-2" x="18.102539" y="211.230469"/>
</g>
<g style="fill:rgb(0%,0%,0%);fill-opacity:1;">
  <use xlink:href="#glyph3-3" x="18.102539" y="203.230469"/>
</g>
<g style="fill:rgb(0%,0%,0%);fill-opacity:1;">
  <use xlink:href="#glyph4-4" x="20.665039" y="194.230469"/>
</g>
<g style="fill:rgb(0%,0%,0%);fill-opacity:1;">
  <use xlink:href="#glyph3-1" x="17.102539" y="263.292969"/>
</g>
<g style="fill:rgb(0%,0%,0%);fill-opacity:1;">
  <use xlink:href="#glyph3-2" x="17.102539" y="255.292969"/>
</g>
<g style="fill:rgb(0%,0%,0%);fill-opacity:1;">
  <use xlink:href="#glyph3-3" x="17.102539" y="247.292969"/>
</g>
<g style="fill:rgb(0%,0%,0%);fill-opacity:1;">
  <use xlink:href="#glyph4-5" x="19.665039" y="238.292969"/>
</g>
<g style="fill:rgb(0%,0%,0%);fill-opacity:1;">
  <use xlink:href="#glyph3-1" x="17.102539" y="307.359375"/>
</g>
<g style="fill:rgb(0%,0%,0%);fill-opacity:1;">
  <use xlink:href="#glyph3-2" x="17.102539" y="299.359375"/>
</g>
<g style="fill:rgb(0%,0%,0%);fill-opacity:1;">
  <use xlink:href="#glyph3-3" x="17.102539" y="291.359375"/>
</g>
<g style="fill:rgb(0%,0%,0%);fill-opacity:1;">
  <use xlink:href="#glyph4-6" x="19.665039" y="282.359375"/>
</g>
<g style="fill:rgb(0%,0%,0%);fill-opacity:1;">
  <use xlink:href="#glyph3-1" x="15.102539" y="360.925781"/>
</g>
<g style="fill:rgb(0%,0%,0%);fill-opacity:1;">
  <use xlink:href="#glyph3-2" x="15.102539" y="352.925781"/>
</g>
<g style="fill:rgb(0%,0%,0%);fill-opacity:1;">
  <use xlink:href="#glyph3-3" x="15.102539" y="344.925781"/>
</g>
<g style="fill:rgb(0%,0%,0%);fill-opacity:1;">
  <use xlink:href="#glyph4-7" x="17.665039" y="335.925781"/>
</g>
<g style="fill:rgb(0%,0%,0%);fill-opacity:1;">
  <use xlink:href="#glyph4-8" x="17.665039" y="330.925781"/>
</g>
<g style="fill:rgb(0%,0%,0%);fill-opacity:1;">
  <use xlink:href="#glyph4-9" x="17.665039" y="328.925781"/>
</g>
<g style="fill:rgb(0%,0%,0%);fill-opacity:1;">
  <use xlink:href="#glyph4-10" x="17.665039" y="323.925781"/>
</g>
<g style="fill:rgb(0%,0%,0%);fill-opacity:1;">
  <use xlink:href="#glyph4-11" x="17.665039" y="318.925781"/>
</g>
<g style="fill:rgb(0%,0%,0%);fill-opacity:1;">
  <use xlink:href="#glyph4-8" x="17.665039" y="313.925781"/>
</g>
<path style=" stroke:none;fill-rule:nonzero;fill:rgb(10.196078%,10.196078%,10.196078%);fill-opacity:1;" d="M 46.417969 48.582031 L 92.003906 48.582031 L 92.003906 34.410156 L 46.417969 34.410156 Z M 46.417969 48.582031 "/>
<path style=" stroke:none;fill-rule:nonzero;fill:rgb(14.901961%,14.901961%,14.901961%);fill-opacity:1;" d="M 94.835938 48.582031 L 140.421875 48.582031 L 140.421875 34.410156 L 94.835938 34.410156 Z M 94.835938 48.582031 "/>
<path style=" stroke:none;fill-rule:nonzero;fill:rgb(20%,20%,20%);fill-opacity:1;" d="M 143.257812 48.582031 L 188.84375 48.582031 L 188.84375 34.410156 L 143.257812 34.410156 Z M 143.257812 48.582031 "/>
<path style=" stroke:none;fill-rule:nonzero;fill:rgb(25.098039%,25.098039%,25.098039%);fill-opacity:1;" d="M 191.675781 48.582031 L 237.261719 48.582031 L 237.261719 34.410156 L 191.675781 34.410156 Z M 191.675781 48.582031 "/>
<path style=" stroke:none;fill-rule:nonzero;fill:rgb(30.196078%,30.196078%,30.196078%);fill-opacity:1;" d="M 240.097656 48.582031 L 285.683594 48.582031 L 285.683594 34.410156 L 240.097656 34.410156 Z M 240.097656 48.582031 "/>
<path style=" stroke:none;fill-rule:nonzero;fill:rgb(34.901961%,34.901961%,34.901961%);fill-opacity:1;" d="M 288.515625 48.582031 L 334.101562 48.582031 L 334.101562 34.410156 L 288.515625 34.410156 Z M 288.515625 48.582031 "/>
<path style=" stroke:none;fill-rule:nonzero;fill:rgb(49.803922%,49.803922%,49.803922%);fill-opacity:1;" d="M 336.933594 48.582031 L 382.519531 48.582031 L 382.519531 34.410156 L 336.933594 34.410156 Z M 336.933594 48.582031 "/>
<path style=" stroke:none;fill-rule:nonzero;fill:rgb(100%,100%,0%);fill-opacity:1;" d="M 29.410156 92.648438 L 43.582031 92.648438 L 43.582031 51.417969 L 29.410156 51.417969 Z M 29.410156 92.648438 "/>
<path style=" stroke:none;fill-rule:nonzero;fill:rgb(54.509804%,0%,54.509804%);fill-opacity:1;" d="M 29.410156 136.714844 L 43.582031 136.714844 L 43.582031 95.484375 L 29.410156 95.484375 Z M 29.410156 136.714844 "/>
<path style=" stroke:none;fill-rule:nonzero;fill:rgb(0%,100%,100%);fill-opacity:1;" d="M 29.410156 180.777344 L 43.582031 180.777344 L 43.582031 139.546875 L 29.410156 139.546875 Z M 29.410156 180.777344 "/>
<path style=" stroke:none;fill-rule:nonzero;fill:rgb(80.392157%,0%,0%);fill-opacity:1;" d="M 29.410156 224.84375 L 43.582031 224.84375 L 43.582031 183.613281 L 29.410156 183.613281 Z M 29.410156 224.84375 "/>
<path style=" stroke:none;fill-rule:nonzero;fill:rgb(0%,80.392157%,0%);fill-opacity:1;" d="M 29.410156 268.910156 L 43.582031 268.910156 L 43.582031 227.679688 L 29.410156 227.679688 Z M 29.410156 268.910156 "/>
<path style=" stroke:none;fill-rule:nonzero;fill:rgb(0%,0%,80.392157%);fill-opacity:1;" d="M 29.410156 312.976562 L 43.582031 312.976562 L 43.582031 271.746094 L 29.410156 271.746094 Z M 29.410156 312.976562 "/>
<path style=" stroke:none;fill-rule:nonzero;fill:rgb(49.803922%,49.803922%,49.803922%);fill-opacity:1;" d="M 29.410156 357.042969 L 43.582031 357.042969 L 43.582031 315.8125 L 29.410156 315.8125 Z M 29.410156 357.042969 "/>
<g style="fill:rgb(0%,0%,0%);fill-opacity:1;">
  <use xlink:href="#glyph5-1" x="125.5" y="382.099609"/>
  <use xlink:href="#glyph5-2" x="136.5" y="382.099609"/>
  <use xlink:href="#glyph5-3" x="143.5" y="382.099609"/>
  <use xlink:href="#glyph5-4" x="160.5" y="382.099609"/>
  <use xlink:href="#glyph5-5" x="171.5" y="382.099609"/>
  <use xlink:href="#glyph5-6" x="181.5" y="382.099609"/>
  <use xlink:href="#glyph5-7" x="187.5" y="382.099609"/>
  <use xlink:href="#glyph5-6" x="199.5" y="382.099609"/>
  <use xlink:href="#glyph5-2" x="205.5" y="382.099609"/>
  <use xlink:href="#glyph5-8" x="212.5" y="382.099609"/>
  <use xlink:href="#glyph5-9" x="223.5" y="382.099609"/>
  <use xlink:href="#glyph5-8" x="229.5" y="382.099609"/>
  <use xlink:href="#glyph5-10" x="240.5" y="382.099609"/>
  <use xlink:href="#glyph5-11" x="251.5" y="382.099609"/>
</g>
</g>
</svg>
