<?xml version="1.0" encoding="UTF-8"?>
<svg xmlns="http://www.w3.org/2000/svg" xmlns:xlink="http://www.w3.org/1999/xlink" width="417pt" height="417pt" viewBox="0 0 417 417" version="1.1">
<defs>
<g>
<symbol overflow="visible" id="glyph0-0">
<path style="stroke:none;" d=""/>
</symbol>
<symbol overflow="visible" id="glyph0-1">
<path style="stroke:none;" d="M 6.96875 -8.75 L 0.671875 -8.75 L 0.671875 -7.765625 L 5.59375 -7.765625 L 0.34375 -0.984375 L 0.34375 0 L 7 0 L 7 -0.984375 L 1.734375 -0.984375 L 6.96875 -7.734375 Z M 6.96875 -8.75 "/>
</symbol>
<symbol overflow="visible" id="glyph0-2">
<path style="stroke:none;" d="M 2.359375 -8.515625 L 0.53125 -3.953125 L 1.359375 -3.953125 L 2.8125 -7.546875 L 4.265625 -3.953125 L 5.09375 -3.953125 L 3.234375 -8.515625 Z M 2.359375 -8.515625 "/>
</symbol>
<symbol overflow="visible" id="glyph1-0">
<path style="stroke:none;" d=""/>
</symbol>
<symbol overflow="visible" id="glyph1-1">
<path style="stroke:none;" d="M 2.171875 -4.328125 L 2.171875 0 L 2.921875 0 L 2.921875 -6.078125 L 2.421875 -6.078125 C 2.171875 -5.140625 2 -5.015625 0.859375 -4.859375 L 0.859375 -4.328125 Z M 2.171875 -4.328125 "/>
</symbol>
<symbol overflow="visible" id="glyph1-2">
<path style="stroke:none;" d="M 4.25 -0.734375 L 1.125 -0.734375 C 1.1875 -1.234375 1.46875 -1.5625 2.1875 -2 L 3.03125 -2.46875 C 3.859375 -2.9375 4.296875 -3.5625 4.296875 -4.296875 C 4.296875 -4.8125 4.09375 -5.28125 3.734375 -5.609375 C 3.390625 -5.921875 2.953125 -6.078125 2.390625 -6.078125 C 1.625 -6.078125 1.0625 -5.8125 0.734375 -5.28125 C 0.53125 -4.96875 0.4375 -4.59375 0.421875 -3.96875 L 1.15625 -3.96875 C 1.1875 -4.390625 1.234375 -4.625 1.34375 -4.828125 C 1.53125 -5.203125 1.921875 -5.4375 2.359375 -5.4375 C 3.03125 -5.4375 3.53125 -4.9375 3.53125 -4.28125 C 3.53125 -3.796875 3.265625 -3.375 2.734375 -3.078125 L 1.953125 -2.625 C 0.71875 -1.90625 0.359375 -1.34375 0.28125 -0.015625 L 4.25 -0.015625 Z M 4.25 -0.734375 "/>
</symbol>
<symbol overflow="visible" id="glyph1-3">
<path style="stroke:none;" d="M 1.859375 -2.796875 L 2.265625 -2.796875 C 3.0625 -2.796875 3.5 -2.421875 3.5 -1.6875 C 3.5 -0.921875 3.03125 -0.46875 2.265625 -0.46875 C 1.453125 -0.46875 1.0625 -0.875 1.015625 -1.765625 L 0.265625 -1.765625 C 0.296875 -1.28125 0.390625 -0.953125 0.53125 -0.6875 C 0.84375 -0.09375 1.421875 0.1875 2.234375 0.1875 C 3.46875 0.1875 4.25 -0.546875 4.25 -1.703125 C 4.25 -2.46875 3.953125 -2.890625 3.25 -3.140625 C 3.796875 -3.375 4.078125 -3.796875 4.078125 -4.40625 C 4.078125 -5.453125 3.390625 -6.078125 2.265625 -6.078125 C 1.0625 -6.078125 0.421875 -5.40625 0.390625 -4.125 L 1.140625 -4.125 C 1.140625 -4.484375 1.171875 -4.703125 1.265625 -4.890625 C 1.4375 -5.234375 1.8125 -5.4375 2.265625 -5.4375 C 2.921875 -5.4375 3.328125 -5.03125 3.328125 -4.375 C 3.328125 -3.953125 3.171875 -3.6875 2.84375 -3.546875 C 2.640625 -3.46875 2.375 -3.4375 1.859375 -3.421875 Z M 1.859375 -2.796875 "/>
</symbol>
<symbol overflow="visible" id="glyph1-4">
<path style="stroke:none;" d="M 2.75 -1.46875 L 2.75 0 L 3.484375 0 L 3.484375 -1.46875 L 4.375 -1.46875 L 4.375 -2.140625 L 3.484375 -2.140625 L 3.484375 -6.078125 L 2.9375 -6.078125 L 0.234375 -2.25 L 0.234375 -1.46875 Z M 2.75 -2.140625 L 0.875 -2.140625 L 2.75 -4.8125 Z M 2.75 -2.140625 "/>
</symbol>
<symbol overflow="visible" id="glyph1-5">
<path style="stroke:none;" d="M 4 -5.953125 L 0.921875 -5.953125 L 0.484375 -2.71875 L 1.15625 -2.71875 C 1.5 -3.125 1.796875 -3.265625 2.265625 -3.265625 C 3.0625 -3.265625 3.5625 -2.71875 3.5625 -1.84375 C 3.5625 -0.984375 3.0625 -0.46875 2.25 -0.46875 C 1.609375 -0.46875 1.203125 -0.796875 1.03125 -1.46875 L 0.296875 -1.46875 C 0.390625 -0.96875 0.484375 -0.734375 0.65625 -0.515625 C 0.984375 -0.0625 1.59375 0.1875 2.265625 0.1875 C 3.46875 0.1875 4.3125 -0.6875 4.3125 -1.9375 C 4.3125 -3.125 3.53125 -3.921875 2.390625 -3.921875 C 1.96875 -3.921875 1.625 -3.8125 1.28125 -3.5625 L 1.515625 -5.234375 L 4 -5.234375 Z M 4 -5.953125 "/>
</symbol>
<symbol overflow="visible" id="glyph1-6">
<path style="stroke:none;" d="M 4.1875 -4.5 C 4.046875 -5.484375 3.40625 -6.078125 2.5 -6.078125 C 1.84375 -6.078125 1.25 -5.765625 0.90625 -5.21875 C 0.515625 -4.609375 0.359375 -3.875 0.359375 -2.78125 C 0.359375 -1.75 0.5 -1.09375 0.859375 -0.5625 C 1.1875 -0.0625 1.703125 0.1875 2.359375 0.1875 C 3.5 0.1875 4.3125 -0.65625 4.3125 -1.84375 C 4.3125 -2.953125 3.5625 -3.75 2.484375 -3.75 C 1.90625 -3.75 1.4375 -3.53125 1.125 -3.078125 C 1.125 -4.59375 1.59375 -5.421875 2.453125 -5.421875 C 2.96875 -5.421875 3.328125 -5.078125 3.453125 -4.5 Z M 2.390625 -3.09375 C 3.109375 -3.09375 3.5625 -2.59375 3.5625 -1.78125 C 3.5625 -1.015625 3.046875 -0.46875 2.375 -0.46875 C 1.6875 -0.46875 1.15625 -1.046875 1.15625 -1.8125 C 1.15625 -2.578125 1.671875 -3.09375 2.390625 -3.09375 Z M 2.390625 -3.09375 "/>
</symbol>
<symbol overflow="visible" id="glyph1-7">
<path style="stroke:none;" d="M 4.375 -5.953125 L 0.390625 -5.953125 L 0.390625 -5.234375 L 3.609375 -5.234375 C 2.1875 -3.203125 1.609375 -1.953125 1.15625 0 L 1.953125 0 C 2.28125 -1.90625 3.03125 -3.546875 4.375 -5.34375 Z M 4.375 -5.953125 "/>
</symbol>
<symbol overflow="visible" id="glyph1-8">
<path style="stroke:none;" d="M 3.28125 -3.203125 C 3.90625 -3.578125 4.109375 -3.890625 4.109375 -4.453125 C 4.109375 -5.40625 3.375 -6.078125 2.3125 -6.078125 C 1.265625 -6.078125 0.515625 -5.40625 0.515625 -4.46875 C 0.515625 -3.890625 0.71875 -3.59375 1.328125 -3.203125 C 0.640625 -2.859375 0.3125 -2.359375 0.3125 -1.6875 C 0.3125 -0.578125 1.125 0.1875 2.3125 0.1875 C 3.484375 0.1875 4.3125 -0.578125 4.3125 -1.6875 C 4.3125 -2.359375 3.96875 -2.859375 3.28125 -3.203125 Z M 2.3125 -5.421875 C 2.9375 -5.421875 3.34375 -5.046875 3.34375 -4.4375 C 3.34375 -3.859375 2.9375 -3.484375 2.3125 -3.484375 C 1.6875 -3.484375 1.28125 -3.859375 1.28125 -4.453125 C 1.28125 -5.046875 1.6875 -5.421875 2.3125 -5.421875 Z M 2.3125 -2.859375 C 3.046875 -2.859375 3.5625 -2.375 3.5625 -1.671875 C 3.5625 -0.9375 3.0625 -0.46875 2.296875 -0.46875 C 1.578125 -0.46875 1.0625 -0.953125 1.0625 -1.671875 C 1.0625 -2.390625 1.5625 -2.859375 2.3125 -2.859375 Z M 2.3125 -2.859375 "/>
</symbol>
<symbol overflow="visible" id="glyph1-9">
<path style="stroke:none;" d="M 0.453125 -1.390625 C 0.59375 -0.390625 1.234375 0.1875 2.140625 0.1875 C 2.796875 0.1875 3.390625 -0.125 3.734375 -0.671875 C 4.109375 -1.265625 4.28125 -2.015625 4.28125 -3.109375 C 4.28125 -4.140625 4.125 -4.78125 3.78125 -5.328125 C 3.453125 -5.8125 2.921875 -6.078125 2.265625 -6.078125 C 1.140625 -6.078125 0.3125 -5.234375 0.3125 -4.046875 C 0.3125 -2.9375 1.078125 -2.140625 2.15625 -2.140625 C 2.71875 -2.140625 3.140625 -2.34375 3.515625 -2.8125 C 3.5 -1.296875 3.03125 -0.46875 2.1875 -0.46875 C 1.671875 -0.46875 1.296875 -0.796875 1.1875 -1.390625 Z M 2.265625 -5.4375 C 2.953125 -5.4375 3.46875 -4.84375 3.46875 -4.0625 C 3.46875 -3.328125 2.96875 -2.796875 2.234375 -2.796875 C 1.515625 -2.796875 1.078125 -3.296875 1.078125 -4.109375 C 1.078125 -4.875 1.578125 -5.4375 2.265625 -5.4375 Z M 2.265625 -5.4375 "/>
</symbol>
<symbol overflow="visible" id="glyph1-10">
<path style="stroke:none;" d="M 5.953125 -3.234375 L 3.40625 -3.234375 L 3.40625 -2.546875 L 5.265625 -2.546875 L 5.265625 -2.375 C 5.265625 -1.28125 4.46875 -0.5 3.34375 -0.5 C 2.71875 -0.5 2.15625 -0.71875 1.796875 -1.125 C 1.390625 -1.5625 1.15625 -2.28125 1.15625 -3.046875 C 1.15625 -4.546875 2.015625 -5.546875 3.296875 -5.546875 C 4.234375 -5.546875 4.90625 -5.0625 5.078125 -4.265625 L 5.875 -4.265625 C 5.65625 -5.515625 4.71875 -6.234375 3.3125 -6.234375 C 2.5625 -6.234375 1.953125 -6.03125 1.484375 -5.640625 C 0.765625 -5.046875 0.375 -4.109375 0.375 -3 C 0.375 -1.125 1.515625 0.1875 3.171875 0.1875 C 4.015625 0.1875 4.671875 -0.125 5.265625 -0.78125 L 5.46875 0.03125 L 5.953125 0.03125 Z M 5.953125 -3.234375 "/>
</symbol>
<symbol overflow="visible" id="glyph1-11">
<path style="stroke:none;" d="M 1.28125 -6.125 L 0.578125 -6.125 L 0.578125 0 L 1.28125 0 Z M 1.28125 -6.125 "/>
</symbol>
<symbol overflow="visible" id="glyph1-12">
<path style="stroke:none;" d="M 2.28125 -4.53125 C 1.046875 -4.53125 0.296875 -3.640625 0.296875 -2.171875 C 0.296875 -0.6875 1.046875 0.1875 2.296875 0.1875 C 3.53125 0.1875 4.28125 -0.6875 4.28125 -2.140625 C 4.28125 -3.671875 3.5625 -4.53125 2.28125 -4.53125 Z M 2.296875 -3.890625 C 3.078125 -3.890625 3.5625 -3.234375 3.5625 -2.140625 C 3.5625 -1.09375 3.0625 -0.453125 2.296875 -0.453125 C 1.515625 -0.453125 1.03125 -1.09375 1.03125 -2.171875 C 1.03125 -3.234375 1.515625 -3.890625 2.296875 -3.890625 Z M 2.296875 -3.890625 "/>
</symbol>
<symbol overflow="visible" id="glyph1-13">
<path style="stroke:none;" d="M 0.453125 -6.125 L 0.453125 0 L 1.078125 0 L 1.078125 -0.5625 C 1.421875 -0.046875 1.859375 0.1875 2.484375 0.1875 C 3.640625 0.1875 4.390625 -0.75 4.390625 -2.21875 C 4.390625 -3.640625 3.6875 -4.53125 2.515625 -4.53125 C 1.90625 -4.53125 1.484375 -4.296875 1.15625 -3.8125 L 1.15625 -6.125 Z M 2.375 -3.875 C 3.15625 -3.875 3.671875 -3.1875 3.671875 -2.140625 C 3.671875 -1.140625 3.140625 -0.46875 2.375 -0.46875 C 1.625 -0.46875 1.15625 -1.140625 1.15625 -2.171875 C 1.15625 -3.203125 1.625 -3.875 2.375 -3.875 Z M 2.375 -3.875 "/>
</symbol>
<symbol overflow="visible" id="glyph1-14">
<path style="stroke:none;" d="M 4.5 -0.40625 C 4.421875 -0.390625 4.390625 -0.390625 4.34375 -0.390625 C 4.109375 -0.390625 3.96875 -0.515625 3.96875 -0.734375 L 3.96875 -3.328125 C 3.96875 -4.109375 3.390625 -4.53125 2.3125 -4.53125 C 1.671875 -4.53125 1.15625 -4.34375 0.84375 -4.015625 C 0.640625 -3.796875 0.5625 -3.53125 0.546875 -3.109375 L 1.25 -3.109375 C 1.3125 -3.640625 1.625 -3.890625 2.28125 -3.890625 C 2.921875 -3.890625 3.265625 -3.640625 3.265625 -3.234375 L 3.265625 -3.046875 C 3.265625 -2.734375 3.109375 -2.625 2.53125 -2.5625 C 1.546875 -2.421875 1.390625 -2.390625 1.125 -2.28125 C 0.609375 -2.0625 0.359375 -1.6875 0.359375 -1.109375 C 0.359375 -0.3125 0.90625 0.1875 1.796875 0.1875 C 2.359375 0.1875 2.796875 0 3.296875 -0.453125 C 3.34375 0 3.5625 0.1875 4.015625 0.1875 C 4.171875 0.1875 4.265625 0.171875 4.5 0.125 Z M 3.265625 -1.390625 C 3.265625 -1.15625 3.203125 -1.015625 3 -0.8125 C 2.703125 -0.5625 2.359375 -0.421875 1.953125 -0.421875 C 1.40625 -0.421875 1.078125 -0.6875 1.078125 -1.125 C 1.078125 -1.59375 1.390625 -1.828125 2.140625 -1.9375 C 2.890625 -2.03125 3.03125 -2.0625 3.265625 -2.171875 Z M 3.265625 -1.390625 "/>
</symbol>
</g>
</defs>
<g id="surface129">
<rect x="0" y="0" width="417" height="417" style="fill:rgb(100%,100%,100%);fill-opacity:1;stroke:none;"/>
<path style="fill:none;stroke-width:1.235567;stroke-linecap:round;stroke-linejoin:round;stroke:rgb(10.196078%,10.196078%,100%);stroke-opacity:0.160784;stroke-miterlimit:10;" d="M 139.964844 103.726562 L 305.835938 103.726562 "/>
<path style="fill:none;stroke-width:0.839062;stroke-linecap:round;stroke-linejoin:round;stroke:rgb(100%,10.196078%,10.196078%);stroke-opacity:0.0313725;stroke-miterlimit:10;" d="M 139.964844 126.292969 L 305.835938 105.558594 "/>
<path style="fill:none;stroke-width:0.956504;stroke-linecap:round;stroke-linejoin:round;stroke:rgb(10.196078%,10.196078%,100%);stroke-opacity:0.0705882;stroke-miterlimit:10;" d="M 139.964844 148.855469 L 305.835938 107.386719 "/>
<path style="fill:none;stroke-width:2.310375;stroke-linecap:round;stroke-linejoin:round;stroke:rgb(10.196078%,10.196078%,100%);stroke-opacity:0.521569;stroke-miterlimit:10;" d="M 139.964844 171.417969 L 305.835938 109.214844 "/>
<path style="fill:none;stroke-width:1.904518;stroke-linecap:round;stroke-linejoin:round;stroke:rgb(10.196078%,10.196078%,100%);stroke-opacity:0.384314;stroke-miterlimit:10;" d="M 139.964844 193.980469 L 305.835938 111.046875 "/>
<path style="fill:none;stroke-width:2.564819;stroke-linecap:round;stroke-linejoin:round;stroke:rgb(10.196078%,10.196078%,100%);stroke-opacity:0.603922;stroke-miterlimit:10;" d="M 139.964844 239.109375 L 305.835938 114.703125 "/>
<path style="fill:none;stroke-width:2.005409;stroke-linecap:round;stroke-linejoin:round;stroke:rgb(10.196078%,10.196078%,100%);stroke-opacity:0.419608;stroke-miterlimit:10;" d="M 139.964844 261.671875 L 305.835938 116.535156 "/>
<path style="fill:none;stroke-width:1.750928;stroke-linecap:round;stroke-linejoin:round;stroke:rgb(100%,10.196078%,10.196078%);stroke-opacity:0.333333;stroke-miterlimit:10;" d="M 139.964844 284.234375 L 305.835938 118.363281 "/>
<path style="fill:none;stroke-width:2.158392;stroke-linecap:round;stroke-linejoin:round;stroke:rgb(10.196078%,10.196078%,100%);stroke-opacity:0.470588;stroke-miterlimit:10;" d="M 139.964844 105.558594 L 305.835938 126.292969 "/>
<path style="fill:none;stroke-width:2.53643;stroke-linecap:round;stroke-linejoin:round;stroke:rgb(10.196078%,10.196078%,100%);stroke-opacity:0.596078;stroke-miterlimit:10;" d="M 139.964844 128.121094 L 305.835938 128.121094 "/>
<path style="fill:none;stroke-width:1.057616;stroke-linecap:round;stroke-linejoin:round;stroke:rgb(10.196078%,10.196078%,100%);stroke-opacity:0.101961;stroke-miterlimit:10;" d="M 139.964844 150.683594 L 305.835938 129.949219 "/>
<path style="fill:none;stroke-width:2.003078;stroke-linecap:round;stroke-linejoin:round;stroke:rgb(100%,10.196078%,10.196078%);stroke-opacity:0.419608;stroke-miterlimit:10;" d="M 139.964844 173.246094 L 305.835938 131.78125 "/>
<path style="fill:none;stroke-width:3.75;stroke-linecap:round;stroke-linejoin:round;stroke:rgb(100%,10.196078%,10.196078%);stroke-opacity:1;stroke-miterlimit:10;" d="M 139.964844 195.8125 L 305.835938 133.609375 "/>
<path style="fill:none;stroke-width:0.981132;stroke-linecap:round;stroke-linejoin:round;stroke:rgb(10.196078%,10.196078%,100%);stroke-opacity:0.0784314;stroke-miterlimit:10;" d="M 139.964844 218.375 L 305.835938 135.4375 "/>
<path style="fill:none;stroke-width:2.149812;stroke-linecap:round;stroke-linejoin:round;stroke:rgb(100%,10.196078%,10.196078%);stroke-opacity:0.466667;stroke-miterlimit:10;" d="M 139.964844 240.9375 L 305.835938 137.269531 "/>
<path style="fill:none;stroke-width:2.305164;stroke-linecap:round;stroke-linejoin:round;stroke:rgb(100%,10.196078%,10.196078%);stroke-opacity:0.517647;stroke-miterlimit:10;" d="M 139.964844 263.503906 L 305.835938 139.097656 "/>
<path style="fill:none;stroke-width:1.027554;stroke-linecap:round;stroke-linejoin:round;stroke:rgb(100%,10.196078%,10.196078%);stroke-opacity:0.0941176;stroke-miterlimit:10;" d="M 139.964844 286.066406 L 305.835938 140.925781 "/>
<path style="fill:none;stroke-width:1.213637;stroke-linecap:round;stroke-linejoin:round;stroke:rgb(100%,10.196078%,10.196078%);stroke-opacity:0.152941;stroke-miterlimit:10;" d="M 139.964844 107.386719 L 305.835938 148.855469 "/>
<path style="fill:none;stroke-width:1.48353;stroke-linecap:round;stroke-linejoin:round;stroke:rgb(100%,10.196078%,10.196078%);stroke-opacity:0.243137;stroke-miterlimit:10;" d="M 139.964844 129.949219 L 305.835938 150.683594 "/>
<path style="fill:none;stroke-width:1.482529;stroke-linecap:round;stroke-linejoin:round;stroke:rgb(10.196078%,10.196078%,100%);stroke-opacity:0.243137;stroke-miterlimit:10;" d="M 139.964844 152.515625 L 305.835938 152.515625 "/>
<path style="fill:none;stroke-width:1.002762;stroke-linecap:round;stroke-linejoin:round;stroke:rgb(100%,10.196078%,10.196078%);stroke-opacity:0.0823529;stroke-miterlimit:10;" d="M 139.964844 175.078125 L 305.835938 154.34375 "/>
<path style="fill:none;stroke-width:2.737045;stroke-linecap:round;stroke-linejoin:round;stroke:rgb(10.196078%,10.196078%,100%);stroke-opacity:0.662745;stroke-miterlimit:10;" d="M 139.964844 197.640625 L 305.835938 156.171875 "/>
<path style="fill:none;stroke-width:1.79102;stroke-linecap:round;stroke-linejoin:round;stroke:rgb(100%,10.196078%,10.196078%);stroke-opacity:0.345098;stroke-miterlimit:10;" d="M 139.964844 220.203125 L 305.835938 158.003906 "/>
<path style="fill:none;stroke-width:1.644418;stroke-linecap:round;stroke-linejoin:round;stroke:rgb(10.196078%,10.196078%,100%);stroke-opacity:0.298039;stroke-miterlimit:10;" d="M 139.964844 242.769531 L 305.835938 159.832031 "/>
<path style="fill:none;stroke-width:0.984434;stroke-linecap:round;stroke-linejoin:round;stroke:rgb(10.196078%,10.196078%,100%);stroke-opacity:0.0784314;stroke-miterlimit:10;" d="M 139.964844 265.332031 L 305.835938 161.660156 "/>
<path style="fill:none;stroke-width:2.872391;stroke-linecap:round;stroke-linejoin:round;stroke:rgb(10.196078%,10.196078%,100%);stroke-opacity:0.705882;stroke-miterlimit:10;" d="M 139.964844 287.894531 L 305.835938 163.492188 "/>
<path style="fill:none;stroke-width:1.050339;stroke-linecap:round;stroke-linejoin:round;stroke:rgb(100%,10.196078%,10.196078%);stroke-opacity:0.101961;stroke-miterlimit:10;" d="M 139.964844 109.214844 L 305.835938 171.417969 "/>
<path style="fill:none;stroke-width:1.337205;stroke-linecap:round;stroke-linejoin:round;stroke:rgb(10.196078%,10.196078%,100%);stroke-opacity:0.196078;stroke-miterlimit:10;" d="M 139.964844 131.78125 L 305.835938 173.246094 "/>
<path style="fill:none;stroke-width:2.498887;stroke-linecap:round;stroke-linejoin:round;stroke:rgb(100%,10.196078%,10.196078%);stroke-opacity:0.584314;stroke-miterlimit:10;" d="M 139.964844 154.34375 L 305.835938 175.078125 "/>
<path style="fill:none;stroke-width:1.423714;stroke-linecap:round;stroke-linejoin:round;stroke:rgb(100%,10.196078%,10.196078%);stroke-opacity:0.223529;stroke-miterlimit:10;" d="M 139.964844 176.90625 L 305.835938 176.90625 "/>
<path style="fill:none;stroke-width:0.892242;stroke-linecap:round;stroke-linejoin:round;stroke:rgb(100%,10.196078%,10.196078%);stroke-opacity:0.0470588;stroke-miterlimit:10;" d="M 139.964844 199.46875 L 305.835938 178.738281 "/>
<path style="fill:none;stroke-width:1.71413;stroke-linecap:round;stroke-linejoin:round;stroke:rgb(10.196078%,10.196078%,100%);stroke-opacity:0.321569;stroke-miterlimit:10;" d="M 139.964844 222.035156 L 305.835938 180.566406 "/>
<path style="fill:none;stroke-width:3.061847;stroke-linecap:round;stroke-linejoin:round;stroke:rgb(100%,10.196078%,10.196078%);stroke-opacity:0.772549;stroke-miterlimit:10;" d="M 139.964844 244.597656 L 305.835938 182.394531 "/>
<path style="fill:none;stroke-width:1.043221;stroke-linecap:round;stroke-linejoin:round;stroke:rgb(10.196078%,10.196078%,100%);stroke-opacity:0.0980392;stroke-miterlimit:10;" d="M 139.964844 267.160156 L 305.835938 184.226562 "/>
<path style="fill:none;stroke-width:1.064461;stroke-linecap:round;stroke-linejoin:round;stroke:rgb(10.196078%,10.196078%,100%);stroke-opacity:0.105882;stroke-miterlimit:10;" d="M 139.964844 289.726562 L 305.835938 186.054688 "/>
<path style="fill:none;stroke-width:0.866685;stroke-linecap:round;stroke-linejoin:round;stroke:rgb(100%,10.196078%,10.196078%);stroke-opacity:0.0392157;stroke-miterlimit:10;" d="M 139.964844 111.046875 L 305.835938 193.980469 "/>
<path style="fill:none;stroke-width:1.510484;stroke-linecap:round;stroke-linejoin:round;stroke:rgb(100%,10.196078%,10.196078%);stroke-opacity:0.254902;stroke-miterlimit:10;" d="M 139.964844 133.609375 L 305.835938 195.8125 "/>
<path style="fill:none;stroke-width:1.446029;stroke-linecap:round;stroke-linejoin:round;stroke:rgb(100%,10.196078%,10.196078%);stroke-opacity:0.231373;stroke-miterlimit:10;" d="M 139.964844 156.171875 L 305.835938 197.640625 "/>
<path style="fill:none;stroke-width:1.005646;stroke-linecap:round;stroke-linejoin:round;stroke:rgb(10.196078%,10.196078%,100%);stroke-opacity:0.0862745;stroke-miterlimit:10;" d="M 139.964844 178.738281 L 305.835938 199.46875 "/>
<path style="fill:none;stroke-width:1.74372;stroke-linecap:round;stroke-linejoin:round;stroke:rgb(10.196078%,10.196078%,100%);stroke-opacity:0.329412;stroke-miterlimit:10;" d="M 139.964844 201.300781 L 305.835938 201.300781 "/>
<path style="fill:none;stroke-width:1.439511;stroke-linecap:round;stroke-linejoin:round;stroke:rgb(10.196078%,10.196078%,100%);stroke-opacity:0.231373;stroke-miterlimit:10;" d="M 139.964844 223.863281 L 305.835938 203.128906 "/>
<path style="fill:none;stroke-width:3.299049;stroke-linecap:round;stroke-linejoin:round;stroke:rgb(100%,10.196078%,10.196078%);stroke-opacity:0.85098;stroke-miterlimit:10;" d="M 139.964844 246.425781 L 305.835938 204.957031 "/>
<path style="fill:none;stroke-width:0.928169;stroke-linecap:round;stroke-linejoin:round;stroke:rgb(100%,10.196078%,10.196078%);stroke-opacity:0.0588235;stroke-miterlimit:10;" d="M 139.964844 291.554688 L 305.835938 208.617188 "/>
<path style="fill:none;stroke-width:1.62285;stroke-linecap:round;stroke-linejoin:round;stroke:rgb(100%,10.196078%,10.196078%);stroke-opacity:0.290196;stroke-miterlimit:10;" d="M 139.964844 112.875 L 305.835938 216.546875 "/>
<path style="fill:none;stroke-width:2.257267;stroke-linecap:round;stroke-linejoin:round;stroke:rgb(100%,10.196078%,10.196078%);stroke-opacity:0.501961;stroke-miterlimit:10;" d="M 139.964844 135.4375 L 305.835938 218.375 "/>
<path style="fill:none;stroke-width:1.478608;stroke-linecap:round;stroke-linejoin:round;stroke:rgb(100%,10.196078%,10.196078%);stroke-opacity:0.243137;stroke-miterlimit:10;" d="M 139.964844 158.003906 L 305.835938 220.203125 "/>
<path style="fill:none;stroke-width:1.917132;stroke-linecap:round;stroke-linejoin:round;stroke:rgb(100%,10.196078%,10.196078%);stroke-opacity:0.388235;stroke-miterlimit:10;" d="M 139.964844 180.566406 L 305.835938 222.035156 "/>
<path style="fill:none;stroke-width:1.240027;stroke-linecap:round;stroke-linejoin:round;stroke:rgb(10.196078%,10.196078%,100%);stroke-opacity:0.164706;stroke-miterlimit:10;" d="M 139.964844 203.128906 L 305.835938 223.863281 "/>
<path style="fill:none;stroke-width:2.695122;stroke-linecap:round;stroke-linejoin:round;stroke:rgb(10.196078%,10.196078%,100%);stroke-opacity:0.647059;stroke-miterlimit:10;" d="M 139.964844 225.691406 L 305.835938 225.691406 "/>
<path style="fill:none;stroke-width:1.485365;stroke-linecap:round;stroke-linejoin:round;stroke:rgb(100%,10.196078%,10.196078%);stroke-opacity:0.247059;stroke-miterlimit:10;" d="M 139.964844 248.257812 L 305.835938 227.523438 "/>
<path style="fill:none;stroke-width:1.111561;stroke-linecap:round;stroke-linejoin:round;stroke:rgb(100%,10.196078%,10.196078%);stroke-opacity:0.121569;stroke-miterlimit:10;" d="M 139.964844 270.820312 L 305.835938 229.351562 "/>
<path style="fill:none;stroke-width:1.820952;stroke-linecap:round;stroke-linejoin:round;stroke:rgb(10.196078%,10.196078%,100%);stroke-opacity:0.356863;stroke-miterlimit:10;" d="M 139.964844 293.382812 L 305.835938 231.179688 "/>
<path style="fill:none;stroke-width:2.11875;stroke-linecap:round;stroke-linejoin:round;stroke:rgb(100%,10.196078%,10.196078%);stroke-opacity:0.454902;stroke-miterlimit:10;" d="M 139.964844 114.703125 L 305.835938 239.109375 "/>
<path style="fill:none;stroke-width:2.008374;stroke-linecap:round;stroke-linejoin:round;stroke:rgb(100%,10.196078%,10.196078%);stroke-opacity:0.419608;stroke-miterlimit:10;" d="M 139.964844 137.269531 L 305.835938 240.9375 "/>
<path style="fill:none;stroke-width:1.401133;stroke-linecap:round;stroke-linejoin:round;stroke:rgb(100%,10.196078%,10.196078%);stroke-opacity:0.215686;stroke-miterlimit:10;" d="M 139.964844 159.832031 L 305.835938 242.769531 "/>
<path style="fill:none;stroke-width:1.035712;stroke-linecap:round;stroke-linejoin:round;stroke:rgb(100%,10.196078%,10.196078%);stroke-opacity:0.0941176;stroke-miterlimit:10;" d="M 139.964844 182.394531 L 305.835938 244.597656 "/>
<path style="fill:none;stroke-width:1.511448;stroke-linecap:round;stroke-linejoin:round;stroke:rgb(100%,10.196078%,10.196078%);stroke-opacity:0.254902;stroke-miterlimit:10;" d="M 139.964844 204.957031 L 305.835938 246.425781 "/>
<path style="fill:none;stroke-width:2.343673;stroke-linecap:round;stroke-linejoin:round;stroke:rgb(100%,10.196078%,10.196078%);stroke-opacity:0.529412;stroke-miterlimit:10;" d="M 139.964844 227.523438 L 305.835938 248.257812 "/>
<path style="fill:none;stroke-width:0.82312;stroke-linecap:round;stroke-linejoin:round;stroke:rgb(10.196078%,10.196078%,100%);stroke-opacity:0.0235294;stroke-miterlimit:10;" d="M 139.964844 250.085938 L 305.835938 250.085938 "/>
<path style="fill:none;stroke-width:1.441608;stroke-linecap:round;stroke-linejoin:round;stroke:rgb(100%,10.196078%,10.196078%);stroke-opacity:0.231373;stroke-miterlimit:10;" d="M 139.964844 272.648438 L 305.835938 251.914062 "/>
<path style="fill:none;stroke-width:1.99932;stroke-linecap:round;stroke-linejoin:round;stroke:rgb(10.196078%,10.196078%,100%);stroke-opacity:0.415686;stroke-miterlimit:10;" d="M 139.964844 295.214844 L 305.835938 253.746094 "/>
<path style="fill:none;stroke-width:2.016799;stroke-linecap:round;stroke-linejoin:round;stroke:rgb(10.196078%,10.196078%,100%);stroke-opacity:0.423529;stroke-miterlimit:10;" d="M 139.964844 116.535156 L 305.835938 261.671875 "/>
<path style="fill:none;stroke-width:1.689571;stroke-linecap:round;stroke-linejoin:round;stroke:rgb(10.196078%,10.196078%,100%);stroke-opacity:0.313725;stroke-miterlimit:10;" d="M 139.964844 139.097656 L 305.835938 263.503906 "/>
<path style="fill:none;stroke-width:1.031697;stroke-linecap:round;stroke-linejoin:round;stroke:rgb(10.196078%,10.196078%,100%);stroke-opacity:0.0941176;stroke-miterlimit:10;" d="M 139.964844 161.660156 L 305.835938 265.332031 "/>
<path style="fill:none;stroke-width:1.452171;stroke-linecap:round;stroke-linejoin:round;stroke:rgb(100%,10.196078%,10.196078%);stroke-opacity:0.235294;stroke-miterlimit:10;" d="M 139.964844 184.226562 L 305.835938 267.160156 "/>
<path style="fill:none;stroke-width:1.920375;stroke-linecap:round;stroke-linejoin:round;stroke:rgb(100%,10.196078%,10.196078%);stroke-opacity:0.388235;stroke-miterlimit:10;" d="M 139.964844 206.789062 L 305.835938 268.992188 "/>
<path style="fill:none;stroke-width:1.234086;stroke-linecap:round;stroke-linejoin:round;stroke:rgb(10.196078%,10.196078%,100%);stroke-opacity:0.160784;stroke-miterlimit:10;" d="M 139.964844 229.351562 L 305.835938 270.820312 "/>
<path style="fill:none;stroke-width:1.192578;stroke-linecap:round;stroke-linejoin:round;stroke:rgb(100%,10.196078%,10.196078%);stroke-opacity:0.14902;stroke-miterlimit:10;" d="M 139.964844 251.914062 L 305.835938 272.648438 "/>
<path style="fill:none;stroke-width:1.722405;stroke-linecap:round;stroke-linejoin:round;stroke:rgb(100%,10.196078%,10.196078%);stroke-opacity:0.32549;stroke-miterlimit:10;" d="M 139.964844 274.480469 L 305.835938 274.480469 "/>
<path style="fill:none;stroke-width:1.069505;stroke-linecap:round;stroke-linejoin:round;stroke:rgb(100%,10.196078%,10.196078%);stroke-opacity:0.105882;stroke-miterlimit:10;" d="M 139.964844 297.042969 L 305.835938 276.308594 "/>
<path style="fill:none;stroke-width:1.279285;stroke-linecap:round;stroke-linejoin:round;stroke:rgb(10.196078%,10.196078%,100%);stroke-opacity:0.176471;stroke-miterlimit:10;" d="M 139.964844 118.363281 L 305.835938 284.234375 "/>
<path style="fill:none;stroke-width:0.881974;stroke-linecap:round;stroke-linejoin:round;stroke:rgb(10.196078%,10.196078%,100%);stroke-opacity:0.0431373;stroke-miterlimit:10;" d="M 139.964844 140.925781 L 305.835938 286.066406 "/>
<path style="fill:none;stroke-width:1.364902;stroke-linecap:round;stroke-linejoin:round;stroke:rgb(100%,10.196078%,10.196078%);stroke-opacity:0.203922;stroke-miterlimit:10;" d="M 139.964844 163.492188 L 305.835938 287.894531 "/>
<path style="fill:none;stroke-width:1.602057;stroke-linecap:round;stroke-linejoin:round;stroke:rgb(100%,10.196078%,10.196078%);stroke-opacity:0.282353;stroke-miterlimit:10;" d="M 139.964844 186.054688 L 305.835938 289.726562 "/>
<path style="fill:none;stroke-width:1.721308;stroke-linecap:round;stroke-linejoin:round;stroke:rgb(100%,10.196078%,10.196078%);stroke-opacity:0.32549;stroke-miterlimit:10;" d="M 139.964844 208.617188 L 305.835938 291.554688 "/>
<path style="fill:none;stroke-width:0.806985;stroke-linecap:round;stroke-linejoin:round;stroke:rgb(100%,10.196078%,10.196078%);stroke-opacity:0.0196078;stroke-miterlimit:10;" d="M 139.964844 231.179688 L 305.835938 293.382812 "/>
<path style="fill:none;stroke-width:2.539074;stroke-linecap:round;stroke-linejoin:round;stroke:rgb(100%,10.196078%,10.196078%);stroke-opacity:0.596078;stroke-miterlimit:10;" d="M 139.964844 253.746094 L 305.835938 295.214844 "/>
<path style="fill:none;stroke-width:1.184803;stroke-linecap:round;stroke-linejoin:round;stroke:rgb(100%,10.196078%,10.196078%);stroke-opacity:0.145098;stroke-miterlimit:10;" d="M 139.964844 276.308594 L 305.835938 297.042969 "/>
<path style="fill:none;stroke-width:0.992251;stroke-linecap:round;stroke-linejoin:round;stroke:rgb(100%,10.196078%,10.196078%);stroke-opacity:0.0823529;stroke-miterlimit:10;" d="M 139.964844 298.871094 L 305.835938 298.871094 "/>
<path style="fill-rule:nonzero;fill:rgb(10.196078%,10.196078%,10.196078%);fill-opacity:1;stroke-width:0.75;stroke-linecap:round;stroke-linejoin:round;stroke:rgb(0%,0%,0%);stroke-opacity:1;stroke-miterlimit:10;" d="M 110.691406 89.09375 L 139.964844 89.09375 L 139.964844 118.367188 L 110.691406 118.367188 Z M 110.691406 89.09375 "/>
<path style="fill-rule:nonzero;fill:rgb(14.901961%,14.901961%,14.901961%);fill-opacity:1;stroke-width:0.75;stroke-linecap:round;stroke-linejoin:round;stroke:rgb(0%,0%,0%);stroke-opacity:1;stroke-miterlimit:10;" d="M 110.691406 113.484375 L 139.964844 113.484375 L 139.964844 142.757812 L 110.691406 142.757812 Z M 110.691406 113.484375 "/>
<path style="fill-rule:nonzero;fill:rgb(20%,20%,20%);fill-opacity:1;stroke-width:0.75;stroke-linecap:round;stroke-linejoin:round;stroke:rgb(0%,0%,0%);stroke-opacity:1;stroke-miterlimit:10;" d="M 110.691406 137.878906 L 139.964844 137.878906 L 139.964844 167.152344 L 110.691406 167.152344 Z M 110.691406 137.878906 "/>
<path style="fill-rule:nonzero;fill:rgb(25.098039%,25.098039%,25.098039%);fill-opacity:1;stroke-width:0.75;stroke-linecap:round;stroke-linejoin:round;stroke:rgb(0%,0%,0%);stroke-opacity:1;stroke-miterlimit:10;" d="M 110.691406 162.269531 L 139.964844 162.269531 L 139.964844 191.542969 L 110.691406 191.542969 Z M 110.691406 162.269531 "/>
<path style="fill-rule:nonzero;fill:rgb(30.196078%,30.196078%,30.196078%);fill-opacity:1;stroke-width:0.75;stroke-linecap:round;stroke-linejoin:round;stroke:rgb(0%,0%,0%);stroke-opacity:1;stroke-miterlimit:10;" d="M 110.691406 186.664062 L 139.964844 186.664062 L 139.964844 215.9375 L 110.691406 215.9375 Z M 110.691406 186.664062 "/>
<path style="fill-rule:nonzero;fill:rgb(34.901961%,34.901961%,34.901961%);fill-opacity:1;stroke-width:0.75;stroke-linecap:round;stroke-linejoin:round;stroke:rgb(0%,0%,0%);stroke-opacity:1;stroke-miterlimit:10;" d="M 110.691406 211.058594 L 139.964844 211.058594 L 139.964844 240.332031 L 110.691406 240.332031 Z M 110.691406 211.058594 "/>
<path style="fill-rule:nonzero;fill:rgb(40%,40%,40%);fill-opacity:1;stroke-width:0.75;stroke-linecap:round;stroke-linejoin:round;stroke:rgb(0%,0%,0%);stroke-opacity:1;stroke-miterlimit:10;" d="M 110.691406 235.449219 L 139.964844 235.449219 L 139.964844 264.722656 L 110.691406 264.722656 Z M 110.691406 235.449219 "/>
<path style="fill-rule:nonzero;fill:rgb(45.098039%,45.098039%,45.098039%);fill-opacity:1;stroke-width:0.75;stroke-linecap:round;stroke-linejoin:round;stroke:rgb(0%,0%,0%);stroke-opacity:1;stroke-miterlimit:10;" d="M 110.691406 259.84375 L 139.964844 259.84375 L 139.964844 289.117188 L 110.691406 289.117188 Z M 110.691406 259.84375 "/>
<path style="fill-rule:nonzero;fill:rgb(49.803922%,49.803922%,49.803922%);fill-opacity:1;stroke-width:0.75;stroke-linecap:round;stroke-linejoin:round;stroke:rgb(0%,0%,0%);stroke-opacity:1;stroke-miterlimit:10;" d="M 110.691406 284.234375 L 139.964844 284.234375 L 139.964844 313.507812 L 110.691406 313.507812 Z M 110.691406 284.234375 "/>
<path style="fill-rule:nonzero;fill:rgb(100%,100%,0%);fill-opacity:1;stroke-width:0.75;stroke-linecap:round;stroke-linejoin:round;stroke:rgb(0%,0%,0%);stroke-opacity:1;stroke-miterlimit:10;" d="M 305.835938 89.09375 L 335.109375 89.09375 L 335.109375 118.367188 L 305.835938 118.367188 Z M 305.835938 89.09375 "/>
<path style="fill-rule:nonzero;fill:rgb(54.509804%,0%,54.509804%);fill-opacity:1;stroke-width:0.75;stroke-linecap:round;stroke-linejoin:round;stroke:rgb(0%,0%,0%);stroke-opacity:1;stroke-miterlimit:10;" d="M 305.835938 113.484375 L 335.109375 113.484375 L 335.109375 142.757812 L 305.835938 142.757812 Z M 305.835938 113.484375 "/>
<path style="fill-rule:nonzero;fill:rgb(0%,100%,100%);fill-opacity:1;stroke-width:0.75;stroke-linecap:round;stroke-linejoin:round;stroke:rgb(0%,0%,0%);stroke-opacity:1;stroke-miterlimit:10;" d="M 305.835938 137.878906 L 335.109375 137.878906 L 335.109375 167.152344 L 305.835938 167.152344 Z M 305.835938 137.878906 "/>
<path style="fill-rule:nonzero;fill:rgb(80.392157%,0%,0%);fill-opacity:1;stroke-width:0.75;stroke-linecap:round;stroke-linejoin:round;stroke:rgb(0%,0%,0%);stroke-opacity:1;stroke-miterlimit:10;" d="M 305.835938 162.269531 L 335.109375 162.269531 L 335.109375 191.542969 L 305.835938 191.542969 Z M 305.835938 162.269531 "/>
<path style="fill-rule:nonzero;fill:rgb(0%,80.392157%,0%);fill-opacity:1;stroke-width:0.75;stroke-linecap:round;stroke-linejoin:round;stroke:rgb(0%,0%,0%);stroke-opacity:1;stroke-miterlimit:10;" d="M 305.835938 186.664062 L 335.109375 186.664062 L 335.109375 215.9375 L 305.835938 215.9375 Z M 305.835938 186.664062 "/>
<path style="fill-rule:nonzero;fill:rgb(0%,0%,80.392157%);fill-opacity:1;stroke-width:0.75;stroke-linecap:round;stroke-linejoin:round;stroke:rgb(0%,0%,0%);stroke-opacity:1;stroke-miterlimit:10;" d="M 305.835938 211.058594 L 335.109375 211.058594 L 335.109375 240.332031 L 305.835938 240.332031 Z M 305.835938 211.058594 "/>
<path style="fill-rule:nonzero;fill:rgb(93.333333%,50.980392%,93.333333%);fill-opacity:1;stroke-width:0.75;stroke-linecap:round;stroke-linejoin:round;stroke:rgb(0%,0%,0%);stroke-opacity:1;stroke-miterlimit:10;" d="M 305.835938 235.449219 L 335.109375 235.449219 L 335.109375 264.722656 L 305.835938 264.722656 Z M 305.835938 235.449219 "/>
<path style="fill-rule:nonzero;fill:rgb(100%,64.705882%,0%);fill-opacity:1;stroke-width:0.75;stroke-linecap:round;stroke-linejoin:round;stroke:rgb(0%,0%,0%);stroke-opacity:1;stroke-miterlimit:10;" d="M 305.835938 259.84375 L 335.109375 259.84375 L 335.109375 289.117188 L 305.835938 289.117188 Z M 305.835938 259.84375 "/>
<path style="fill-rule:nonzero;fill:rgb(49.803922%,49.803922%,49.803922%);fill-opacity:1;stroke-width:0.75;stroke-linecap:round;stroke-linejoin:round;stroke:rgb(0%,0%,0%);stroke-opacity:1;stroke-miterlimit:10;" d="M 305.835938 284.234375 L 335.109375 284.234375 L 335.109375 313.507812 L 305.835938 313.507812 Z M 305.835938 284.234375 "/>
<g style="fill:rgb(0%,0%,0%);fill-opacity:1;">
  <use xlink:href="#glyph0-1" x="80.300781" y="110.201172"/>
</g>
<g style="fill:rgb(0%,0%,0%);fill-opacity:1;">
  <use xlink:href="#glyph0-2" x="80.800781" y="103.302734"/>
</g>
<g style="fill:rgb(0%,0%,0%);fill-opacity:1;">
  <use xlink:href="#glyph1-1" x="87.300781" y="112.025391"/>
</g>
<g style="fill:rgb(0%,0%,0%);fill-opacity:1;">
  <use xlink:href="#glyph0-1" x="80.300781" y="134.595703"/>
</g>
<g style="fill:rgb(0%,0%,0%);fill-opacity:1;">
  <use xlink:href="#glyph0-2" x="80.800781" y="127.693359"/>
</g>
<g style="fill:rgb(0%,0%,0%);fill-opacity:1;">
  <use xlink:href="#glyph1-2" x="87.300781" y="136.419922"/>
</g>
<g style="fill:rgb(0%,0%,0%);fill-opacity:1;">
  <use xlink:href="#glyph0-1" x="80.300781" y="158.486328"/>
</g>
<g style="fill:rgb(0%,0%,0%);fill-opacity:1;">
  <use xlink:href="#glyph0-2" x="80.800781" y="151.587891"/>
</g>
<g style="fill:rgb(0%,0%,0%);fill-opacity:1;">
  <use xlink:href="#glyph1-3" x="87.300781" y="160.310547"/>
</g>
<g style="fill:rgb(0%,0%,0%);fill-opacity:1;">
  <use xlink:href="#glyph0-1" x="80.300781" y="183.380859"/>
</g>
<g style="fill:rgb(0%,0%,0%);fill-opacity:1;">
  <use xlink:href="#glyph0-2" x="80.800781" y="176.478516"/>
</g>
<g style="fill:rgb(0%,0%,0%);fill-opacity:1;">
  <use xlink:href="#glyph1-4" x="87.300781" y="185.205078"/>
</g>
<g style="fill:rgb(0%,0%,0%);fill-opacity:1;">
  <use xlink:href="#glyph0-1" x="80.300781" y="207.271484"/>
</g>
<g style="fill:rgb(0%,0%,0%);fill-opacity:1;">
  <use xlink:href="#glyph0-2" x="80.800781" y="200.373047"/>
</g>
<g style="fill:rgb(0%,0%,0%);fill-opacity:1;">
  <use xlink:href="#glyph1-5" x="87.300781" y="209.099609"/>
</g>
<g style="fill:rgb(0%,0%,0%);fill-opacity:1;">
  <use xlink:href="#glyph0-1" x="80.300781" y="231.666016"/>
</g>
<g style="fill:rgb(0%,0%,0%);fill-opacity:1;">
  <use xlink:href="#glyph0-2" x="80.800781" y="224.767578"/>
</g>
<g style="fill:rgb(0%,0%,0%);fill-opacity:1;">
  <use xlink:href="#glyph1-6" x="87.300781" y="233.490234"/>
</g>
<g style="fill:rgb(0%,0%,0%);fill-opacity:1;">
  <use xlink:href="#glyph0-1" x="80.300781" y="256.560547"/>
</g>
<g style="fill:rgb(0%,0%,0%);fill-opacity:1;">
  <use xlink:href="#glyph0-2" x="80.800781" y="249.658203"/>
</g>
<g style="fill:rgb(0%,0%,0%);fill-opacity:1;">
  <use xlink:href="#glyph1-7" x="87.300781" y="258.384766"/>
</g>
<g style="fill:rgb(0%,0%,0%);fill-opacity:1;">
  <use xlink:href="#glyph0-1" x="80.300781" y="280.451172"/>
</g>
<g style="fill:rgb(0%,0%,0%);fill-opacity:1;">
  <use xlink:href="#glyph0-2" x="80.800781" y="273.552734"/>
</g>
<g style="fill:rgb(0%,0%,0%);fill-opacity:1;">
  <use xlink:href="#glyph1-8" x="87.300781" y="282.275391"/>
</g>
<g style="fill:rgb(0%,0%,0%);fill-opacity:1;">
  <use xlink:href="#glyph0-1" x="80.300781" y="304.845703"/>
</g>
<g style="fill:rgb(0%,0%,0%);fill-opacity:1;">
  <use xlink:href="#glyph0-2" x="80.800781" y="297.943359"/>
</g>
<g style="fill:rgb(0%,0%,0%);fill-opacity:1;">
  <use xlink:href="#glyph1-9" x="87.300781" y="306.669922"/>
</g>
<g style="fill:rgb(0%,0%,0%);fill-opacity:1;">
  <use xlink:href="#glyph0-1" x="353.5" y="106.751953"/>
</g>
<g style="fill:rgb(0%,0%,0%);fill-opacity:1;">
  <use xlink:href="#glyph1-1" x="360.5" y="108.576172"/>
</g>
<g style="fill:rgb(0%,0%,0%);fill-opacity:1;">
  <use xlink:href="#glyph0-1" x="353.5" y="131.142578"/>
</g>
<g style="fill:rgb(0%,0%,0%);fill-opacity:1;">
  <use xlink:href="#glyph1-2" x="360.5" y="132.970703"/>
</g>
<g style="fill:rgb(0%,0%,0%);fill-opacity:1;">
  <use xlink:href="#glyph0-1" x="353.5" y="155.037109"/>
</g>
<g style="fill:rgb(0%,0%,0%);fill-opacity:1;">
  <use xlink:href="#glyph1-3" x="360.5" y="156.861328"/>
</g>
<g style="fill:rgb(0%,0%,0%);fill-opacity:1;">
  <use xlink:href="#glyph0-1" x="353.5" y="179.931641"/>
</g>
<g style="fill:rgb(0%,0%,0%);fill-opacity:1;">
  <use xlink:href="#glyph1-4" x="360.5" y="181.755859"/>
</g>
<g style="fill:rgb(0%,0%,0%);fill-opacity:1;">
  <use xlink:href="#glyph0-1" x="353.5" y="203.822266"/>
</g>
<g style="fill:rgb(0%,0%,0%);fill-opacity:1;">
  <use xlink:href="#glyph1-5" x="360.5" y="205.646484"/>
</g>
<g style="fill:rgb(0%,0%,0%);fill-opacity:1;">
  <use xlink:href="#glyph0-1" x="353.5" y="228.216797"/>
</g>
<g style="fill:rgb(0%,0%,0%);fill-opacity:1;">
  <use xlink:href="#glyph1-6" x="360.5" y="230.041016"/>
</g>
<g style="fill:rgb(0%,0%,0%);fill-opacity:1;">
  <use xlink:href="#glyph0-1" x="353.5" y="253.107422"/>
</g>
<g style="fill:rgb(0%,0%,0%);fill-opacity:1;">
  <use xlink:href="#glyph1-7" x="360.5" y="254.935547"/>
</g>
<g style="fill:rgb(0%,0%,0%);fill-opacity:1;">
  <use xlink:href="#glyph0-1" x="353.5" y="277.001953"/>
</g>
<g style="fill:rgb(0%,0%,0%);fill-opacity:1;">
  <use xlink:href="#glyph1-8" x="360.5" y="278.826172"/>
</g>
<g style="fill:rgb(0%,0%,0%);fill-opacity:1;">
  <use xlink:href="#glyph0-1" x="343" y="301.396484"/>
</g>
<g style="fill:rgb(0%,0%,0%);fill-opacity:1;">
  <use xlink:href="#glyph1-10" x="350" y="303.220703"/>
</g>
<g style="fill:rgb(0%,0%,0%);fill-opacity:1;">
  <use xlink:href="#glyph1-11" x="357" y="303.220703"/>
</g>
<g style="fill:rgb(0%,0%,0%);fill-opacity:1;">
  <use xlink:href="#glyph1-12" x="359" y="303.220703"/>
</g>
<g style="fill:rgb(0%,0%,0%);fill-opacity:1;">
  <use xlink:href="#glyph1-13" x="364" y="303.220703"/>
</g>
<g style="fill:rgb(0%,0%,0%);fill-opacity:1;">
  <use xlink:href="#glyph1-14" x="369" y="303.220703"/>
</g>
<g style="fill:rgb(0%,0%,0%);fill-opacity:1;">
  <use xlink:href="#glyph1-11" x="374" y="303.220703"/>
</g>
</g>
</svg>
