<?xml version="1.0" encoding="UTF-8"?>
<svg xmlns="http://www.w3.org/2000/svg" xmlns:xlink="http://www.w3.org/1999/xlink" width="417pt" height="417pt" viewBox="0 0 417 417" version="1.1">
<defs>
<g>
<symbol overflow="visible" id="glyph0-0">
<path style="stroke:none;" d=""/>
</symbol>
<symbol overflow="visible" id="glyph0-1">
<path style="stroke:none;" d="M 2.734375 -7.234375 C 1.96875 -7.234375 1.3125 -6.921875 0.890625 -6.328125 C 0.484375 -5.78125 0.296875 -4.875 0.296875 -3.5 C 0.296875 -2.234375 0.453125 -1.359375 0.796875 -0.8125 C 1.203125 -0.140625 1.90625 0.234375 2.734375 0.234375 C 3.5 0.234375 4.125 -0.078125 4.5625 -0.671875 C 4.96875 -1.21875 5.171875 -2.125 5.171875 -3.453125 C 5.171875 -4.765625 5.015625 -5.640625 4.671875 -6.1875 C 4.25 -6.875 3.5625 -7.234375 2.734375 -7.234375 Z M 2.734375 -6.109375 C 3.09375 -6.109375 3.375 -5.90625 3.546875 -5.546875 C 3.6875 -5.234375 3.765625 -4.46875 3.765625 -3.484375 C 3.765625 -2.6875 3.703125 -1.90625 3.59375 -1.625 C 3.4375 -1.203125 3.125 -0.96875 2.734375 -0.96875 C 2.359375 -0.96875 2.078125 -1.15625 1.90625 -1.515625 C 1.765625 -1.8125 1.6875 -2.5625 1.6875 -3.515625 C 1.6875 -4.34375 1.765625 -5.15625 1.875 -5.4375 C 2.015625 -5.875 2.328125 -6.109375 2.734375 -6.109375 Z M 2.734375 -6.109375 "/>
</symbol>
<symbol overflow="visible" id="glyph0-2">
<path style="stroke:none;" d="M 2.140625 -1.453125 L 0.640625 -1.453125 L 0.640625 0 L 2.140625 0 Z M 2.140625 -1.453125 "/>
</symbol>
<symbol overflow="visible" id="glyph0-3">
<path style="stroke:none;" d="M 2.171875 -3.171875 C 2.703125 -3.171875 2.734375 -3.171875 2.984375 -3.09375 C 3.453125 -2.96875 3.765625 -2.5625 3.765625 -2.046875 C 3.765625 -1.40625 3.3125 -0.96875 2.703125 -0.96875 C 2.046875 -0.96875 1.6875 -1.34375 1.65625 -2.078125 L 0.296875 -2.078125 C 0.296875 -0.65625 1.21875 0.234375 2.6875 0.234375 C 4.1875 0.234375 5.15625 -0.65625 5.15625 -2.046875 C 5.15625 -2.875 4.796875 -3.40625 4 -3.796875 C 4.65625 -4.203125 4.9375 -4.65625 4.9375 -5.3125 C 4.9375 -6.484375 4.046875 -7.234375 2.6875 -7.234375 C 1.65625 -7.234375 0.859375 -6.796875 0.546875 -6.015625 C 0.421875 -5.6875 0.375 -5.453125 0.375 -4.859375 L 1.6875 -4.859375 C 1.6875 -5.234375 1.71875 -5.4375 1.796875 -5.609375 C 1.921875 -5.921875 2.234375 -6.109375 2.65625 -6.109375 C 3.203125 -6.109375 3.53125 -5.765625 3.53125 -5.1875 C 3.53125 -4.453125 3.125 -4.109375 2.296875 -4.109375 L 2.171875 -4.109375 Z M 2.171875 -3.171875 "/>
</symbol>
<symbol overflow="visible" id="glyph0-4">
<path style="stroke:none;" d="M 4.890625 -7.09375 L 1.09375 -7.09375 L 0.46875 -3.140625 L 1.734375 -3.140625 C 1.875 -3.484375 2.203125 -3.6875 2.625 -3.6875 C 3.34375 -3.6875 3.765625 -3.171875 3.765625 -2.3125 C 3.765625 -1.484375 3.34375 -0.96875 2.625 -0.96875 C 2.015625 -0.96875 1.6875 -1.28125 1.65625 -1.84375 L 0.265625 -1.84375 C 0.296875 -0.609375 1.234375 0.234375 2.609375 0.234375 C 4.125 0.234375 5.171875 -0.8125 5.171875 -2.34375 C 5.171875 -3.796875 4.265625 -4.796875 2.953125 -4.796875 C 2.484375 -4.796875 2.140625 -4.671875 1.734375 -4.359375 L 1.953125 -5.84375 L 4.890625 -5.84375 Z M 4.890625 -7.09375 "/>
</symbol>
<symbol overflow="visible" id="glyph0-5">
<path style="stroke:none;" d="M 5.28125 -7.09375 L 0.296875 -7.09375 L 0.296875 -5.84375 L 3.8125 -5.84375 C 3.390625 -5.375 2.546875 -4.09375 2.265625 -3.46875 C 1.765625 -2.4375 1.515625 -1.515625 1.328125 0 L 2.734375 0 C 2.875 -2.234375 3.59375 -3.953125 5.28125 -5.984375 Z M 5.28125 -7.09375 "/>
</symbol>
<symbol overflow="visible" id="glyph0-6">
<path style="stroke:none;" d="M 0.375 -1.65625 C 0.40625 -0.5625 1.328125 0.234375 2.546875 0.234375 C 3.453125 0.234375 4.15625 -0.140625 4.5625 -0.859375 C 4.9375 -1.484375 5.15625 -2.5625 5.15625 -3.703125 C 5.15625 -4.734375 5 -5.546875 4.671875 -6.078125 C 4.21875 -6.84375 3.515625 -7.234375 2.671875 -7.234375 C 1.25 -7.234375 0.28125 -6.21875 0.28125 -4.734375 C 0.28125 -3.28125 1.140625 -2.28125 2.40625 -2.28125 C 2.765625 -2.28125 3.09375 -2.375 3.3125 -2.546875 C 3.453125 -2.625 3.53125 -2.71875 3.765625 -2.984375 C 3.765625 -1.609375 3.375 -0.953125 2.59375 -0.953125 C 2.09375 -0.953125 1.765625 -1.234375 1.734375 -1.65625 Z M 2.625 -6.09375 C 3.3125 -6.09375 3.734375 -5.578125 3.734375 -4.734375 C 3.734375 -3.953125 3.296875 -3.4375 2.65625 -3.4375 C 2.015625 -3.4375 1.609375 -3.9375 1.609375 -4.765625 C 1.609375 -5.578125 2 -6.09375 2.625 -6.09375 Z M 2.625 -6.09375 "/>
</symbol>
<symbol overflow="visible" id="glyph0-7">
<path style="stroke:none;" d="M 4.09375 -3.859375 C 4.328125 -3.984375 4.4375 -4.0625 4.546875 -4.15625 C 4.84375 -4.4375 5.015625 -4.859375 5.015625 -5.3125 C 5.015625 -6.4375 4.046875 -7.234375 2.734375 -7.234375 C 1.421875 -7.234375 0.453125 -6.4375 0.453125 -5.3125 C 0.453125 -4.625 0.734375 -4.203125 1.375 -3.859375 C 0.5625 -3.40625 0.21875 -2.875 0.21875 -2.046875 C 0.21875 -0.703125 1.25 0.234375 2.734375 0.234375 C 4.21875 0.234375 5.25 -0.703125 5.25 -2.046875 C 5.25 -2.875 4.90625 -3.40625 4.09375 -3.859375 Z M 2.75 -6.109375 C 3.375 -6.109375 3.796875 -5.734375 3.796875 -5.1875 C 3.796875 -4.640625 3.359375 -4.25 2.75 -4.25 C 2.125 -4.25 1.6875 -4.625 1.6875 -5.1875 C 1.6875 -5.734375 2.125 -6.109375 2.75 -6.109375 Z M 2.734375 -3.296875 C 3.421875 -3.296875 3.84375 -2.84375 3.84375 -2.09375 C 3.84375 -1.421875 3.40625 -0.96875 2.734375 -0.96875 C 2.046875 -0.96875 1.625 -1.421875 1.625 -2.125 C 1.625 -2.84375 2.046875 -3.296875 2.734375 -3.296875 Z M 2.734375 -3.296875 "/>
</symbol>
<symbol overflow="visible" id="glyph0-8">
<path style="stroke:none;" d="M 5.0625 -5.484375 C 5 -5.9375 4.90625 -6.171875 4.734375 -6.4375 C 4.359375 -6.9375 3.703125 -7.234375 2.9375 -7.234375 C 2.0625 -7.234375 1.34375 -6.84375 0.90625 -6.140625 C 0.484375 -5.453125 0.3125 -4.65625 0.3125 -3.375 C 0.3125 -2.15625 0.46875 -1.390625 0.828125 -0.8125 C 1.234375 -0.15625 1.984375 0.234375 2.8125 0.234375 C 4.234375 0.234375 5.1875 -0.8125 5.1875 -2.375 C 5.1875 -3.734375 4.34375 -4.671875 3.125 -4.671875 C 2.546875 -4.671875 2.15625 -4.5 1.71875 -4.046875 L 1.734375 -4.1875 C 1.75 -4.84375 1.78125 -5.0625 1.875 -5.328125 C 2.0625 -5.84375 2.40625 -6.109375 2.90625 -6.109375 C 3.34375 -6.109375 3.59375 -5.9375 3.765625 -5.484375 Z M 2.78125 -3.5625 C 3.4375 -3.5625 3.859375 -3.0625 3.859375 -2.265625 C 3.859375 -1.515625 3.40625 -0.96875 2.78125 -0.96875 C 2.140625 -0.96875 1.703125 -1.484375 1.703125 -2.25 C 1.703125 -3.015625 2.140625 -3.5625 2.78125 -3.5625 Z M 2.78125 -3.5625 "/>
</symbol>
<symbol overflow="visible" id="glyph0-9">
<path style="stroke:none;" d="M 5.21875 -2.734375 L 4.484375 -2.734375 L 4.484375 -7.09375 L 2.828125 -7.09375 L 0.234375 -2.75 L 0.234375 -1.5625 L 3.078125 -1.5625 L 3.078125 0 L 4.484375 0 L 4.484375 -1.5625 L 5.21875 -1.5625 Z M 3.078125 -2.734375 L 1.234375 -2.734375 L 3.078125 -5.765625 Z M 3.078125 -2.734375 "/>
</symbol>
<symbol overflow="visible" id="glyph1-0">
<path style="stroke:none;" d=""/>
</symbol>
<symbol overflow="visible" id="glyph1-1">
<path style="stroke:none;" d="M 7.671875 -9.625 L 0.734375 -9.625 L 0.734375 -8.546875 L 6.15625 -8.546875 L 0.375 -1.078125 L 0.375 0 L 7.703125 0 L 7.703125 -1.078125 L 1.921875 -1.078125 L 7.671875 -8.515625 Z M 7.671875 -9.625 "/>
</symbol>
<symbol overflow="visible" id="glyph2-0">
<path style="stroke:none;" d=""/>
</symbol>
<symbol overflow="visible" id="glyph2-1">
<path style="stroke:none;" d="M 2.390625 -4.75 L 2.390625 0 L 3.203125 0 L 3.203125 -6.671875 L 2.671875 -6.671875 C 2.375 -5.65625 2.203125 -5.515625 0.9375 -5.34375 L 0.9375 -4.75 Z M 2.390625 -4.75 "/>
</symbol>
<symbol overflow="visible" id="glyph2-2">
<path style="stroke:none;" d="M 4.671875 -0.796875 L 1.234375 -0.796875 C 1.3125 -1.359375 1.609375 -1.703125 2.40625 -2.203125 L 3.328125 -2.71875 C 4.25 -3.21875 4.71875 -3.90625 4.71875 -4.734375 C 4.71875 -5.28125 4.5 -5.796875 4.109375 -6.15625 C 3.71875 -6.515625 3.234375 -6.671875 2.625 -6.671875 C 1.796875 -6.671875 1.171875 -6.375 0.8125 -5.8125 C 0.578125 -5.453125 0.484375 -5.046875 0.46875 -4.375 L 1.28125 -4.375 C 1.296875 -4.828125 1.359375 -5.09375 1.46875 -5.3125 C 1.6875 -5.71875 2.109375 -5.96875 2.59375 -5.96875 C 3.328125 -5.96875 3.890625 -5.4375 3.890625 -4.703125 C 3.890625 -4.171875 3.578125 -3.71875 3 -3.375 L 2.15625 -2.875 C 0.78125 -2.09375 0.390625 -1.46875 0.3125 -0.015625 L 4.671875 -0.015625 Z M 4.671875 -0.796875 "/>
</symbol>
<symbol overflow="visible" id="glyph2-3">
<path style="stroke:none;" d="M 2.046875 -3.078125 L 2.484375 -3.078125 C 3.375 -3.078125 3.84375 -2.65625 3.84375 -1.859375 C 3.84375 -1.015625 3.328125 -0.515625 2.5 -0.515625 C 1.59375 -0.515625 1.15625 -0.953125 1.109375 -1.9375 L 0.296875 -1.9375 C 0.328125 -1.40625 0.421875 -1.046875 0.578125 -0.75 C 0.921875 -0.109375 1.5625 0.21875 2.453125 0.21875 C 3.796875 0.21875 4.671875 -0.59375 4.671875 -1.859375 C 4.671875 -2.71875 4.34375 -3.171875 3.5625 -3.453125 C 4.171875 -3.703125 4.484375 -4.171875 4.484375 -4.84375 C 4.484375 -5.984375 3.734375 -6.671875 2.484375 -6.671875 C 1.15625 -6.671875 0.46875 -5.9375 0.4375 -4.53125 L 1.25 -4.53125 C 1.25 -4.9375 1.296875 -5.15625 1.390625 -5.359375 C 1.578125 -5.75 1.984375 -5.96875 2.5 -5.96875 C 3.21875 -5.96875 3.640625 -5.53125 3.640625 -4.8125 C 3.640625 -4.34375 3.484375 -4.046875 3.125 -3.890625 C 2.90625 -3.796875 2.609375 -3.765625 2.046875 -3.765625 Z M 2.046875 -3.078125 "/>
</symbol>
<symbol overflow="visible" id="glyph2-4">
<path style="stroke:none;" d="M 3.015625 -1.609375 L 3.015625 0 L 3.828125 0 L 3.828125 -1.609375 L 4.796875 -1.609375 L 4.796875 -2.34375 L 3.828125 -2.34375 L 3.828125 -6.671875 L 3.234375 -6.671875 L 0.265625 -2.46875 L 0.265625 -1.609375 Z M 3.015625 -2.34375 L 0.96875 -2.34375 L 3.015625 -5.296875 Z M 3.015625 -2.34375 "/>
</symbol>
<symbol overflow="visible" id="glyph2-5">
<path style="stroke:none;" d="M 4.390625 -6.546875 L 1.015625 -6.546875 L 0.53125 -2.984375 L 1.28125 -2.984375 C 1.65625 -3.4375 1.96875 -3.59375 2.484375 -3.59375 C 3.359375 -3.59375 3.90625 -2.984375 3.90625 -2.015625 C 3.90625 -1.078125 3.359375 -0.515625 2.46875 -0.515625 C 1.765625 -0.515625 1.328125 -0.875 1.140625 -1.609375 L 0.328125 -1.609375 C 0.4375 -1.078125 0.53125 -0.8125 0.71875 -0.578125 C 1.09375 -0.078125 1.75 0.21875 2.5 0.21875 C 3.8125 0.21875 4.734375 -0.75 4.734375 -2.140625 C 4.734375 -3.421875 3.875 -4.3125 2.625 -4.3125 C 2.15625 -4.3125 1.796875 -4.1875 1.40625 -3.921875 L 1.671875 -5.75 L 4.390625 -5.75 Z M 4.390625 -6.546875 "/>
</symbol>
<symbol overflow="visible" id="glyph2-6">
<path style="stroke:none;" d="M 4.59375 -4.9375 C 4.4375 -6.03125 3.734375 -6.671875 2.75 -6.671875 C 2.015625 -6.671875 1.375 -6.328125 0.984375 -5.71875 C 0.578125 -5.0625 0.390625 -4.25 0.390625 -3.046875 C 0.390625 -1.921875 0.546875 -1.203125 0.953125 -0.625 C 1.296875 -0.078125 1.875 0.21875 2.59375 0.21875 C 3.84375 0.21875 4.734375 -0.71875 4.734375 -2.015625 C 4.734375 -3.25 3.90625 -4.125 2.734375 -4.125 C 2.09375 -4.125 1.578125 -3.875 1.234375 -3.390625 C 1.234375 -5.046875 1.75 -5.953125 2.6875 -5.953125 C 3.265625 -5.953125 3.65625 -5.59375 3.78125 -4.9375 Z M 2.625 -3.390625 C 3.421875 -3.390625 3.90625 -2.84375 3.90625 -1.953125 C 3.90625 -1.125 3.359375 -0.515625 2.609375 -0.515625 C 1.84375 -0.515625 1.28125 -1.140625 1.28125 -2 C 1.28125 -2.828125 1.828125 -3.390625 2.625 -3.390625 Z M 2.625 -3.390625 "/>
</symbol>
<symbol overflow="visible" id="glyph2-7">
<path style="stroke:none;" d="M 4.796875 -6.546875 L 0.421875 -6.546875 L 0.421875 -5.75 L 3.96875 -5.75 C 2.40625 -3.515625 1.765625 -2.15625 1.28125 0 L 2.140625 0 C 2.5 -2.09375 3.328125 -3.890625 4.796875 -5.859375 Z M 4.796875 -6.546875 "/>
</symbol>
<symbol overflow="visible" id="glyph2-8">
<path style="stroke:none;" d="M 3.609375 -3.515625 C 4.296875 -3.9375 4.5 -4.265625 4.5 -4.890625 C 4.5 -5.953125 3.703125 -6.671875 2.546875 -6.671875 C 1.390625 -6.671875 0.578125 -5.953125 0.578125 -4.90625 C 0.578125 -4.265625 0.78125 -3.9375 1.453125 -3.515625 C 0.71875 -3.140625 0.34375 -2.59375 0.34375 -1.859375 C 0.34375 -0.640625 1.234375 0.21875 2.546875 0.21875 C 3.828125 0.21875 4.734375 -0.640625 4.734375 -1.859375 C 4.734375 -2.59375 4.375 -3.140625 3.609375 -3.515625 Z M 2.546875 -5.953125 C 3.234375 -5.953125 3.671875 -5.546875 3.671875 -4.875 C 3.671875 -4.25 3.21875 -3.828125 2.546875 -3.828125 C 1.84375 -3.828125 1.40625 -4.25 1.40625 -4.890625 C 1.40625 -5.546875 1.84375 -5.953125 2.546875 -5.953125 Z M 2.546875 -3.15625 C 3.359375 -3.15625 3.90625 -2.609375 3.90625 -1.84375 C 3.90625 -1.03125 3.359375 -0.515625 2.515625 -0.515625 C 1.734375 -0.515625 1.171875 -1.046875 1.171875 -1.828125 C 1.171875 -2.625 1.71875 -3.15625 2.546875 -3.15625 Z M 2.546875 -3.15625 "/>
</symbol>
<symbol overflow="visible" id="glyph2-9">
<path style="stroke:none;" d="M 3.734375 -4.84375 L 3.734375 -4.140625 C 3.34375 -4.71875 2.921875 -4.984375 2.3125 -4.984375 C 1.140625 -4.984375 0.328125 -3.890625 0.328125 -2.34375 C 0.328125 -1.53125 0.515625 -0.9375 0.9375 -0.4375 C 1.296875 -0.015625 1.75 0.21875 2.25 0.21875 C 2.828125 0.21875 3.25 -0.046875 3.65625 -0.65625 L 3.65625 -0.40625 C 3.65625 0.890625 3.296875 1.359375 2.34375 1.359375 C 1.6875 1.359375 1.34375 1.109375 1.265625 0.546875 L 0.484375 0.546875 C 0.546875 1.453125 1.265625 2.015625 2.3125 2.015625 C 3.03125 2.015625 3.625 1.78125 3.9375 1.390625 C 4.296875 0.9375 4.4375 0.34375 4.4375 -0.796875 L 4.4375 -4.84375 Z M 2.375 -4.265625 C 3.1875 -4.265625 3.65625 -3.578125 3.65625 -2.359375 C 3.65625 -1.1875 3.1875 -0.5 2.375 -0.5 C 1.59375 -0.5 1.125 -1.1875 1.125 -2.375 C 1.125 -3.5625 1.59375 -4.265625 2.375 -4.265625 Z M 2.375 -4.265625 "/>
</symbol>
<symbol overflow="visible" id="glyph2-10">
<path style="stroke:none;" d="M 1.40625 -6.734375 L 0.625 -6.734375 L 0.625 0 L 1.40625 0 Z M 1.40625 -6.734375 "/>
</symbol>
<symbol overflow="visible" id="glyph2-11">
<path style="stroke:none;" d="M 2.515625 -4.984375 C 1.140625 -4.984375 0.328125 -4 0.328125 -2.375 C 0.328125 -0.75 1.140625 0.21875 2.515625 0.21875 C 3.890625 0.21875 4.703125 -0.75 4.703125 -2.34375 C 4.703125 -4.03125 3.921875 -4.984375 2.515625 -4.984375 Z M 2.515625 -4.265625 C 3.390625 -4.265625 3.90625 -3.5625 3.90625 -2.359375 C 3.90625 -1.203125 3.375 -0.5 2.515625 -0.5 C 1.65625 -0.5 1.140625 -1.203125 1.140625 -2.375 C 1.140625 -3.5625 1.65625 -4.265625 2.515625 -4.265625 Z M 2.515625 -4.265625 "/>
</symbol>
<symbol overflow="visible" id="glyph2-12">
<path style="stroke:none;" d="M 0.5 -6.734375 L 0.5 0 L 1.1875 0 L 1.1875 -0.625 C 1.5625 -0.0625 2.046875 0.21875 2.71875 0.21875 C 4 0.21875 4.828125 -0.828125 4.828125 -2.4375 C 4.828125 -4 4.046875 -4.984375 2.765625 -4.984375 C 2.09375 -4.984375 1.625 -4.734375 1.265625 -4.1875 L 1.265625 -6.734375 Z M 2.609375 -4.25 C 3.46875 -4.25 4.03125 -3.515625 4.03125 -2.359375 C 4.03125 -1.25 3.453125 -0.515625 2.609375 -0.515625 C 1.796875 -0.515625 1.265625 -1.25 1.265625 -2.375 C 1.265625 -3.515625 1.796875 -4.25 2.609375 -4.25 Z M 2.609375 -4.25 "/>
</symbol>
<symbol overflow="visible" id="glyph2-13">
<path style="stroke:none;" d="M 4.9375 -0.453125 C 4.859375 -0.4375 4.828125 -0.4375 4.78125 -0.4375 C 4.5 -0.4375 4.359375 -0.578125 4.359375 -0.8125 L 4.359375 -3.65625 C 4.359375 -4.515625 3.734375 -4.984375 2.546875 -4.984375 C 1.828125 -4.984375 1.265625 -4.78125 0.9375 -4.40625 C 0.71875 -4.171875 0.625 -3.890625 0.59375 -3.40625 L 1.375 -3.40625 C 1.4375 -4 1.796875 -4.265625 2.515625 -4.265625 C 3.21875 -4.265625 3.59375 -4 3.59375 -3.546875 L 3.59375 -3.34375 C 3.578125 -3.015625 3.421875 -2.890625 2.78125 -2.8125 C 1.703125 -2.671875 1.53125 -2.625 1.234375 -2.515625 C 0.671875 -2.265625 0.390625 -1.84375 0.390625 -1.21875 C 0.390625 -0.34375 1 0.21875 1.96875 0.21875 C 2.578125 0.21875 3.078125 0 3.625 -0.5 C 3.671875 0 3.921875 0.21875 4.40625 0.21875 C 4.578125 0.21875 4.6875 0.1875 4.9375 0.125 Z M 3.59375 -1.53125 C 3.59375 -1.265625 3.515625 -1.109375 3.28125 -0.890625 C 2.96875 -0.609375 2.59375 -0.46875 2.140625 -0.46875 C 1.546875 -0.46875 1.1875 -0.75 1.1875 -1.234375 C 1.1875 -1.75 1.53125 -2 2.359375 -2.125 C 3.171875 -2.234375 3.328125 -2.265625 3.59375 -2.390625 Z M 3.59375 -1.53125 "/>
</symbol>
<symbol overflow="visible" id="glyph3-0">
<path style="stroke:none;" d=""/>
</symbol>
<symbol overflow="visible" id="glyph3-1">
<path style="stroke:none;" d="M -8.546875 -4.671875 L -8.546875 -7.828125 L -9.625 -7.828125 L -9.625 -0.28125 L -8.546875 -0.28125 L -8.546875 -3.453125 L 0 -3.453125 L 0 -4.671875 Z M -8.546875 -4.671875 "/>
</symbol>
<symbol overflow="visible" id="glyph3-2">
<path style="stroke:none;" d="M -4.390625 -2.421875 L -4.390625 -7.015625 L -5.46875 -7.015625 L -5.46875 -2.421875 L -8.546875 -2.421875 L -8.546875 -7.640625 L -9.625 -7.640625 L -9.625 -1.1875 L 0 -1.1875 L 0 -2.421875 Z M -4.390625 -2.421875 "/>
</symbol>
<symbol overflow="visible" id="glyph3-3">
<path style="stroke:none;" d="M -2.890625 -6.265625 L 0 -7.25 L 0 -8.625 L -9.625 -5.234375 L -9.625 -3.65625 L 0 -0.21875 L 0 -1.53125 L -2.890625 -2.546875 Z M -3.921875 -5.921875 L -3.921875 -2.859375 L -8.3125 -4.4375 Z M -3.921875 -5.921875 "/>
</symbol>
<symbol overflow="visible" id="glyph4-0">
<path style="stroke:none;" d=""/>
</symbol>
<symbol overflow="visible" id="glyph4-1">
<path style="stroke:none;" d="M -4.75 -2.390625 L 0 -2.390625 L 0 -3.203125 L -6.671875 -3.203125 L -6.671875 -2.671875 C -5.65625 -2.375 -5.515625 -2.203125 -5.34375 -0.9375 L -4.75 -0.9375 Z M -4.75 -2.390625 "/>
</symbol>
<symbol overflow="visible" id="glyph4-2">
<path style="stroke:none;" d="M -0.796875 -4.671875 L -0.796875 -1.234375 C -1.359375 -1.3125 -1.703125 -1.609375 -2.203125 -2.40625 L -2.71875 -3.328125 C -3.21875 -4.25 -3.90625 -4.71875 -4.734375 -4.71875 C -5.28125 -4.71875 -5.796875 -4.5 -6.15625 -4.109375 C -6.515625 -3.71875 -6.671875 -3.234375 -6.671875 -2.625 C -6.671875 -1.796875 -6.375 -1.171875 -5.8125 -0.8125 C -5.453125 -0.578125 -5.046875 -0.484375 -4.375 -0.46875 L -4.375 -1.28125 C -4.828125 -1.296875 -5.09375 -1.359375 -5.3125 -1.46875 C -5.71875 -1.6875 -5.96875 -2.109375 -5.96875 -2.59375 C -5.96875 -3.328125 -5.4375 -3.890625 -4.703125 -3.890625 C -4.171875 -3.890625 -3.71875 -3.578125 -3.375 -3 L -2.875 -2.15625 C -2.09375 -0.78125 -1.46875 -0.390625 -0.015625 -0.3125 L -0.015625 -4.671875 Z M -0.796875 -4.671875 "/>
</symbol>
<symbol overflow="visible" id="glyph4-3">
<path style="stroke:none;" d="M -3.078125 -2.046875 L -3.078125 -2.484375 C -3.078125 -3.375 -2.65625 -3.84375 -1.859375 -3.84375 C -1.015625 -3.84375 -0.515625 -3.328125 -0.515625 -2.5 C -0.515625 -1.59375 -0.953125 -1.15625 -1.9375 -1.109375 L -1.9375 -0.296875 C -1.40625 -0.328125 -1.046875 -0.421875 -0.75 -0.578125 C -0.109375 -0.921875 0.21875 -1.5625 0.21875 -2.453125 C 0.21875 -3.796875 -0.59375 -4.671875 -1.859375 -4.671875 C -2.71875 -4.671875 -3.171875 -4.34375 -3.453125 -3.5625 C -3.703125 -4.171875 -4.171875 -4.484375 -4.84375 -4.484375 C -5.984375 -4.484375 -6.671875 -3.734375 -6.671875 -2.484375 C -6.671875 -1.15625 -5.9375 -0.46875 -4.53125 -0.4375 L -4.53125 -1.25 C -4.9375 -1.25 -5.15625 -1.296875 -5.359375 -1.390625 C -5.75 -1.578125 -5.96875 -1.984375 -5.96875 -2.5 C -5.96875 -3.21875 -5.53125 -3.640625 -4.8125 -3.640625 C -4.34375 -3.640625 -4.046875 -3.484375 -3.890625 -3.125 C -3.796875 -2.90625 -3.765625 -2.609375 -3.765625 -2.046875 Z M -3.078125 -2.046875 "/>
</symbol>
<symbol overflow="visible" id="glyph4-4">
<path style="stroke:none;" d="M -1.609375 -3.015625 L 0 -3.015625 L 0 -3.828125 L -1.609375 -3.828125 L -1.609375 -4.796875 L -2.34375 -4.796875 L -2.34375 -3.828125 L -6.671875 -3.828125 L -6.671875 -3.234375 L -2.46875 -0.265625 L -1.609375 -0.265625 Z M -2.34375 -3.015625 L -2.34375 -0.96875 L -5.296875 -3.015625 Z M -2.34375 -3.015625 "/>
</symbol>
<symbol overflow="visible" id="glyph4-5">
<path style="stroke:none;" d="M -6.546875 -4.390625 L -6.546875 -1.015625 L -2.984375 -0.53125 L -2.984375 -1.28125 C -3.4375 -1.65625 -3.59375 -1.96875 -3.59375 -2.484375 C -3.59375 -3.359375 -2.984375 -3.90625 -2.015625 -3.90625 C -1.078125 -3.90625 -0.515625 -3.359375 -0.515625 -2.46875 C -0.515625 -1.765625 -0.875 -1.328125 -1.609375 -1.140625 L -1.609375 -0.328125 C -1.078125 -0.4375 -0.8125 -0.53125 -0.578125 -0.71875 C -0.078125 -1.09375 0.21875 -1.75 0.21875 -2.5 C 0.21875 -3.8125 -0.75 -4.734375 -2.140625 -4.734375 C -3.421875 -4.734375 -4.3125 -3.875 -4.3125 -2.625 C -4.3125 -2.15625 -4.1875 -1.796875 -3.921875 -1.40625 L -5.75 -1.671875 L -5.75 -4.390625 Z M -6.546875 -4.390625 "/>
</symbol>
<symbol overflow="visible" id="glyph4-6">
<path style="stroke:none;" d="M -4.9375 -4.59375 C -6.03125 -4.4375 -6.671875 -3.734375 -6.671875 -2.75 C -6.671875 -2.015625 -6.328125 -1.375 -5.71875 -0.984375 C -5.0625 -0.578125 -4.25 -0.390625 -3.046875 -0.390625 C -1.921875 -0.390625 -1.203125 -0.546875 -0.625 -0.953125 C -0.078125 -1.296875 0.21875 -1.875 0.21875 -2.59375 C 0.21875 -3.84375 -0.71875 -4.734375 -2.015625 -4.734375 C -3.25 -4.734375 -4.125 -3.90625 -4.125 -2.734375 C -4.125 -2.09375 -3.875 -1.578125 -3.390625 -1.234375 C -5.046875 -1.234375 -5.953125 -1.75 -5.953125 -2.6875 C -5.953125 -3.265625 -5.59375 -3.65625 -4.9375 -3.78125 Z M -3.390625 -2.625 C -3.390625 -3.421875 -2.84375 -3.90625 -1.953125 -3.90625 C -1.125 -3.90625 -0.515625 -3.359375 -0.515625 -2.609375 C -0.515625 -1.84375 -1.140625 -1.28125 -2 -1.28125 C -2.828125 -1.28125 -3.390625 -1.828125 -3.390625 -2.625 Z M -3.390625 -2.625 "/>
</symbol>
<symbol overflow="visible" id="glyph4-7">
<path style="stroke:none;" d="M -6.546875 -4.796875 L -6.546875 -0.421875 L -5.75 -0.421875 L -5.75 -3.96875 C -3.515625 -2.40625 -2.15625 -1.765625 0 -1.28125 L 0 -2.140625 C -2.09375 -2.5 -3.890625 -3.328125 -5.859375 -4.796875 Z M -6.546875 -4.796875 "/>
</symbol>
<symbol overflow="visible" id="glyph4-8">
<path style="stroke:none;" d="M -3.515625 -3.609375 C -3.9375 -4.296875 -4.265625 -4.5 -4.890625 -4.5 C -5.953125 -4.5 -6.671875 -3.703125 -6.671875 -2.546875 C -6.671875 -1.390625 -5.953125 -0.578125 -4.90625 -0.578125 C -4.265625 -0.578125 -3.9375 -0.78125 -3.515625 -1.453125 C -3.140625 -0.71875 -2.59375 -0.34375 -1.859375 -0.34375 C -0.640625 -0.34375 0.21875 -1.234375 0.21875 -2.546875 C 0.21875 -3.828125 -0.640625 -4.734375 -1.859375 -4.734375 C -2.59375 -4.734375 -3.140625 -4.375 -3.515625 -3.609375 Z M -5.953125 -2.546875 C -5.953125 -3.234375 -5.546875 -3.671875 -4.875 -3.671875 C -4.25 -3.671875 -3.828125 -3.21875 -3.828125 -2.546875 C -3.828125 -1.84375 -4.25 -1.40625 -4.890625 -1.40625 C -5.546875 -1.40625 -5.953125 -1.84375 -5.953125 -2.546875 Z M -3.15625 -2.546875 C -3.15625 -3.359375 -2.609375 -3.90625 -1.84375 -3.90625 C -1.03125 -3.90625 -0.515625 -3.359375 -0.515625 -2.515625 C -0.515625 -1.734375 -1.046875 -1.171875 -1.828125 -1.171875 C -2.625 -1.171875 -3.15625 -1.71875 -3.15625 -2.546875 Z M -3.15625 -2.546875 "/>
</symbol>
<symbol overflow="visible" id="glyph4-9">
<path style="stroke:none;" d="M -4.84375 -3.734375 L -4.140625 -3.734375 C -4.71875 -3.34375 -4.984375 -2.921875 -4.984375 -2.3125 C -4.984375 -1.140625 -3.890625 -0.328125 -2.34375 -0.328125 C -1.53125 -0.328125 -0.9375 -0.515625 -0.4375 -0.9375 C -0.015625 -1.296875 0.21875 -1.75 0.21875 -2.25 C 0.21875 -2.828125 -0.046875 -3.25 -0.65625 -3.65625 L -0.40625 -3.65625 C 0.890625 -3.65625 1.359375 -3.296875 1.359375 -2.34375 C 1.359375 -1.6875 1.109375 -1.34375 0.546875 -1.265625 L 0.546875 -0.484375 C 1.453125 -0.546875 2.015625 -1.265625 2.015625 -2.3125 C 2.015625 -3.03125 1.78125 -3.625 1.390625 -3.9375 C 0.9375 -4.296875 0.34375 -4.4375 -0.796875 -4.4375 L -4.84375 -4.4375 Z M -4.265625 -2.375 C -4.265625 -3.1875 -3.578125 -3.65625 -2.359375 -3.65625 C -1.1875 -3.65625 -0.5 -3.1875 -0.5 -2.375 C -0.5 -1.59375 -1.1875 -1.125 -2.375 -1.125 C -3.5625 -1.125 -4.265625 -1.59375 -4.265625 -2.375 Z M -4.265625 -2.375 "/>
</symbol>
<symbol overflow="visible" id="glyph4-10">
<path style="stroke:none;" d="M -6.734375 -1.40625 L -6.734375 -0.625 L 0 -0.625 L 0 -1.40625 Z M -6.734375 -1.40625 "/>
</symbol>
<symbol overflow="visible" id="glyph4-11">
<path style="stroke:none;" d="M -4.984375 -2.515625 C -4.984375 -1.140625 -4 -0.328125 -2.375 -0.328125 C -0.75 -0.328125 0.21875 -1.140625 0.21875 -2.515625 C 0.21875 -3.890625 -0.75 -4.703125 -2.34375 -4.703125 C -4.03125 -4.703125 -4.984375 -3.921875 -4.984375 -2.515625 Z M -4.265625 -2.515625 C -4.265625 -3.390625 -3.5625 -3.90625 -2.359375 -3.90625 C -1.203125 -3.90625 -0.5 -3.375 -0.5 -2.515625 C -0.5 -1.65625 -1.203125 -1.140625 -2.375 -1.140625 C -3.5625 -1.140625 -4.265625 -1.65625 -4.265625 -2.515625 Z M -4.265625 -2.515625 "/>
</symbol>
<symbol overflow="visible" id="glyph4-12">
<path style="stroke:none;" d="M -6.734375 -0.5 L 0 -0.5 L 0 -1.1875 L -0.625 -1.1875 C -0.0625 -1.5625 0.21875 -2.046875 0.21875 -2.71875 C 0.21875 -4 -0.828125 -4.828125 -2.4375 -4.828125 C -4 -4.828125 -4.984375 -4.046875 -4.984375 -2.765625 C -4.984375 -2.09375 -4.734375 -1.625 -4.1875 -1.265625 L -6.734375 -1.265625 Z M -4.25 -2.609375 C -4.25 -3.46875 -3.515625 -4.03125 -2.359375 -4.03125 C -1.25 -4.03125 -0.515625 -3.453125 -0.515625 -2.609375 C -0.515625 -1.796875 -1.25 -1.265625 -2.375 -1.265625 C -3.515625 -1.265625 -4.25 -1.796875 -4.25 -2.609375 Z M -4.25 -2.609375 "/>
</symbol>
<symbol overflow="visible" id="glyph4-13">
<path style="stroke:none;" d="M -0.453125 -4.9375 C -0.4375 -4.859375 -0.4375 -4.828125 -0.4375 -4.78125 C -0.4375 -4.5 -0.578125 -4.359375 -0.8125 -4.359375 L -3.65625 -4.359375 C -4.515625 -4.359375 -4.984375 -3.734375 -4.984375 -2.546875 C -4.984375 -1.828125 -4.78125 -1.265625 -4.40625 -0.9375 C -4.171875 -0.71875 -3.890625 -0.625 -3.40625 -0.59375 L -3.40625 -1.375 C -4 -1.4375 -4.265625 -1.796875 -4.265625 -2.515625 C -4.265625 -3.21875 -4 -3.59375 -3.546875 -3.59375 L -3.34375 -3.59375 C -3.015625 -3.578125 -2.890625 -3.421875 -2.8125 -2.78125 C -2.671875 -1.703125 -2.625 -1.53125 -2.515625 -1.234375 C -2.265625 -0.671875 -1.84375 -0.390625 -1.21875 -0.390625 C -0.34375 -0.390625 0.21875 -1 0.21875 -1.96875 C 0.21875 -2.578125 0 -3.078125 -0.5 -3.625 C 0 -3.671875 0.21875 -3.921875 0.21875 -4.40625 C 0.21875 -4.578125 0.1875 -4.6875 0.125 -4.9375 Z M -1.53125 -3.59375 C -1.265625 -3.59375 -1.109375 -3.515625 -0.890625 -3.28125 C -0.609375 -2.96875 -0.46875 -2.59375 -0.46875 -2.140625 C -0.46875 -1.546875 -0.75 -1.1875 -1.234375 -1.1875 C -1.75 -1.1875 -2 -1.53125 -2.125 -2.359375 C -2.234375 -3.171875 -2.265625 -3.328125 -2.390625 -3.59375 Z M -1.53125 -3.59375 "/>
</symbol>
<symbol overflow="visible" id="glyph5-0">
<path style="stroke:none;" d=""/>
</symbol>
<symbol overflow="visible" id="glyph5-1">
<path style="stroke:none;" d="M 7.078125 -12.9375 L 11.859375 -12.9375 L 11.859375 -14.578125 L 0.421875 -14.578125 L 0.421875 -12.9375 L 5.21875 -12.9375 L 5.21875 0 L 7.078125 0 Z M 7.078125 -12.9375 "/>
</symbol>
<symbol overflow="visible" id="glyph5-2">
<path style="stroke:none;" d="M 5.6875 -6.234375 L 0.921875 -6.234375 L 0.921875 -4.796875 L 5.6875 -4.796875 Z M 5.6875 -6.234375 "/>
</symbol>
<symbol overflow="visible" id="glyph5-3">
<path style="stroke:none;" d="M 9.359375 0 L 13.453125 -12.21875 L 13.453125 0 L 15.21875 0 L 15.21875 -14.578125 L 12.640625 -14.578125 L 8.40625 -1.875 L 4.078125 -14.578125 L 1.5 -14.578125 L 1.5 0 L 3.265625 0 L 3.265625 -12.21875 L 7.40625 0 Z M 9.359375 0 "/>
</symbol>
<symbol overflow="visible" id="glyph5-4">
<path style="stroke:none;" d="M 10.265625 -4.6875 C 10.265625 -6.28125 10.140625 -7.234375 9.84375 -8.015625 C 9.15625 -9.734375 7.5625 -10.78125 5.59375 -10.78125 C 2.6875 -10.78125 0.796875 -8.5625 0.796875 -5.09375 C 0.796875 -1.640625 2.59375 0.453125 5.5625 0.453125 C 7.953125 0.453125 9.625 -0.90625 10.046875 -3.1875 L 8.359375 -3.1875 C 7.90625 -1.796875 6.953125 -1.078125 5.625 -1.078125 C 4.5625 -1.078125 3.65625 -1.5625 3.09375 -2.4375 C 2.703125 -3.046875 2.5625 -3.640625 2.546875 -4.6875 Z M 2.578125 -6.046875 C 2.71875 -7.984375 3.90625 -9.234375 5.578125 -9.234375 C 7.28125 -9.234375 8.453125 -7.921875 8.453125 -6.046875 Z M 2.578125 -6.046875 "/>
</symbol>
<symbol overflow="visible" id="glyph5-5">
<path style="stroke:none;" d="M 5.84375 -5.421875 L 9.359375 -10.484375 L 7.484375 -10.484375 L 4.953125 -6.6875 L 2.4375 -10.484375 L 0.546875 -10.484375 L 4.046875 -5.34375 L 0.34375 0 L 2.234375 0 L 4.90625 -4.015625 L 7.515625 0 L 9.453125 0 Z M 5.84375 -5.421875 "/>
</symbol>
<symbol overflow="visible" id="glyph5-6">
<path style="stroke:none;" d=""/>
</symbol>
<symbol overflow="visible" id="glyph5-7">
<path style="stroke:none;" d="M 10.6875 -7.0625 L 1 -7.0625 L 1 -5.65625 L 10.6875 -5.65625 Z M 10.6875 -3.625 L 1 -3.625 L 1 -2.21875 L 10.6875 -2.21875 Z M 10.6875 -3.625 "/>
</symbol>
<symbol overflow="visible" id="glyph5-8">
<path style="stroke:none;" d="M 5.5 -14.453125 C 4.1875 -14.453125 2.984375 -13.859375 2.234375 -12.875 C 1.3125 -11.59375 0.859375 -9.6875 0.859375 -7 C 0.859375 -2.125 2.453125 0.453125 5.5 0.453125 C 8.5 0.453125 10.140625 -2.125 10.140625 -6.875 C 10.140625 -9.6875 9.703125 -11.5625 8.765625 -12.875 C 8.015625 -13.875 6.84375 -14.453125 5.5 -14.453125 Z M 5.5 -12.90625 C 7.40625 -12.90625 8.34375 -10.953125 8.34375 -7.046875 C 8.34375 -2.921875 7.421875 -1 5.453125 -1 C 3.59375 -1 2.65625 -3 2.65625 -6.984375 C 2.65625 -10.953125 3.59375 -12.90625 5.5 -12.90625 Z M 5.5 -12.90625 "/>
</symbol>
<symbol overflow="visible" id="glyph5-9">
<path style="stroke:none;" d="M 3.8125 -2.078125 L 1.734375 -2.078125 L 1.734375 0 L 3.8125 0 Z M 3.8125 -2.078125 "/>
</symbol>
<symbol overflow="visible" id="glyph5-10">
<path style="stroke:none;" d="M 6.546875 -3.5 L 6.546875 0 L 8.296875 0 L 8.296875 -3.5 L 10.40625 -3.5 L 10.40625 -5.078125 L 8.296875 -5.078125 L 8.296875 -14.453125 L 7 -14.453125 L 0.5625 -5.359375 L 0.5625 -3.5 Z M 6.546875 -5.078125 L 2.09375 -5.078125 L 6.546875 -11.453125 Z M 6.546875 -5.078125 "/>
</symbol>
<symbol overflow="visible" id="glyph5-11">
<path style="stroke:none;" d="M 7.8125 -7.625 C 9.296875 -8.515625 9.765625 -9.234375 9.765625 -10.59375 C 9.765625 -12.875 8.015625 -14.453125 5.5 -14.453125 C 3 -14.453125 1.234375 -12.875 1.234375 -10.625 C 1.234375 -9.234375 1.703125 -8.546875 3.15625 -7.625 C 1.546875 -6.796875 0.734375 -5.625 0.734375 -4.015625 C 0.734375 -1.375 2.6875 0.453125 5.5 0.453125 C 8.296875 0.453125 10.265625 -1.375 10.265625 -4.015625 C 10.265625 -5.625 9.453125 -6.796875 7.8125 -7.625 Z M 5.5 -12.90625 C 7 -12.90625 7.953125 -12 7.953125 -10.5625 C 7.953125 -9.203125 6.984375 -8.296875 5.5 -8.296875 C 4 -8.296875 3.046875 -9.203125 3.046875 -10.59375 C 3.046875 -12 4 -12.90625 5.5 -12.90625 Z M 5.5 -6.8125 C 7.265625 -6.8125 8.453125 -5.65625 8.453125 -3.984375 C 8.453125 -2.234375 7.28125 -1.09375 5.453125 -1.09375 C 3.734375 -1.09375 2.546875 -2.28125 2.546875 -3.953125 C 2.546875 -5.6875 3.71875 -6.8125 5.5 -6.8125 Z M 5.5 -6.8125 "/>
</symbol>
<symbol overflow="visible" id="glyph5-12">
<path style="stroke:none;" d="M 5.1875 -10.296875 L 5.1875 0 L 6.9375 0 L 6.9375 -14.453125 L 5.78125 -14.453125 C 5.15625 -12.234375 4.765625 -11.9375 2.046875 -11.578125 L 2.046875 -10.296875 Z M 5.1875 -10.296875 "/>
</symbol>
</g>
</defs>
<g id="surface201">
<rect x="0" y="0" width="417" height="417" style="fill:rgb(100%,100%,100%);fill-opacity:1;stroke:none;"/>
<rect x="0" y="0" width="417" height="417" style="fill:rgb(100%,100%,100%);fill-opacity:1;stroke:none;"/>
<path style="fill:none;stroke-width:0.75;stroke-linecap:round;stroke-linejoin:round;stroke:rgb(100%,100%,100%);stroke-opacity:1;stroke-miterlimit:10;" d="M 0 417 L 417 417 L 417 0 L 0 0 Z M 0 417 "/>
<path style=" stroke:none;fill-rule:nonzero;fill:rgb(100%,60.392157%,49.411765%);fill-opacity:1;" d="M 46.417969 81.632812 L 84.464844 81.632812 L 84.464844 46.417969 L 46.417969 46.417969 Z M 46.417969 81.632812 "/>
<g style="fill:rgb(0%,0%,0%);fill-opacity:1;">
  <use xlink:href="#glyph0-1" x="51.941406" y="67.313477"/>
  <use xlink:href="#glyph0-2" x="57.941406" y="67.313477"/>
  <use xlink:href="#glyph0-3" x="60.941406" y="67.313477"/>
  <use xlink:href="#glyph0-4" x="66.941406" y="67.313477"/>
  <use xlink:href="#glyph0-5" x="72.941406" y="67.313477"/>
</g>
<path style=" stroke:none;fill-rule:nonzero;fill:rgb(81.568627%,72.941176%,96.078431%);fill-opacity:1;" d="M 87.296875 81.632812 L 125.34375 81.632812 L 125.34375 46.417969 L 87.296875 46.417969 Z M 87.296875 81.632812 "/>
<path style=" stroke:none;fill-rule:nonzero;fill:rgb(90.588235%,88.235294%,94.117647%);fill-opacity:1;" d="M 128.179688 81.632812 L 166.226562 81.632812 L 166.226562 46.417969 L 128.179688 46.417969 Z M 128.179688 81.632812 "/>
<path style=" stroke:none;fill-rule:nonzero;fill:rgb(85.098039%,78.823529%,95.294118%);fill-opacity:1;" d="M 169.0625 81.632812 L 207.109375 81.632812 L 207.109375 46.417969 L 169.0625 46.417969 Z M 169.0625 81.632812 "/>
<path style=" stroke:none;fill-rule:nonzero;fill:rgb(90.980392%,89.019608%,94.117647%);fill-opacity:1;" d="M 209.945312 81.632812 L 247.992188 81.632812 L 247.992188 46.417969 L 209.945312 46.417969 Z M 209.945312 81.632812 "/>
<path style=" stroke:none;fill-rule:nonzero;fill:rgb(85.098039%,78.039216%,95.294118%);fill-opacity:1;" d="M 250.828125 81.632812 L 288.875 81.632812 L 288.875 46.417969 L 250.828125 46.417969 Z M 250.828125 81.632812 "/>
<path style=" stroke:none;fill-rule:nonzero;fill:rgb(79.215686%,69.019608%,96.470588%);fill-opacity:1;" d="M 291.710938 81.632812 L 329.757812 81.632812 L 329.757812 46.417969 L 291.710938 46.417969 Z M 291.710938 81.632812 "/>
<path style=" stroke:none;fill-rule:nonzero;fill:rgb(88.627451%,84.313725%,94.509804%);fill-opacity:1;" d="M 332.589844 81.632812 L 370.636719 81.632812 L 370.636719 46.417969 L 332.589844 46.417969 Z M 332.589844 81.632812 "/>
<path style=" stroke:none;fill-rule:nonzero;fill:rgb(79.215686%,69.411765%,96.470588%);fill-opacity:1;" d="M 373.472656 81.632812 L 411.519531 81.632812 L 411.519531 46.417969 L 373.472656 46.417969 Z M 373.472656 81.632812 "/>
<path style=" stroke:none;fill-rule:nonzero;fill:rgb(69.803922%,55.294118%,97.647059%);fill-opacity:1;" d="M 46.417969 119.683594 L 84.464844 119.683594 L 84.464844 84.46875 L 46.417969 84.46875 Z M 46.417969 119.683594 "/>
<path style=" stroke:none;fill-rule:nonzero;fill:rgb(100%,34.117647%,21.568627%);fill-opacity:1;" d="M 87.296875 119.683594 L 125.34375 119.683594 L 125.34375 84.46875 L 87.296875 84.46875 Z M 87.296875 119.683594 "/>
<g style="fill:rgb(0%,0%,0%);fill-opacity:1;">
  <use xlink:href="#glyph0-1" x="92.824219" y="105.364258"/>
  <use xlink:href="#glyph0-2" x="98.824219" y="105.364258"/>
  <use xlink:href="#glyph0-4" x="101.824219" y="105.364258"/>
  <use xlink:href="#glyph0-6" x="107.824219" y="105.364258"/>
  <use xlink:href="#glyph0-7" x="113.824219" y="105.364258"/>
</g>
<path style=" stroke:none;fill-rule:nonzero;fill:rgb(69.411765%,54.901961%,97.647059%);fill-opacity:1;" d="M 128.179688 119.683594 L 166.226562 119.683594 L 166.226562 84.46875 L 128.179688 84.46875 Z M 128.179688 119.683594 "/>
<path style=" stroke:none;fill-rule:nonzero;fill:rgb(98.039216%,84.705882%,81.176471%);fill-opacity:1;" d="M 169.0625 119.683594 L 207.109375 119.683594 L 207.109375 84.46875 L 169.0625 84.46875 Z M 169.0625 119.683594 "/>
<path style=" stroke:none;fill-rule:nonzero;fill:rgb(83.137255%,74.901961%,95.686275%);fill-opacity:1;" d="M 209.945312 119.683594 L 247.992188 119.683594 L 247.992188 84.46875 L 209.945312 84.46875 Z M 209.945312 119.683594 "/>
<path style=" stroke:none;fill-rule:nonzero;fill:rgb(84.705882%,77.647059%,95.294118%);fill-opacity:1;" d="M 250.828125 119.683594 L 288.875 119.683594 L 288.875 84.46875 L 250.828125 84.46875 Z M 250.828125 119.683594 "/>
<path style=" stroke:none;fill-rule:nonzero;fill:rgb(87.843137%,83.137255%,94.901961%);fill-opacity:1;" d="M 291.710938 119.683594 L 329.757812 119.683594 L 329.757812 84.46875 L 291.710938 84.46875 Z M 291.710938 119.683594 "/>
<path style=" stroke:none;fill-rule:nonzero;fill:rgb(100%,40%,27.058824%);fill-opacity:1;" d="M 332.589844 119.683594 L 370.636719 119.683594 L 370.636719 84.46875 L 332.589844 84.46875 Z M 332.589844 119.683594 "/>
<path style=" stroke:none;fill-rule:nonzero;fill:rgb(100%,57.254902%,46.27451%);fill-opacity:1;" d="M 373.472656 119.683594 L 411.519531 119.683594 L 411.519531 84.46875 L 373.472656 84.46875 Z M 373.472656 119.683594 "/>
<path style=" stroke:none;fill-rule:nonzero;fill:rgb(90.588235%,87.843137%,94.117647%);fill-opacity:1;" d="M 46.417969 157.734375 L 84.464844 157.734375 L 84.464844 122.519531 L 46.417969 122.519531 Z M 46.417969 157.734375 "/>
<path style=" stroke:none;fill-rule:nonzero;fill:rgb(80.392157%,70.588235%,96.078431%);fill-opacity:1;" d="M 87.296875 157.734375 L 125.34375 157.734375 L 125.34375 122.519531 L 87.296875 122.519531 Z M 87.296875 157.734375 "/>
<path style=" stroke:none;fill-rule:nonzero;fill:rgb(100%,57.647059%,46.27451%);fill-opacity:1;" d="M 128.179688 157.734375 L 166.226562 157.734375 L 166.226562 122.519531 L 128.179688 122.519531 Z M 128.179688 157.734375 "/>
<g style="fill:rgb(0%,0%,0%);fill-opacity:1;">
  <use xlink:href="#glyph0-1" x="133.703125" y="143.415039"/>
  <use xlink:href="#glyph0-2" x="139.703125" y="143.415039"/>
  <use xlink:href="#glyph0-3" x="142.703125" y="143.415039"/>
  <use xlink:href="#glyph0-7" x="148.703125" y="143.415039"/>
  <use xlink:href="#glyph0-8" x="154.703125" y="143.415039"/>
</g>
<path style=" stroke:none;fill-rule:nonzero;fill:rgb(85.098039%,78.431373%,95.294118%);fill-opacity:1;" d="M 169.0625 157.734375 L 207.109375 157.734375 L 207.109375 122.519531 L 169.0625 122.519531 Z M 169.0625 157.734375 "/>
<path style=" stroke:none;fill-rule:nonzero;fill:rgb(90.980392%,89.019608%,94.117647%);fill-opacity:1;" d="M 209.945312 157.734375 L 247.992188 157.734375 L 247.992188 122.519531 L 209.945312 122.519531 Z M 209.945312 157.734375 "/>
<path style=" stroke:none;fill-rule:nonzero;fill:rgb(94.901961%,90.588235%,89.411765%);fill-opacity:1;" d="M 250.828125 157.734375 L 288.875 157.734375 L 288.875 122.519531 L 250.828125 122.519531 Z M 250.828125 157.734375 "/>
<path style=" stroke:none;fill-rule:nonzero;fill:rgb(100%,79.215686%,73.72549%);fill-opacity:1;" d="M 291.710938 157.734375 L 329.757812 157.734375 L 329.757812 122.519531 L 291.710938 122.519531 Z M 291.710938 157.734375 "/>
<path style=" stroke:none;fill-rule:nonzero;fill:rgb(81.960784%,72.941176%,96.078431%);fill-opacity:1;" d="M 332.589844 157.734375 L 370.636719 157.734375 L 370.636719 122.519531 L 332.589844 122.519531 Z M 332.589844 157.734375 "/>
<path style=" stroke:none;fill-rule:nonzero;fill:rgb(83.529412%,75.686275%,95.686275%);fill-opacity:1;" d="M 373.472656 157.734375 L 411.519531 157.734375 L 411.519531 122.519531 L 373.472656 122.519531 Z M 373.472656 157.734375 "/>
<path style=" stroke:none;fill-rule:nonzero;fill:rgb(83.921569%,76.078431%,95.686275%);fill-opacity:1;" d="M 46.417969 195.785156 L 84.464844 195.785156 L 84.464844 160.570312 L 46.417969 160.570312 Z M 46.417969 195.785156 "/>
<path style=" stroke:none;fill-rule:nonzero;fill:rgb(96.078431%,88.235294%,85.882353%);fill-opacity:1;" d="M 87.296875 195.785156 L 125.34375 195.785156 L 125.34375 160.570312 L 87.296875 160.570312 Z M 87.296875 195.785156 "/>
<path style=" stroke:none;fill-rule:nonzero;fill:rgb(84.705882%,77.647059%,95.294118%);fill-opacity:1;" d="M 128.179688 195.785156 L 166.226562 195.785156 L 166.226562 160.570312 L 128.179688 160.570312 Z M 128.179688 195.785156 "/>
<path style=" stroke:none;fill-rule:nonzero;fill:rgb(100%,55.294118%,43.529412%);fill-opacity:1;" d="M 169.0625 195.785156 L 207.109375 195.785156 L 207.109375 160.570312 L 169.0625 160.570312 Z M 169.0625 195.785156 "/>
<g style="fill:rgb(0%,0%,0%);fill-opacity:1;">
  <use xlink:href="#glyph0-1" x="174.585938" y="181.469727"/>
  <use xlink:href="#glyph0-2" x="180.585938" y="181.469727"/>
  <use xlink:href="#glyph0-9" x="183.585938" y="181.469727"/>
  <use xlink:href="#glyph0-1" x="189.585938" y="181.469727"/>
  <use xlink:href="#glyph0-6" x="195.585938" y="181.469727"/>
</g>
<path style=" stroke:none;fill-rule:nonzero;fill:rgb(100%,70.196078%,61.960784%);fill-opacity:1;" d="M 209.945312 195.785156 L 247.992188 195.785156 L 247.992188 160.570312 L 209.945312 160.570312 Z M 209.945312 195.785156 "/>
<path style=" stroke:none;fill-rule:nonzero;fill:rgb(100%,76.078431%,69.803922%);fill-opacity:1;" d="M 250.828125 195.785156 L 288.875 195.785156 L 288.875 160.570312 L 250.828125 160.570312 Z M 250.828125 195.785156 "/>
<path style=" stroke:none;fill-rule:nonzero;fill:rgb(89.411765%,86.27451%,94.509804%);fill-opacity:1;" d="M 291.710938 195.785156 L 329.757812 195.785156 L 329.757812 160.570312 L 291.710938 160.570312 Z M 291.710938 195.785156 "/>
<path style=" stroke:none;fill-rule:nonzero;fill:rgb(93.72549%,92.54902%,92.156863%);fill-opacity:1;" d="M 332.589844 195.785156 L 370.636719 195.785156 L 370.636719 160.570312 L 332.589844 160.570312 Z M 332.589844 195.785156 "/>
<path style=" stroke:none;fill-rule:nonzero;fill:rgb(100%,70.196078%,61.960784%);fill-opacity:1;" d="M 373.472656 195.785156 L 411.519531 195.785156 L 411.519531 160.570312 L 373.472656 160.570312 Z M 373.472656 195.785156 "/>
<path style=" stroke:none;fill-rule:nonzero;fill:rgb(89.411765%,85.882353%,94.509804%);fill-opacity:1;" d="M 46.417969 233.835938 L 84.464844 233.835938 L 84.464844 198.621094 L 46.417969 198.621094 Z M 46.417969 233.835938 "/>
<path style=" stroke:none;fill-rule:nonzero;fill:rgb(83.921569%,76.470588%,95.686275%);fill-opacity:1;" d="M 87.296875 233.835938 L 125.34375 233.835938 L 125.34375 198.621094 L 87.296875 198.621094 Z M 87.296875 233.835938 "/>
<path style=" stroke:none;fill-rule:nonzero;fill:rgb(89.411765%,85.882353%,94.509804%);fill-opacity:1;" d="M 128.179688 233.835938 L 166.226562 233.835938 L 166.226562 198.621094 L 128.179688 198.621094 Z M 128.179688 233.835938 "/>
<path style=" stroke:none;fill-rule:nonzero;fill:rgb(100%,58.823529%,47.843137%);fill-opacity:1;" d="M 169.0625 233.835938 L 207.109375 233.835938 L 207.109375 198.621094 L 169.0625 198.621094 Z M 169.0625 233.835938 "/>
<path style=" stroke:none;fill-rule:nonzero;fill:rgb(100%,38.039216%,25.490196%);fill-opacity:1;" d="M 209.945312 233.835938 L 247.992188 233.835938 L 247.992188 198.621094 L 209.945312 198.621094 Z M 209.945312 233.835938 "/>
<g style="fill:rgb(0%,0%,0%);fill-opacity:1;">
  <use xlink:href="#glyph0-1" x="215.46875" y="219.520508"/>
  <use xlink:href="#glyph0-2" x="221.46875" y="219.520508"/>
  <use xlink:href="#glyph0-4" x="224.46875" y="219.520508"/>
  <use xlink:href="#glyph0-8" x="230.46875" y="219.520508"/>
  <use xlink:href="#glyph0-5" x="236.46875" y="219.520508"/>
</g>
<path style=" stroke:none;fill-rule:nonzero;fill:rgb(100%,72.941176%,65.490196%);fill-opacity:1;" d="M 250.828125 233.835938 L 288.875 233.835938 L 288.875 198.621094 L 250.828125 198.621094 Z M 250.828125 233.835938 "/>
<path style=" stroke:none;fill-rule:nonzero;fill:rgb(83.921569%,76.862745%,95.686275%);fill-opacity:1;" d="M 291.710938 233.835938 L 329.757812 233.835938 L 329.757812 198.621094 L 291.710938 198.621094 Z M 291.710938 233.835938 "/>
<path style=" stroke:none;fill-rule:nonzero;fill:rgb(86.27451%,80%,95.294118%);fill-opacity:1;" d="M 332.589844 233.835938 L 370.636719 233.835938 L 370.636719 198.621094 L 332.589844 198.621094 Z M 332.589844 233.835938 "/>
<path style=" stroke:none;fill-rule:nonzero;fill:rgb(100%,64.705882%,54.901961%);fill-opacity:1;" d="M 373.472656 233.835938 L 411.519531 233.835938 L 411.519531 198.621094 L 373.472656 198.621094 Z M 373.472656 233.835938 "/>
<path style=" stroke:none;fill-rule:nonzero;fill:rgb(86.27451%,80.392157%,94.901961%);fill-opacity:1;" d="M 46.417969 271.886719 L 84.464844 271.886719 L 84.464844 236.671875 L 46.417969 236.671875 Z M 46.417969 271.886719 "/>
<path style=" stroke:none;fill-rule:nonzero;fill:rgb(89.803922%,86.27451%,94.117647%);fill-opacity:1;" d="M 87.296875 271.886719 L 125.34375 271.886719 L 125.34375 236.671875 L 87.296875 236.671875 Z M 87.296875 271.886719 "/>
<path style=" stroke:none;fill-rule:nonzero;fill:rgb(94.509804%,91.372549%,90.588235%);fill-opacity:1;" d="M 128.179688 271.886719 L 166.226562 271.886719 L 166.226562 236.671875 L 128.179688 236.671875 Z M 128.179688 271.886719 "/>
<path style=" stroke:none;fill-rule:nonzero;fill:rgb(99.215686%,80.784314%,76.078431%);fill-opacity:1;" d="M 169.0625 271.886719 L 207.109375 271.886719 L 207.109375 236.671875 L 169.0625 236.671875 Z M 169.0625 271.886719 "/>
<path style=" stroke:none;fill-rule:nonzero;fill:rgb(98.431373%,83.529412%,79.607843%);fill-opacity:1;" d="M 209.945312 271.886719 L 247.992188 271.886719 L 247.992188 236.671875 L 209.945312 236.671875 Z M 209.945312 271.886719 "/>
<path style=" stroke:none;fill-rule:nonzero;fill:rgb(100%,65.098039%,55.294118%);fill-opacity:1;" d="M 250.828125 271.886719 L 288.875 271.886719 L 288.875 236.671875 L 250.828125 236.671875 Z M 250.828125 271.886719 "/>
<g style="fill:rgb(0%,0%,0%);fill-opacity:1;">
  <use xlink:href="#glyph0-1" x="256.351562" y="257.571289"/>
  <use xlink:href="#glyph0-2" x="262.351562" y="257.571289"/>
  <use xlink:href="#glyph0-3" x="265.351562" y="257.571289"/>
  <use xlink:href="#glyph0-1" x="271.351562" y="257.571289"/>
  <use xlink:href="#glyph0-6" x="277.351562" y="257.571289"/>
</g>
<path style=" stroke:none;fill-rule:nonzero;fill:rgb(96.470588%,87.843137%,85.490196%);fill-opacity:1;" d="M 291.710938 271.886719 L 329.757812 271.886719 L 329.757812 236.671875 L 291.710938 236.671875 Z M 291.710938 271.886719 "/>
<path style=" stroke:none;fill-rule:nonzero;fill:rgb(90.980392%,88.627451%,94.117647%);fill-opacity:1;" d="M 332.589844 271.886719 L 370.636719 271.886719 L 370.636719 236.671875 L 332.589844 236.671875 Z M 332.589844 271.886719 "/>
<path style=" stroke:none;fill-rule:nonzero;fill:rgb(95.294118%,89.803922%,88.627451%);fill-opacity:1;" d="M 373.472656 271.886719 L 411.519531 271.886719 L 411.519531 236.671875 L 373.472656 236.671875 Z M 373.472656 271.886719 "/>
<path style=" stroke:none;fill-rule:nonzero;fill:rgb(77.254902%,66.27451%,96.470588%);fill-opacity:1;" d="M 46.417969 309.9375 L 84.464844 309.9375 L 84.464844 274.722656 L 46.417969 274.722656 Z M 46.417969 309.9375 "/>
<path style=" stroke:none;fill-rule:nonzero;fill:rgb(90.196078%,87.45098%,94.117647%);fill-opacity:1;" d="M 87.296875 309.9375 L 125.34375 309.9375 L 125.34375 274.722656 L 87.296875 274.722656 Z M 87.296875 309.9375 "/>
<path style=" stroke:none;fill-rule:nonzero;fill:rgb(100%,78.823529%,72.941176%);fill-opacity:1;" d="M 128.179688 309.9375 L 166.226562 309.9375 L 166.226562 274.722656 L 128.179688 274.722656 Z M 128.179688 309.9375 "/>
<path style=" stroke:none;fill-rule:nonzero;fill:rgb(89.803922%,86.666667%,94.117647%);fill-opacity:1;" d="M 169.0625 309.9375 L 207.109375 309.9375 L 207.109375 274.722656 L 169.0625 274.722656 Z M 169.0625 309.9375 "/>
<path style=" stroke:none;fill-rule:nonzero;fill:rgb(87.843137%,82.745098%,94.901961%);fill-opacity:1;" d="M 209.945312 309.9375 L 247.992188 309.9375 L 247.992188 274.722656 L 209.945312 274.722656 Z M 209.945312 309.9375 "/>
<path style=" stroke:none;fill-rule:nonzero;fill:rgb(97.254902%,85.882353%,83.137255%);fill-opacity:1;" d="M 250.828125 309.9375 L 288.875 309.9375 L 288.875 274.722656 L 250.828125 274.722656 Z M 250.828125 309.9375 "/>
<path style=" stroke:none;fill-rule:nonzero;fill:rgb(100%,56.470588%,45.098039%);fill-opacity:1;" d="M 291.710938 309.9375 L 329.757812 309.9375 L 329.757812 274.722656 L 291.710938 274.722656 Z M 291.710938 309.9375 "/>
<g style="fill:rgb(0%,0%,0%);fill-opacity:1;">
  <use xlink:href="#glyph0-1" x="297.234375" y="295.62207"/>
  <use xlink:href="#glyph0-2" x="303.234375" y="295.62207"/>
  <use xlink:href="#glyph0-3" x="306.234375" y="295.62207"/>
  <use xlink:href="#glyph0-6" x="312.234375" y="295.62207"/>
  <use xlink:href="#glyph0-4" x="318.234375" y="295.62207"/>
</g>
<path style=" stroke:none;fill-rule:nonzero;fill:rgb(81.960784%,72.941176%,96.078431%);fill-opacity:1;" d="M 332.589844 309.9375 L 370.636719 309.9375 L 370.636719 274.722656 L 332.589844 274.722656 Z M 332.589844 309.9375 "/>
<path style=" stroke:none;fill-rule:nonzero;fill:rgb(93.333333%,93.333333%,93.333333%);fill-opacity:1;" d="M 373.472656 309.9375 L 411.519531 309.9375 L 411.519531 274.722656 L 373.472656 274.722656 Z M 373.472656 309.9375 "/>
<path style=" stroke:none;fill-rule:nonzero;fill:rgb(84.705882%,77.647059%,95.294118%);fill-opacity:1;" d="M 46.417969 347.988281 L 84.464844 347.988281 L 84.464844 312.773438 L 46.417969 312.773438 Z M 46.417969 347.988281 "/>
<path style=" stroke:none;fill-rule:nonzero;fill:rgb(100%,44.313725%,31.764706%);fill-opacity:1;" d="M 87.296875 347.988281 L 125.34375 347.988281 L 125.34375 312.773438 L 87.296875 312.773438 Z M 87.296875 347.988281 "/>
<path style=" stroke:none;fill-rule:nonzero;fill:rgb(74.117647%,61.568627%,97.254902%);fill-opacity:1;" d="M 128.179688 347.988281 L 166.226562 347.988281 L 166.226562 312.773438 L 128.179688 312.773438 Z M 128.179688 347.988281 "/>
<path style=" stroke:none;fill-rule:nonzero;fill:rgb(94.117647%,92.156863%,91.372549%);fill-opacity:1;" d="M 169.0625 347.988281 L 207.109375 347.988281 L 207.109375 312.773438 L 169.0625 312.773438 Z M 169.0625 347.988281 "/>
<path style=" stroke:none;fill-rule:nonzero;fill:rgb(86.27451%,80.392157%,94.901961%);fill-opacity:1;" d="M 209.945312 347.988281 L 247.992188 347.988281 L 247.992188 312.773438 L 209.945312 312.773438 Z M 209.945312 347.988281 "/>
<path style=" stroke:none;fill-rule:nonzero;fill:rgb(88.235294%,83.921569%,94.509804%);fill-opacity:1;" d="M 250.828125 347.988281 L 288.875 347.988281 L 288.875 312.773438 L 250.828125 312.773438 Z M 250.828125 347.988281 "/>
<path style=" stroke:none;fill-rule:nonzero;fill:rgb(74.901961%,62.352941%,96.862745%);fill-opacity:1;" d="M 291.710938 347.988281 L 329.757812 347.988281 L 329.757812 312.773438 L 291.710938 312.773438 Z M 291.710938 347.988281 "/>
<path style=" stroke:none;fill-rule:nonzero;fill:rgb(100%,39.215686%,26.27451%);fill-opacity:1;" d="M 332.589844 347.988281 L 370.636719 347.988281 L 370.636719 312.773438 L 332.589844 312.773438 Z M 332.589844 347.988281 "/>
<g style="fill:rgb(0%,0%,0%);fill-opacity:1;">
  <use xlink:href="#glyph0-1" x="338.113281" y="333.672852"/>
  <use xlink:href="#glyph0-2" x="344.113281" y="333.672852"/>
  <use xlink:href="#glyph0-4" x="347.113281" y="333.672852"/>
  <use xlink:href="#glyph0-4" x="353.113281" y="333.672852"/>
  <use xlink:href="#glyph0-7" x="359.113281" y="333.672852"/>
</g>
<path style=" stroke:none;fill-rule:nonzero;fill:rgb(100%,68.235294%,59.215686%);fill-opacity:1;" d="M 373.472656 347.988281 L 411.519531 347.988281 L 411.519531 312.773438 L 373.472656 312.773438 Z M 373.472656 347.988281 "/>
<path style=" stroke:none;fill-rule:nonzero;fill:rgb(49.803922%,32.54902%,99.215686%);fill-opacity:1;" d="M 46.417969 386.042969 L 84.464844 386.042969 L 84.464844 350.828125 L 46.417969 350.828125 Z M 46.417969 386.042969 "/>
<path style=" stroke:none;fill-rule:nonzero;fill:rgb(100%,41.960784%,29.019608%);fill-opacity:1;" d="M 87.296875 386.042969 L 125.34375 386.042969 L 125.34375 350.828125 L 87.296875 350.828125 Z M 87.296875 386.042969 "/>
<path style=" stroke:none;fill-rule:nonzero;fill:rgb(65.098039%,49.411765%,98.039216%);fill-opacity:1;" d="M 128.179688 386.042969 L 166.226562 386.042969 L 166.226562 350.828125 L 128.179688 350.828125 Z M 128.179688 386.042969 "/>
<path style=" stroke:none;fill-rule:nonzero;fill:rgb(100%,40.392157%,27.843137%);fill-opacity:1;" d="M 169.0625 386.042969 L 207.109375 386.042969 L 207.109375 350.828125 L 169.0625 350.828125 Z M 169.0625 386.042969 "/>
<path style=" stroke:none;fill-rule:nonzero;fill:rgb(100%,48.627451%,36.078431%);fill-opacity:1;" d="M 209.945312 386.042969 L 247.992188 386.042969 L 247.992188 350.828125 L 209.945312 350.828125 Z M 209.945312 386.042969 "/>
<path style=" stroke:none;fill-rule:nonzero;fill:rgb(99.215686%,81.568627%,76.862745%);fill-opacity:1;" d="M 250.828125 386.042969 L 288.875 386.042969 L 288.875 350.828125 L 250.828125 350.828125 Z M 250.828125 386.042969 "/>
<path style=" stroke:none;fill-rule:nonzero;fill:rgb(93.333333%,93.333333%,93.333333%);fill-opacity:1;" d="M 291.710938 386.042969 L 329.757812 386.042969 L 329.757812 350.828125 L 291.710938 350.828125 Z M 291.710938 386.042969 "/>
<path style=" stroke:none;fill-rule:nonzero;fill:rgb(100%,52.941176%,41.176471%);fill-opacity:1;" d="M 332.589844 386.042969 L 370.636719 386.042969 L 370.636719 350.828125 L 332.589844 350.828125 Z M 332.589844 386.042969 "/>
<path style=" stroke:none;fill-rule:nonzero;fill:rgb(100%,0%,0%);fill-opacity:1;" d="M 373.472656 386.042969 L 411.519531 386.042969 L 411.519531 350.828125 L 373.472656 350.828125 Z M 373.472656 386.042969 "/>
<g style="fill:rgb(0%,0%,0%);fill-opacity:1;">
  <use xlink:href="#glyph0-1" x="378.996094" y="371.723633"/>
  <use xlink:href="#glyph0-2" x="384.996094" y="371.723633"/>
  <use xlink:href="#glyph0-5" x="387.996094" y="371.723633"/>
  <use xlink:href="#glyph0-9" x="393.996094" y="371.723633"/>
  <use xlink:href="#glyph0-8" x="399.996094" y="371.723633"/>
</g>
<g style="fill:rgb(0%,0%,0%);fill-opacity:1;">
  <use xlink:href="#glyph1-1" x="58.941406" y="18.102539"/>
</g>
<g style="fill:rgb(0%,0%,0%);fill-opacity:1;">
  <use xlink:href="#glyph2-1" x="66.941406" y="20.665039"/>
</g>
<g style="fill:rgb(0%,0%,0%);fill-opacity:1;">
  <use xlink:href="#glyph1-1" x="99.824219" y="18.102539"/>
</g>
<g style="fill:rgb(0%,0%,0%);fill-opacity:1;">
  <use xlink:href="#glyph2-2" x="107.824219" y="20.665039"/>
</g>
<g style="fill:rgb(0%,0%,0%);fill-opacity:1;">
  <use xlink:href="#glyph1-1" x="140.703125" y="17.102539"/>
</g>
<g style="fill:rgb(0%,0%,0%);fill-opacity:1;">
  <use xlink:href="#glyph2-3" x="148.703125" y="19.665039"/>
</g>
<g style="fill:rgb(0%,0%,0%);fill-opacity:1;">
  <use xlink:href="#glyph1-1" x="181.585938" y="18.102539"/>
</g>
<g style="fill:rgb(0%,0%,0%);fill-opacity:1;">
  <use xlink:href="#glyph2-4" x="189.585938" y="20.665039"/>
</g>
<g style="fill:rgb(0%,0%,0%);fill-opacity:1;">
  <use xlink:href="#glyph1-1" x="222.46875" y="17.102539"/>
</g>
<g style="fill:rgb(0%,0%,0%);fill-opacity:1;">
  <use xlink:href="#glyph2-5" x="230.46875" y="19.665039"/>
</g>
<g style="fill:rgb(0%,0%,0%);fill-opacity:1;">
  <use xlink:href="#glyph1-1" x="263.351562" y="17.102539"/>
</g>
<g style="fill:rgb(0%,0%,0%);fill-opacity:1;">
  <use xlink:href="#glyph2-6" x="271.351562" y="19.665039"/>
</g>
<g style="fill:rgb(0%,0%,0%);fill-opacity:1;">
  <use xlink:href="#glyph1-1" x="304.234375" y="18.102539"/>
</g>
<g style="fill:rgb(0%,0%,0%);fill-opacity:1;">
  <use xlink:href="#glyph2-7" x="312.234375" y="20.665039"/>
</g>
<g style="fill:rgb(0%,0%,0%);fill-opacity:1;">
  <use xlink:href="#glyph1-1" x="345.113281" y="17.102539"/>
</g>
<g style="fill:rgb(0%,0%,0%);fill-opacity:1;">
  <use xlink:href="#glyph2-8" x="353.113281" y="19.665039"/>
</g>
<g style="fill:rgb(0%,0%,0%);fill-opacity:1;">
  <use xlink:href="#glyph1-1" x="376.496094" y="15.102539"/>
</g>
<g style="fill:rgb(0%,0%,0%);fill-opacity:1;">
  <use xlink:href="#glyph2-9" x="384.496094" y="17.665039"/>
</g>
<g style="fill:rgb(0%,0%,0%);fill-opacity:1;">
  <use xlink:href="#glyph2-10" x="389.496094" y="17.665039"/>
</g>
<g style="fill:rgb(0%,0%,0%);fill-opacity:1;">
  <use xlink:href="#glyph2-11" x="391.496094" y="17.665039"/>
</g>
<g style="fill:rgb(0%,0%,0%);fill-opacity:1;">
  <use xlink:href="#glyph2-12" x="396.496094" y="17.665039"/>
</g>
<g style="fill:rgb(0%,0%,0%);fill-opacity:1;">
  <use xlink:href="#glyph2-13" x="401.496094" y="17.665039"/>
</g>
<g style="fill:rgb(0%,0%,0%);fill-opacity:1;">
  <use xlink:href="#glyph2-10" x="406.496094" y="17.665039"/>
</g>
<g style="fill:rgb(0%,0%,0%);fill-opacity:1;">
  <use xlink:href="#glyph3-1" x="18.102539" y="79.023438"/>
</g>
<g style="fill:rgb(0%,0%,0%);fill-opacity:1;">
  <use xlink:href="#glyph3-2" x="18.102539" y="71.023438"/>
</g>
<g style="fill:rgb(0%,0%,0%);fill-opacity:1;">
  <use xlink:href="#glyph3-3" x="18.102539" y="63.023438"/>
</g>
<g style="fill:rgb(0%,0%,0%);fill-opacity:1;">
  <use xlink:href="#glyph4-1" x="20.665039" y="54.023438"/>
</g>
<g style="fill:rgb(0%,0%,0%);fill-opacity:1;">
  <use xlink:href="#glyph3-1" x="18.102539" y="117.074219"/>
</g>
<g style="fill:rgb(0%,0%,0%);fill-opacity:1;">
  <use xlink:href="#glyph3-2" x="18.102539" y="109.074219"/>
</g>
<g style="fill:rgb(0%,0%,0%);fill-opacity:1;">
  <use xlink:href="#glyph3-3" x="18.102539" y="101.074219"/>
</g>
<g style="fill:rgb(0%,0%,0%);fill-opacity:1;">
  <use xlink:href="#glyph4-2" x="20.665039" y="92.074219"/>
</g>
<g style="fill:rgb(0%,0%,0%);fill-opacity:1;">
  <use xlink:href="#glyph3-1" x="17.102539" y="155.125"/>
</g>
<g style="fill:rgb(0%,0%,0%);fill-opacity:1;">
  <use xlink:href="#glyph3-2" x="17.102539" y="147.125"/>
</g>
<g style="fill:rgb(0%,0%,0%);fill-opacity:1;">
  <use xlink:href="#glyph3-3" x="17.102539" y="139.125"/>
</g>
<g style="fill:rgb(0%,0%,0%);fill-opacity:1;">
  <use xlink:href="#glyph4-3" x="19.665039" y="130.125"/>
</g>
<g style="fill:rgb(0%,0%,0%);fill-opacity:1;">
  <use xlink:href="#glyph3-1" x="18.102539" y="193.179688"/>
</g>
<g style="fill:rgb(0%,0%,0%);fill-opacity:1;">
  <use xlink:href="#glyph3-2" x="18.102539" y="185.179688"/>
</g>
<g style="fill:rgb(0%,0%,0%);fill-opacity:1;">
  <use xlink:href="#glyph3-3" x="18.102539" y="177.179688"/>
</g>
<g style="fill:rgb(0%,0%,0%);fill-opacity:1;">
  <use xlink:href="#glyph4-4" x="20.665039" y="168.179688"/>
</g>
<g style="fill:rgb(0%,0%,0%);fill-opacity:1;">
  <use xlink:href="#glyph3-1" x="17.102539" y="231.230469"/>
</g>
<g style="fill:rgb(0%,0%,0%);fill-opacity:1;">
  <use xlink:href="#glyph3-2" x="17.102539" y="223.230469"/>
</g>
<g style="fill:rgb(0%,0%,0%);fill-opacity:1;">
  <use xlink:href="#glyph3-3" x="17.102539" y="215.230469"/>
</g>
<g style="fill:rgb(0%,0%,0%);fill-opacity:1;">
  <use xlink:href="#glyph4-5" x="19.665039" y="206.230469"/>
</g>
<g style="fill:rgb(0%,0%,0%);fill-opacity:1;">
  <use xlink:href="#glyph3-1" x="17.102539" y="269.28125"/>
</g>
<g style="fill:rgb(0%,0%,0%);fill-opacity:1;">
  <use xlink:href="#glyph3-2" x="17.102539" y="261.28125"/>
</g>
<g style="fill:rgb(0%,0%,0%);fill-opacity:1;">
  <use xlink:href="#glyph3-3" x="17.102539" y="253.28125"/>
</g>
<g style="fill:rgb(0%,0%,0%);fill-opacity:1;">
  <use xlink:href="#glyph4-6" x="19.665039" y="244.28125"/>
</g>
<g style="fill:rgb(0%,0%,0%);fill-opacity:1;">
  <use xlink:href="#glyph3-1" x="18.102539" y="307.332031"/>
</g>
<g style="fill:rgb(0%,0%,0%);fill-opacity:1;">
  <use xlink:href="#glyph3-2" x="18.102539" y="299.332031"/>
</g>
<g style="fill:rgb(0%,0%,0%);fill-opacity:1;">
  <use xlink:href="#glyph3-3" x="18.102539" y="291.332031"/>
</g>
<g style="fill:rgb(0%,0%,0%);fill-opacity:1;">
  <use xlink:href="#glyph4-7" x="20.665039" y="282.332031"/>
</g>
<g style="fill:rgb(0%,0%,0%);fill-opacity:1;">
  <use xlink:href="#glyph3-1" x="17.102539" y="345.382812"/>
</g>
<g style="fill:rgb(0%,0%,0%);fill-opacity:1;">
  <use xlink:href="#glyph3-2" x="17.102539" y="337.382812"/>
</g>
<g style="fill:rgb(0%,0%,0%);fill-opacity:1;">
  <use xlink:href="#glyph3-3" x="17.102539" y="329.382812"/>
</g>
<g style="fill:rgb(0%,0%,0%);fill-opacity:1;">
  <use xlink:href="#glyph4-8" x="19.665039" y="320.382812"/>
</g>
<g style="fill:rgb(0%,0%,0%);fill-opacity:1;">
  <use xlink:href="#glyph3-1" x="15.102539" y="392.933594"/>
</g>
<g style="fill:rgb(0%,0%,0%);fill-opacity:1;">
  <use xlink:href="#glyph3-2" x="15.102539" y="384.933594"/>
</g>
<g style="fill:rgb(0%,0%,0%);fill-opacity:1;">
  <use xlink:href="#glyph3-3" x="15.102539" y="376.933594"/>
</g>
<g style="fill:rgb(0%,0%,0%);fill-opacity:1;">
  <use xlink:href="#glyph4-9" x="17.665039" y="367.933594"/>
</g>
<g style="fill:rgb(0%,0%,0%);fill-opacity:1;">
  <use xlink:href="#glyph4-10" x="17.665039" y="362.933594"/>
</g>
<g style="fill:rgb(0%,0%,0%);fill-opacity:1;">
  <use xlink:href="#glyph4-11" x="17.665039" y="360.933594"/>
</g>
<g style="fill:rgb(0%,0%,0%);fill-opacity:1;">
  <use xlink:href="#glyph4-12" x="17.665039" y="355.933594"/>
</g>
<g style="fill:rgb(0%,0%,0%);fill-opacity:1;">
  <use xlink:href="#glyph4-13" x="17.665039" y="350.933594"/>
</g>
<g style="fill:rgb(0%,0%,0%);fill-opacity:1;">
  <use xlink:href="#glyph4-10" x="17.665039" y="345.933594"/>
</g>
<path style=" stroke:none;fill-rule:nonzero;fill:rgb(100%,100%,0%);fill-opacity:1;" d="M 46.417969 43.582031 L 84.464844 43.582031 L 84.464844 29.410156 L 46.417969 29.410156 Z M 46.417969 43.582031 "/>
<path style=" stroke:none;fill-rule:nonzero;fill:rgb(54.509804%,0%,54.509804%);fill-opacity:1;" d="M 87.296875 43.582031 L 125.34375 43.582031 L 125.34375 29.410156 L 87.296875 29.410156 Z M 87.296875 43.582031 "/>
<path style=" stroke:none;fill-rule:nonzero;fill:rgb(0%,100%,100%);fill-opacity:1;" d="M 128.179688 43.582031 L 166.226562 43.582031 L 166.226562 29.410156 L 128.179688 29.410156 Z M 128.179688 43.582031 "/>
<path style=" stroke:none;fill-rule:nonzero;fill:rgb(80.392157%,0%,0%);fill-opacity:1;" d="M 169.0625 43.582031 L 207.109375 43.582031 L 207.109375 29.410156 L 169.0625 29.410156 Z M 169.0625 43.582031 "/>
<path style=" stroke:none;fill-rule:nonzero;fill:rgb(0%,80.392157%,0%);fill-opacity:1;" d="M 209.945312 43.582031 L 247.992188 43.582031 L 247.992188 29.410156 L 209.945312 29.410156 Z M 209.945312 43.582031 "/>
<path style=" stroke:none;fill-rule:nonzero;fill:rgb(0%,0%,80.392157%);fill-opacity:1;" d="M 250.828125 43.582031 L 288.875 43.582031 L 288.875 29.410156 L 250.828125 29.410156 Z M 250.828125 43.582031 "/>
<path style=" stroke:none;fill-rule:nonzero;fill:rgb(93.333333%,50.980392%,93.333333%);fill-opacity:1;" d="M 291.710938 43.582031 L 329.757812 43.582031 L 329.757812 29.410156 L 291.710938 29.410156 Z M 291.710938 43.582031 "/>
<path style=" stroke:none;fill-rule:nonzero;fill:rgb(100%,64.705882%,0%);fill-opacity:1;" d="M 332.589844 43.582031 L 370.636719 43.582031 L 370.636719 29.410156 L 332.589844 29.410156 Z M 332.589844 43.582031 "/>
<path style=" stroke:none;fill-rule:nonzero;fill:rgb(49.803922%,49.803922%,49.803922%);fill-opacity:1;" d="M 373.472656 43.582031 L 411.519531 43.582031 L 411.519531 29.410156 L 373.472656 29.410156 Z M 373.472656 43.582031 "/>
<path style=" stroke:none;fill-rule:nonzero;fill:rgb(100%,100%,0%);fill-opacity:1;" d="M 29.410156 81.632812 L 43.582031 81.632812 L 43.582031 46.417969 L 29.410156 46.417969 Z M 29.410156 81.632812 "/>
<path style=" stroke:none;fill-rule:nonzero;fill:rgb(54.509804%,0%,54.509804%);fill-opacity:1;" d="M 29.410156 119.683594 L 43.582031 119.683594 L 43.582031 84.46875 L 29.410156 84.46875 Z M 29.410156 119.683594 "/>
<path style=" stroke:none;fill-rule:nonzero;fill:rgb(0%,100%,100%);fill-opacity:1;" d="M 29.410156 157.734375 L 43.582031 157.734375 L 43.582031 122.519531 L 29.410156 122.519531 Z M 29.410156 157.734375 "/>
<path style=" stroke:none;fill-rule:nonzero;fill:rgb(80.392157%,0%,0%);fill-opacity:1;" d="M 29.410156 195.785156 L 43.582031 195.785156 L 43.582031 160.570312 L 29.410156 160.570312 Z M 29.410156 195.785156 "/>
<path style=" stroke:none;fill-rule:nonzero;fill:rgb(0%,80.392157%,0%);fill-opacity:1;" d="M 29.410156 233.835938 L 43.582031 233.835938 L 43.582031 198.621094 L 29.410156 198.621094 Z M 29.410156 233.835938 "/>
<path style=" stroke:none;fill-rule:nonzero;fill:rgb(0%,0%,80.392157%);fill-opacity:1;" d="M 29.410156 271.886719 L 43.582031 271.886719 L 43.582031 236.671875 L 29.410156 236.671875 Z M 29.410156 271.886719 "/>
<path style=" stroke:none;fill-rule:nonzero;fill:rgb(93.333333%,50.980392%,93.333333%);fill-opacity:1;" d="M 29.410156 309.9375 L 43.582031 309.9375 L 43.582031 274.722656 L 29.410156 274.722656 Z M 29.410156 309.9375 "/>
<path style=" stroke:none;fill-rule:nonzero;fill:rgb(100%,64.705882%,0%);fill-opacity:1;" d="M 29.410156 347.988281 L 43.582031 347.988281 L 43.582031 312.773438 L 29.410156 312.773438 Z M 29.410156 347.988281 "/>
<path style=" stroke:none;fill-rule:nonzero;fill:rgb(49.803922%,49.803922%,49.803922%);fill-opacity:1;" d="M 29.410156 386.042969 L 43.582031 386.042969 L 43.582031 350.828125 L 29.410156 350.828125 Z M 29.410156 386.042969 "/>
<g style="fill:rgb(0%,0%,0%);fill-opacity:1;">
  <use xlink:href="#glyph5-1" x="143.5" y="411.099609"/>
  <use xlink:href="#glyph5-2" x="154.5" y="411.099609"/>
  <use xlink:href="#glyph5-3" x="161.5" y="411.099609"/>
  <use xlink:href="#glyph5-4" x="178.5" y="411.099609"/>
  <use xlink:href="#glyph5-5" x="189.5" y="411.099609"/>
  <use xlink:href="#glyph5-6" x="199.5" y="411.099609"/>
  <use xlink:href="#glyph5-7" x="205.5" y="411.099609"/>
  <use xlink:href="#glyph5-6" x="217.5" y="411.099609"/>
  <use xlink:href="#glyph5-8" x="223.5" y="411.099609"/>
  <use xlink:href="#glyph5-9" x="234.5" y="411.099609"/>
  <use xlink:href="#glyph5-10" x="240.5" y="411.099609"/>
  <use xlink:href="#glyph5-11" x="251.5" y="411.099609"/>
  <use xlink:href="#glyph5-12" x="262.5" y="411.099609"/>
</g>
</g>
</svg>
